<?xml version="1.0" encoding="utf-8"?>
<!-- Generator: Adobe Illustrator 24.3.0, SVG Export Plug-In . SVG Version: 6.00 Build 0)  -->
<svg version="1.1" id="Layer_1" xmlns="http://www.w3.org/2000/svg" xmlns:xlink="http://www.w3.org/1999/xlink" x="0px" y="0px"
	 viewBox="0 0 800 800" style="enable-background:new 0 0 800 800;" xml:space="preserve">
<style type="text/css">
	.st0{fill-rule:evenodd;clip-rule:evenodd;fill:#FFFFFF;}
</style>
<path class="st0" d="M590,330l-12.9,94H422.4v329h-94V424h-141v-94h141v-86.2C328.4,124.3,401.9,47,515.6,47
	c48.7,0,79.1,2.6,96.6,4.9l-1.4,89l-72.3,0.1c-2-0.2-49.1-3.9-83.1,27.4c-21.9,20.1-33,48.9-33,85.7V330H590L590,330z M487,203.3
	c18.5-17.3,47.4-15.4,49.5-15.3h120.6l2.6-174l-18.1-4.5C629.9,6.7,594.2,0,515.6,0c-140,0-234.1,98-234.1,243.8V283h-141v188h141
	v329h188V471h148.6l25.8-188H469.4v-28.8C469.4,231.3,475.4,214.1,487,203.3L487,203.3z"/>
</svg>
