<?xml version="1.0" encoding="utf-8"?>
<!-- Generator: Adobe Illustrator 24.3.0, SVG Export Plug-In . SVG Version: 6.00 Build 0)  -->
<svg version="1.1" id="Layer_1" xmlns="http://www.w3.org/2000/svg" xmlns:xlink="http://www.w3.org/1999/xlink" x="0px" y="0px"
	 viewBox="0 0 800 800" style="enable-background:new 0 0 800 800;" xml:space="preserve">
<style type="text/css">
	.st0{fill:#FFFFFF;}
</style>
<path class="st0" d="M712.9,33.1H96.3c-7.9-0.4-15.9,0.8-23.4,3.5s-14.4,6.9-20.2,12.2c-5.9,5.4-10.6,11.8-14,19
	c-3.4,7.2-5.3,15-5.6,23v617.9c0.5,16.6,7.3,32.5,19,44.2c11.8,11.8,27.6,18.6,44.2,19.1h616.5c16.2-0.7,31.4-7.7,42.5-19.6
	c11.1-11.8,17-27.5,16.6-43.7V90.8c0.1-7.7-1.3-15.4-4.3-22.6c-2.9-7.2-7.3-13.6-12.9-19c-5.5-5.4-12.1-9.6-19.3-12.4
	C728.3,34,720.6,32.8,712.9,33.1z M264,649.1H156.4V319.9H264V649.1z M212.7,270c-7.5,0.3-15-1-22-3.8s-13.3-7-18.6-12.3
	s-9.4-11.7-12.1-18.7c-2.7-7-3.9-14.5-3.6-22c-0.3-7.6,0.9-15.2,3.7-22.2c2.8-7.1,7-13.5,12.4-18.8s11.8-9.5,18.9-12.2
	c7.1-2.7,14.7-3.9,22.3-3.5c7.5-0.3,15,1,22,3.8s13.3,7,18.6,12.3s9.4,11.7,12.1,18.7c2.7,7,3.9,14.5,3.6,22
	c0.3,7.6-0.9,15.2-3.7,22.2c-2.8,7.1-7,13.5-12.4,18.8c-5.4,5.3-11.8,9.5-18.9,12.2C227.9,269.2,220.3,270.4,212.7,270z
	 M649.1,649.1h-108V469c0-43-15.2-72.5-53.6-72.5c-11.9,0.1-23.5,3.9-33.2,10.8s-17,16.7-20.9,28c-3,8.4-4.3,17.4-3.7,26.3v187.5
	H323.5V319.9h106.2V366c9.4-17.4,23.5-31.8,40.6-41.6c17.1-9.9,36.6-14.8,56.4-14.3c69.7,0,122.4,46.2,122.4,144.6L649.1,649.1
	L649.1,649.1z"/>
</svg>
