<?xml version="1.0" encoding="utf-8"?>
<!-- Generator: Adobe Illustrator 24.3.0, SVG Export Plug-In . SVG Version: 6.00 Build 0)  -->
<svg version="1.1" id="Layer_1" xmlns="http://www.w3.org/2000/svg" xmlns:xlink="http://www.w3.org/1999/xlink" x="0px" y="0px"
	 viewBox="0 0 800 800" style="enable-background:new 0 0 800 800;" xml:space="preserve">
<style type="text/css">
	.st0{fill:none;}
	.st1{fill:#FFFFFF;}
</style>
<g>
	<path class="st0" d="M0,0h800v800H0V0z"/>
	<path class="st1" d="M366.7,700c0-27.6-22.4-50-50-50c-27.6,0-50,22.4-50,50H100c-18.4,0-33.3-14.9-33.3-33.3V133.3
		c0-18.4,14.9-33.3,33.3-33.3h166.7c0,27.6,22.4,50,50,50c27.6,0,50-22.4,50-50H700c18.4,0,33.3,14.9,33.3,33.3v183.3
		c-46,0-83.3,37.3-83.3,83.3s37.3,83.3,83.3,83.3v183.3c0,18.4-14.9,33.3-33.3,33.3H366.7z M316.7,350c27.6,0,50-22.4,50-50
		c0-27.6-22.4-50-50-50c-27.6,0-50,22.4-50,50C266.7,327.6,289.1,350,316.7,350z M316.7,550c27.6,0,50-22.4,50-50s-22.4-50-50-50
		c-27.6,0-50,22.4-50,50S289.1,550,316.7,550z"/>
</g>
</svg>
