<?xml version="1.0" encoding="utf-8"?>
<!-- Generator: Adobe Illustrator 24.3.0, SVG Export Plug-In . SVG Version: 6.00 Build 0)  -->
<svg version="1.1" id="Capa_1" xmlns="http://www.w3.org/2000/svg" xmlns:xlink="http://www.w3.org/1999/xlink" x="0px" y="0px"
	 viewBox="0 0 800 800" style="enable-background:new 0 0 800 800;" xml:space="preserve">
<style type="text/css">
	.st0{fill:#FFFFFF;}
</style>
<g>
	<g>
		<g>
			<path class="st0" d="M751.9,36.6H48.1C21.6,36.6,0,58.2,0,84.7v630.6c0,26.5,21.6,48.1,48.1,48.1h703.9
				c26.5,0,48.1-21.6,48.1-48.1V84.7C800,58.2,778.4,36.6,751.9,36.6z M607,117.3c0-9.8,7.9-17.8,17.7-17.8h17.8
				c9.8,0,17.7,7.9,17.7,17.8v20.1c0,9.8-7.9,17.8-17.7,17.8h-17.8c-9.8,0-17.7-7.9-17.7-17.8V117.3z M524.4,117.3
				c0-9.8,8-17.8,17.8-17.8h17.7c9.8,0,17.8,7.9,17.8,17.8v20.1c0,9.8-8,17.8-17.8,17.8h-17.7c-9.8,0-17.8-7.9-17.8-17.8V117.3z
				 M742.3,705.7H57.7V208.5h684.6V705.7L742.3,705.7z M742.8,137.5c0,9.8-7.9,17.8-17.7,17.8h-17.8c-9.8,0-17.8-7.9-17.8-17.8
				v-20.1c0-9.8,7.9-17.8,17.8-17.8H725c9.8,0,17.7,7.9,17.7,17.8V137.5z"/>
			<path class="st0" d="M176.6,374.6c15.1,0,28.7-6.2,38.6-16.1l134.2,52.5c3.4,26.7,26.3,47.4,53.9,47.4c30,0,54.4-24.4,54.4-54.4
				c0-1.3-0.1-2.6-0.2-3.9l129.5-75.6c9.6,8.7,22.4,13.9,36.3,13.9c30,0,54.4-24.4,54.4-54.4s-24.4-54.4-54.4-54.4
				c-30,0-54.4,24.4-54.4,54.4c0,2.8,0.2,5.5,0.6,8.1l-127,74.1c-9.9-10.3-23.8-16.8-39.2-16.8c-19.2,0-36.1,10-45.8,25.1
				l-126.7-49.6c0.2-1.6,0.2-3.3,0.2-5c0-30-24.4-54.4-54.4-54.4c-30,0-54.4,24.4-54.4,54.4C122.2,350.2,146.6,374.6,176.6,374.6z
				 M623.4,266.5c9.7,0,17.7,7.9,17.7,17.7c0,9.7-7.9,17.7-17.7,17.7c-9.7,0-17.7-7.9-17.7-17.7
				C605.7,274.4,613.6,266.5,623.4,266.5z M403.3,386.4c9.7,0,17.7,7.9,17.7,17.7c0,9.7-7.9,17.7-17.7,17.7
				c-9.7,0-17.7-7.9-17.7-17.7C385.6,394.4,393.6,386.4,403.3,386.4z M176.6,302.6c9.7,0,17.7,7.9,17.7,17.7
				c0,9.7-7.9,17.7-17.7,17.7c-9.7,0-17.7-7.9-17.7-17.7S166.9,302.6,176.6,302.6z"/>
			<g>
				<path class="st0" d="M623.4,369.2c-13.3,0-26.1-3.5-37.4-10.1l-108.3,63.2c-3.7,35-25.3,60.8-61.7,66.4v168.8h244.7V359.2
					C649.7,365.5,636.9,369.2,623.4,369.2z"/>
				<path class="st0" d="M331.8,436.3l-112.9-44.2c-12.4,8.5-27,13.1-42.3,13.1c-13.6,0-26.3-3.7-37.3-10v262.3h253.9V488.8
					C366.5,485.1,339.6,467,331.8,436.3z"/>
			</g>
		</g>
	</g>
</g>
</svg>
