<?xml version="1.0" encoding="utf-8"?>
<!-- Generator: Adobe Illustrator 24.3.0, SVG Export Plug-In . SVG Version: 6.00 Build 0)  -->
<svg version="1.1" id="Layer_1" xmlns="http://www.w3.org/2000/svg" xmlns:xlink="http://www.w3.org/1999/xlink" x="0px" y="0px"
	 viewBox="0 0 800 800" style="enable-background:new 0 0 800 800;" xml:space="preserve">
<style type="text/css">
	.st0{fill:#FFFFFF;}
</style>
<g>
	<g>
		<path class="st0" d="M283.3,300c-10,0-16.7,6.7-16.7,16.7v16.7c-56.7,0-100,43.3-100,100s43.3,100,100,100s100-43.3,100-100h16.7
			c10,0,16.7-6.7,16.7-16.7C400,353.3,346.7,300,283.3,300z M300,336.7c33.3,6.7,60,33.3,63.3,63.3H300V336.7z M266.7,500
			c-36.7,0-66.7-30-66.7-66.7s30-66.7,66.7-66.7v50c0,10,6.7,16.7,16.7,16.7h50C333.3,470,303.3,500,266.7,500z"/>
	</g>
	<g>
		<path class="st0" d="M583.3,733.3H216.7c-26.7,0-50-23.3-50-50v-66.7c0-26.7,23.3-50,50-50h366.7c26.7,0,50,23.3,50,50v66.7
			C633.3,710,610,733.3,583.3,733.3z M216.7,600c-10,0-16.7,6.7-16.7,16.7v66.7c0,10,6.7,16.7,16.7,16.7h366.7
			c10,0,16.7-6.7,16.7-16.7v-66.7c0-10-6.7-16.7-16.7-16.7H216.7z"/>
	</g>
	<g>
		<path class="st0" d="M616.7,533.3h-200c-10,0-16.7-6.7-16.7-16.7s6.7-16.7,16.7-16.7h200c10,0,16.7,6.7,16.7,16.7
			S626.7,533.3,616.7,533.3z"/>
	</g>
	<g>
		<path class="st0" d="M616.7,466.7H450c-10,0-16.7-6.7-16.7-16.7c0-10,6.7-16.7,16.7-16.7h166.7c10,0,16.7,6.7,16.7,16.7
			C633.3,460,626.7,466.7,616.7,466.7z"/>
	</g>
	<g>
		<path class="st0" d="M616.7,400H450c-10,0-16.7-6.7-16.7-16.7s6.7-16.7,16.7-16.7h166.7c10,0,16.7,6.7,16.7,16.7
			S626.7,400,616.7,400z"/>
	</g>
	<g>
		<path class="st0" d="M616.7,333.3h-200c-10,0-16.7-6.7-16.7-16.7s6.7-16.7,16.7-16.7h200c10,0,16.7,6.7,16.7,16.7
			S626.7,333.3,616.7,333.3z"/>
	</g>
	<g>
		<path class="st0" d="M616.7,266.7h-200c-10,0-16.7-6.7-16.7-16.7c0-10,6.7-16.7,16.7-16.7h200c10,0,16.7,6.7,16.7,16.7
			C633.3,260,626.7,266.7,616.7,266.7z"/>
	</g>
	<path class="st0" d="M650,0H363.3c-13.3,0-26.7,6.7-36.7,13.3L113.3,230c-6.7,6.7-13.3,20-13.3,33.3V750c0,26.7,23.3,50,50,50h500
		c26.7,0,50-23.3,50-50V50C700,23.3,676.7,0,650,0z M366.7,100h216.7c10,0,16.7,6.7,16.7,16.7V150c0,10-6.7,16.7-16.7,16.7H366.7
		V100z M333.3,56.7v160c0,10-6.7,16.7-16.7,16.7h-160L333.3,56.7z M666.7,750c0,10-6.7,16.7-16.7,16.7H150c-10,0-16.7-6.7-16.7-16.7
		V266.7h183.3c26.7,0,50-23.3,50-50V200h216.7c26.7,0,50-23.3,50-50v-33.3c0-26.7-23.3-50-50-50H366.7V33.3H650
		c10,0,16.7,6.7,16.7,16.7V750z"/>
</g>
</svg>
