<?xml version="1.0" encoding="utf-8"?>
<!-- Generator: Adobe Illustrator 24.3.0, SVG Export Plug-In . SVG Version: 6.00 Build 0)  -->
<svg version="1.1" id="Layer_1" xmlns="http://www.w3.org/2000/svg" xmlns:xlink="http://www.w3.org/1999/xlink" x="0px" y="0px"
	 viewBox="0 0 491.5 491.5" style="enable-background:new 0 0 491.5 491.5;" xml:space="preserve">
<style type="text/css">
	.st0{fill:#FFFFFF;}
</style>
<g>
	<g>
		<path class="st0" d="M0,0v184.3h266.2V0H0z M226,20.5L133.1,91L40.2,20.5H226z M20.5,31.2l64.9,49.3l-64.9,68
			C20.5,148.5,20.5,31.2,20.5,31.2z M34.2,163.8L101.8,93l31.3,23.8L164.4,93l67.7,70.9H34.2z M245.8,148.5l-64.9-68l64.9-49.3
			L245.8,148.5L245.8,148.5z"/>
	</g>
</g>
<g>
	<g>
		<path class="st0" d="M358.4,224.1V137h-20.5v18c-76.1,74.1-150.3,71-174.1,67.6V215H71.7C32.2,215,0,247.2,0,286.7
			c0,35.8,26.4,65.5,60.8,70.8L92.4,463c3.1,10.3,10.1,18.7,19.5,23.8c5.9,3.1,12.4,4.8,18.9,4.8c3.9,0,7.9-0.6,11.8-1.8
			c11.8-3.6,20.8-11.9,25.1-23.3c4.7-12.2,3.1-26.6-4.1-38.5c-19.5-32.1-22.7-53.3-21.5-69.6h21.7v-2.9
			c23.4-4.1,97.8-9.4,174.1,64.9v18h20.5v-87.1c30.7-4.9,54.2-31.5,54.2-63.5C412.6,255.6,389.1,229.1,358.4,224.1z M146.2,438.7
			c3.9,6.5,4.8,14.1,2.4,20.5c-1.4,3.8-4.7,8.8-11.9,11c-5,1.5-10.4,1-15-1.5c-4.7-2.5-8.1-6.6-9.6-11.6l-29.6-98.7h39.2
			C120.3,383.8,128.1,409,146.2,438.7z M143.4,337.9H71.7c-28.2,0-51.2-23-51.2-51.2s23-51.2,51.2-51.2h71.7V337.9z M337.9,392.6
			c-74.3-63.9-145.5-62-174.1-57.8v-91.6c5.4,0.7,12.4,1.2,20.7,1.2c35.1,0,93.2-9.8,153.4-61.7V392.6z M358.4,330.3v-85.2
			c19.3,4.6,33.7,21.9,33.7,42.6C392.1,308.4,377.7,325.6,358.4,330.3z"/>
	</g>
</g>
<g>
	<g>
		<rect x="440.3" y="276.5" class="st0" width="51.2" height="20.5"/>
	</g>
</g>
<g>
	<g>
		
			<rect x="411.9" y="207.7" transform="matrix(0.7071 -0.7072 0.7072 0.7071 -25.9335 373.2057)" class="st0" width="51.2" height="20.5"/>
	</g>
</g>
<g>
	<g>
		
			<rect x="427.2" y="329.9" transform="matrix(0.7071 -0.7071 0.7071 0.7071 -123.238 413.452)" class="st0" width="20.5" height="51.2"/>
	</g>
</g>
</svg>
