<?xml version="1.0" encoding="utf-8"?>
<!-- Generator: Adobe Illustrator 24.3.0, SVG Export Plug-In . SVG Version: 6.00 Build 0)  -->
<svg version="1.1" id="Layer_1" xmlns="http://www.w3.org/2000/svg" xmlns:xlink="http://www.w3.org/1999/xlink" x="0px" y="0px"
	 viewBox="0 0 800 800" style="enable-background:new 0 0 800 800;" xml:space="preserve">
<style type="text/css">
	.st0{fill:#FFFFFF;}
</style>
<g>
	<g>
		<path class="st0" d="M750,766.7H50c-26.7,0-50-23.3-50-50V650c0-10,6.7-16.7,16.7-16.7h266.7c10,0,16.7,6.7,16.7,16.7v16.7h200
			V650c0-10,6.7-16.7,16.7-16.7h266.7c10,0,16.7,6.7,16.7,16.7v66.7C800,743.3,776.7,766.7,750,766.7z M33.3,666.7v50
			c0,10,6.7,16.7,16.7,16.7h700c10,0,16.7-6.7,16.7-16.7v-50H533.3v16.7c0,10-6.7,16.7-16.7,16.7H283.3c-10,0-16.7-6.7-16.7-16.7
			v-16.7H33.3z"/>
	</g>
	<g>
		<path class="st0" d="M366.7,233.3c-36.7,0-66.7-30-66.7-66.7s30-66.7,66.7-66.7s66.7,30,66.7,66.7S403.3,233.3,366.7,233.3z
			 M366.7,133.3c-20,0-33.3,13.3-33.3,33.3s13.3,33.3,33.3,33.3c20,0,33.3-13.3,33.3-33.3S386.7,133.3,366.7,133.3z"/>
	</g>
	<g>
		<path class="st0" d="M600,366.7c-36.7,0-66.7-30-66.7-66.7s30-66.7,66.7-66.7c36.7,0,66.7,30,66.7,66.7S636.7,366.7,600,366.7z
			 M600,266.7c-20,0-33.3,13.3-33.3,33.3c0,20,13.3,33.3,33.3,33.3c20,0,33.3-13.3,33.3-33.3C633.3,280,620,266.7,600,266.7z"/>
	</g>
	<path class="st0" d="M750,100H500V83.3c0-26.7-23.3-50-50-50H116.7c-26.7,0-50,23.3-50,50V100H50c-26.7,0-50,23.3-50,50v433.3
		c0,10,6.7,16.7,16.7,16.7h766.7c10,0,16.7-6.7,16.7-16.7V150C800,123.3,776.7,100,750,100z M500,300c0-10-3.3-16.7-6.7-26.7
		c3.3-6.7,6.7-13.3,6.7-23.3v-50h183.3c10,0,16.7,6.7,16.7,16.7v260l-63.3-63.3c-10-10-23.3-13.3-36.7-13.3H346.7
		c-10,0-16.7-6.7-16.7-16.7V300h33.3c0,36.7,30,66.7,66.7,66.7C470,366.7,500,336.7,500,300z M400,300h50c6.7,0,10,0,16.7-3.3v3.3
		c0,20-13.3,33.3-33.3,33.3C413.3,333.3,400,320,400,300z M100,83.3c0-10,6.7-16.7,16.7-16.7H450c10,0,16.7,6.7,16.7,16.7V250
		c0,10-6.7,16.7-16.7,16.7H196.7c-13.3,0-26.7,6.7-33.3,13.3L100,343.3V83.3z M766.7,566.7H33.3V150c0-10,6.7-16.7,16.7-16.7h16.7
		v250c0,6.7,3.3,13.3,10,16.7c3.3,0,3.3,0,6.7,0c3.3,0,10-3.3,13.3-3.3l90-90c3.3-3.3,6.7-6.7,10-6.7H300v83.3c0,26.7,23.3,50,50,50
		h253.3c3.3,0,10,3.3,13.3,3.3l90,90c3.3,3.3,6.7,3.3,13.3,3.3c3.3,0,3.3,0,6.7,0c6.7-3.3,10-10,10-16.7v-300
		c-3.3-23.3-26.7-46.7-53.3-46.7H500v-33.3h250c10,0,16.7,6.7,16.7,16.7V566.7z"/>
	<g>
		<path class="st0" d="M200,233.3c-36.7,0-66.7-30-66.7-66.7s30-66.7,66.7-66.7s66.7,30,66.7,66.7S236.7,233.3,200,233.3z
			 M200,133.3c-20,0-33.3,13.3-33.3,33.3S180,200,200,200s33.3-13.3,33.3-33.3S220,133.3,200,133.3z"/>
	</g>
	<g>
		<path class="st0" d="M250,400h-66.7c-10,0-16.7-6.7-16.7-16.7s6.7-16.7,16.7-16.7H250c10,0,16.7,6.7,16.7,16.7S260,400,250,400z"
			/>
	</g>
	<g>
		<path class="st0" d="M283.3,466.7h-200c-10,0-16.7-6.7-16.7-16.7c0-10,6.7-16.7,16.7-16.7h200c10,0,16.7,6.7,16.7,16.7
			C300,460,293.3,466.7,283.3,466.7z"/>
	</g>
	<g>
		<path class="st0" d="M183.3,533.3h-100c-10,0-16.7-6.7-16.7-16.7S73.3,500,83.3,500h100c10,0,16.7,6.7,16.7,16.7
			S193.3,533.3,183.3,533.3z"/>
	</g>
	<g>
		<path class="st0" d="M350,533.3H250c-10,0-16.7-6.7-16.7-16.7S240,500,250,500h100c10,0,16.7,6.7,16.7,16.7S360,533.3,350,533.3z"
			/>
	</g>
	<g>
		<path class="st0" d="M616.7,533.3h-200c-10,0-16.7-6.7-16.7-16.7s6.7-16.7,16.7-16.7h200c10,0,16.7,6.7,16.7,16.7
			S626.7,533.3,616.7,533.3z"/>
	</g>
</g>
</svg>
