<?xml version="1.0" encoding="utf-8"?>
<!-- Generator: Adobe Illustrator 24.3.0, SVG Export Plug-In . SVG Version: 6.00 Build 0)  -->
<svg version="1.1" id="Capa_1" xmlns="http://www.w3.org/2000/svg" xmlns:xlink="http://www.w3.org/1999/xlink" x="0px" y="0px"
	 viewBox="0 0 800 800" style="enable-background:new 0 0 800 800;" xml:space="preserve">
<style type="text/css">
	.st0{fill:#FFFFFF;}
</style>
<g>
	<g>
		<path class="st0" d="M747,103.3h-41.5V66.2c0-14.6-11.9-26.5-26.5-26.5H121c-14.6,0-26.5,11.9-26.5,26.5V204
			c0,14.6,11.9,26.5,26.5,26.5H679c14.6,0,26.5-11.9,26.5-26.5v-47.7H747v487.4h-41.5V596c0-14.6-11.9-26.5-26.5-26.5H121
			c-14.6,0-26.5,11.9-26.5,26.5v47.7H53V426.5h41.5v42.4c0,14.6,11.9,26.5,26.5,26.5H679c14.6,0,26.5-11.9,26.5-26.5V331.1
			c0-14.6-11.9-26.5-26.5-26.5H121c-14.6,0-26.5,11.9-26.5,26.5v42.4H53c-29.2,0-53,23.8-53,53v217.2c0,29.2,23.8,53,53,53h41.5
			v37.1c0,14.6,11.9,26.5,26.5,26.5H679c14.6,0,26.5-11.9,26.5-26.5v-37.1H747c29.2,0,53-23.8,53-53V156.3
			C800,127.1,776.2,103.3,747,103.3z M218.1,176.6c-22.9,0-41.5-18.6-41.5-41.5c0-22.9,18.6-41.5,41.5-41.5
			c22.9,0,41.5,18.6,41.5,41.5C259.6,158,241,176.6,218.1,176.6z M439.7,161.6c0,11-8.9,19.9-19.9,19.9c-11,0-19.9-8.9-19.9-19.9
			v-53c0-11,8.9-19.9,19.9-19.9c11,0,19.9,8.9,19.9,19.9V161.6z M528,161.6c0,11-8.9,19.9-19.9,19.9c-11,0-19.9-8.9-19.9-19.9v-53
			c0-11,8.9-19.9,19.9-19.9c11,0,19.9,8.9,19.9,19.9V161.6z M616.3,161.6c0,11-8.9,19.9-19.9,19.9c-11,0-19.9-8.9-19.9-19.9v-53
			c0-11,8.9-19.9,19.9-19.9c11,0,19.9,8.9,19.9,19.9V161.6z M576.6,373.5c0-11,8.9-19.9,19.9-19.9c11,0,19.9,8.9,19.9,19.9v53
			c0,11-8.9,19.9-19.9,19.9c-11,0-19.9-8.9-19.9-19.9V373.5z M488.3,373.5c0-11,8.9-19.9,19.9-19.9c11,0,19.9,8.9,19.9,19.9v53
			c0,11-8.9,19.9-19.9,19.9c-11,0-19.9-8.9-19.9-19.9V373.5z M400,373.5c0-11,8.9-19.9,19.9-19.9c11,0,19.9,8.9,19.9,19.9v53
			c0,11-8.9,19.9-19.9,19.9c-11,0-19.9-8.9-19.9-19.9V373.5z M218.1,358.5c22.9,0,41.5,18.6,41.5,41.5s-18.6,41.5-41.5,41.5
			c-22.9,0-41.5-18.6-41.5-41.5S195.2,358.5,218.1,358.5z M218.1,706.4c-22.9,0-41.5-18.6-41.5-41.5c0-22.9,18.6-41.5,41.5-41.5
			c22.9,0,41.5,18.6,41.5,41.5C259.6,687.8,241,706.4,218.1,706.4z M439.7,691.4c0,11-8.9,19.9-19.9,19.9c-11,0-19.9-8.9-19.9-19.9
			v-53c0-11,8.9-19.9,19.9-19.9c11,0,19.9,8.9,19.9,19.9V691.4z M528,691.4c0,11-8.9,19.9-19.9,19.9c-11,0-19.9-8.9-19.9-19.9v-53
			c0-11,8.9-19.9,19.9-19.9c11,0,19.9,8.9,19.9,19.9V691.4z M616.3,691.4c0,11-8.9,19.9-19.9,19.9c-11,0-19.9-8.9-19.9-19.9v-53
			c0-11,8.9-19.9,19.9-19.9c11,0,19.9,8.9,19.9,19.9V691.4z"/>
	</g>
</g>
</svg>
