<?xml version="1.0" encoding="utf-8"?>
<!-- Generator: Adobe Illustrator 24.3.0, SVG Export Plug-In . SVG Version: 6.00 Build 0)  -->
<svg version="1.1" id="shape" xmlns="http://www.w3.org/2000/svg" xmlns:xlink="http://www.w3.org/1999/xlink" x="0px" y="0px"
	 viewBox="0 0 800 800" style="enable-background:new 0 0 800 800;" xml:space="preserve">
<style type="text/css">
	.st0{fill:#FDFEFF;}
</style>
<path class="st0" d="M740.6,59.4H59.4c-25.6,0-46.6,20.9-46.6,46.6v588.4c0,25.6,20.9,46.6,46.6,46.6h681.2
	c25.6,0,46.6-20.9,46.6-46.6V105.9C787.2,80.3,766.2,59.4,740.6,59.4z M624.4,90.3c16.9,0,30.9,14.1,30.9,30.9
	c0,17.2-14.1,30.9-30.9,30.9s-30.9-14.1-30.9-30.9S607.5,90.3,624.4,90.3z M539.4,90.3c16.9,0,30.9,14.1,30.9,30.9
	c0,17.2-14.1,30.9-30.9,30.9c-16.9,0-30.9-14.1-30.9-30.9S522.2,90.3,539.4,90.3z M740.6,699.7H59.4V183.1h681.2V699.7z
	 M709.7,152.2c-16.9,0-30.9-14.1-30.9-30.9s14.1-30.9,30.9-30.9c16.9,0,30.9,14.1,30.9,30.9C740.6,138.4,726.6,152.2,709.7,152.2z
	 M300,231.2h237.8v45H300V231.2z M393.8,334.1h300.9v44.7H393.8V334.1z M393.8,423.4h300.9v44.7H393.8V423.4z M393.8,514.1h300.9
	v44.7H393.8V514.1z M101.9,603.4H695v44.7H101.9V603.4z M101.9,334.1h211.9V555H101.9V334.1z"/>
</svg>
