<?xml version="1.0" encoding="utf-8"?>
<!-- Generator: Adobe Illustrator 24.3.0, SVG Export Plug-In . SVG Version: 6.00 Build 0)  -->
<svg version="1.1" id="_x32_" xmlns="http://www.w3.org/2000/svg" xmlns:xlink="http://www.w3.org/1999/xlink" x="0px" y="0px"
	 viewBox="0 0 800 800" style="enable-background:new 0 0 800 800;" xml:space="preserve">
<style type="text/css">
	.st0{fill:#FFFFFF;}
</style>
<g>
	<path class="st0" d="M413.7,206.5L413.7,206.5C413.7,206.6,413.7,206.6,413.7,206.5L413.7,206.5z"/>
	<path class="st0" d="M620.4,455.5c15.5-18.9,34.1-48.7,31.8-80.9L492.4,214.9c0,0-28.9-7.2-63.5,0.3c-5-3.3-10.1-6.2-15.2-8.7
		c-25.9-12.6-51.7-15.4-71.1-15.2c-1.2,0-2.4,0.1-3.6,0.1L309.4,221l4.6-0.5c0.5,0,1.4-0.2,1.9-0.3c0.7-0.2,12.2-2.8,28.5-2.8
		c14.6,0,33,2.2,51.3,9.7c-10.4,5.4-20.6,12.5-30.1,22.1c-52.8,52.8-100.8,100.8-100.8,100.8l0,0c-0.3,0.3-0.6,0.5-0.9,0.8
		c-13.7,13.7-14.2,35.5-1.6,49.8c0.5,0.5,1,1.1,1.6,1.7c14.2,14.2,37.3,14.2,51.5,0l55.4-55.5c9.6,3.5,19,5.5,28,6.6
		c12.3,1.4,23.9,0.9,34.1-0.6c25-3.5,36.9-7.3,36.9-7.3l130.7,130.7c0,0,0.7-0.6,1.9-1.7l18.9,18.9c4.9,4.9,7.3,11.3,7.3,17.7
		c0,6.4-2.4,12.8-7.3,17.7c-4.9,4.9-11.3,7.3-17.7,7.3c-6.5,0-12.8-2.4-17.7-7.3c-2.4-2.4-5.8-3.8-9.2-3.8c-3.5,0-6.8,1.4-9.2,3.8
		c-2.4,2.4-3.8,5.8-3.8,9.2c0,3.4,1.4,6.8,3.8,9.2c4.9,4.9,7.3,11.3,7.3,17.7c0,6.4-2.4,12.8-7.4,17.7c-4.9,4.9-11.3,7.3-17.7,7.4
		c-6.5,0-12.8-2.4-17.7-7.4c-2.4-2.4-5.8-3.8-9.2-3.8c-3.5,0-6.8,1.4-9.2,3.8c-2.4,2.4-3.8,5.8-3.8,9.3c0,3.4,1.4,6.8,3.8,9.2
		c4.9,4.9,7.3,11.3,7.3,17.7c0,6.5-2.4,12.8-7.3,17.7c-4.9,4.9-11.3,7.3-17.7,7.4c-6.5,0-12.8-2.4-17.7-7.4l-11.1-11
		c0,0,0,0-0.1-0.1c-2.4-2.4-5.8-3.8-9.2-3.8c-3.5,0-6.8,1.4-9.2,3.8c-2.4,2.4-3.8,5.8-3.8,9.2s1.4,6.8,3.8,9.2
		c4.9,4.9,7.3,11.3,7.3,17.7c0,6.4-2.4,12.8-7.4,17.7c-4.9,4.9-11.3,7.3-17.7,7.3c-6.5,0-12.8-2.4-17.7-7.3l-7.9-7.9l2.7-2.7
		c14.2-14.2,14.2-37.1,0-51.3c-14.2-14.2-37.1-14.2-51.3,0l-2.7,2.7l-1.4-1.3c7-13.6,4.9-30.7-6.5-42.1
		c-11.4-11.4-28.4-13.5-42.1-6.5l-2.7-2.7c7-13.6,4.9-30.7-6.5-42.1c-11.4-11.4-28.4-13.5-42.1-6.5l-2.7-2.7
		c7-13.6,4.9-30.7-6.5-42.1c-11.4-11.4-28.4-13.5-42.1-6.5l-13.1-13.1l-0.8-0.7c-0.1-0.1-2.1-1.8-5.2-4.9c-1.7-1.7-3.6-3.7-5.8-6.1
		l0,0l-0.3-0.3l0,0.1c-6.9-7.7-15.5-19-21.9-32.2c-4-8.2-7.1-17.1-8.6-26.4L124.4,406c1.9,5.7,4.1,11.2,6.6,16.3
		c7.9,16.2,17.9,29.1,25.9,38.1l0,0.1l0.3,0.3l0,0c2.5,2.8,4.8,5.2,6.8,7.2c3.1,3.1,5.3,5.1,6.3,5.9l11.4,11.4l-21.1,21.1
		c-14.2,14.2-14.1,37.1,0,51.2c14.2,14.2,37.1,14.2,51.3,0c-14.2,14.2-14.2,37.1,0,51.3c14.2,14.1,37.1,14.1,51.2,0
		c-14.2,14.1-14.2,37.1,0,51.2c14.2,14.2,37.1,14.2,51.3,0l21-21l0,0L325,649.5c-14.2,14.2-14.2,37.1,0,51.2
		c14.2,14.2,37.1,14.2,51.2,0l10.5-10.5l7.9,7.9c10,10,23.1,15,36.2,15c13.1,0,26.2-5,36.2-15c8.4-8.4,13.2-19,14.6-29.9
		c4.7,1.4,9.5,2.1,14.3,2.1c13.1,0,26.2-5,36.2-15c10-10,15-23.1,15-36.2c0-1-0.1-1.9-0.1-2.9c1,0,1.9,0.1,2.9,0.1
		c13.1,0,26.2-5,36.2-15c10-10,15-23.1,15-36.2c0-1-0.1-1.9-0.1-2.9c0.9,0.1,1.9,0.1,2.9,0.1c13.1,0,26.2-5,36.2-15
		c10-10,15-23.1,15-36.2c0-13.1-5-26.2-15-36.2L620.4,455.5z"/>
	<path class="st0" d="M216.5,92.1L0,308.6l89.8,89.8l216.5-216.5L216.5,92.1z M108.2,321.8c-8.7,8.8-22.9,8.8-31.7,0
		c-8.7-8.7-8.7-22.9,0-31.7c8.7-8.8,22.9-8.8,31.7,0C117,298.9,117,313.1,108.2,321.8z"/>
	<path class="st0" d="M583.5,86.9l-89.8,89.8l216.5,216.5l89.8-89.8L583.5,86.9z M691.7,316.6c-8.7-8.7-8.7-22.9,0-31.7
		c8.8-8.8,22.9-8.8,31.7,0c8.7,8.7,8.7,22.9,0,31.7C714.7,325.3,700.5,325.3,691.7,316.6z"/>
</g>
</svg>
