<?xml version="1.0" encoding="utf-8"?>
<!-- Generator: Adobe Illustrator 24.3.0, SVG Export Plug-In . SVG Version: 6.00 Build 0)  -->
<svg version="1.1" id="Layer_1" xmlns="http://www.w3.org/2000/svg" xmlns:xlink="http://www.w3.org/1999/xlink" x="0px" y="0px"
	 viewBox="0 0 800 800" style="enable-background:new 0 0 800 800;" xml:space="preserve">
<style type="text/css">
	.st0{fill-rule:evenodd;clip-rule:evenodd;fill:#FFFFFF;}
</style>
<path class="st0" d="M633.3,666.7c18.4,0,33.3-14.9,33.3-33.3V374.2l-11.2,9.9l-189,168c-37.9,33.7-95,33.7-132.9,0l-189-168
	l-11.2-9.9v259.1c0,18.4,14.9,33.3,33.3,33.3H633.3z M200,344.3l177.9,158.1c12.6,11.2,31.7,11.2,44.3,0L600,344.3v-99.8V200h-60
	H260h-60v44.4V344.3z M666.7,228.8l54.7,45.6c7.6,6.3,12,15.7,12,25.6v333.3c0,55.2-44.8,100-100,100H166.7
	c-55.2,0-100-44.8-100-100V300c0-9.9,4.4-19.3,12-25.6l54.7-45.6v-62.2c0-18.4,14.9-33.3,33.3-33.3h81.3L336,60
	c37.1-30.9,91-30.9,128,0l88,73.4h81.3c18.4,0,33.3,14.9,33.3,33.3V228.8z M447.9,133.3l-26.6-22.2c-12.4-10.3-30.3-10.3-42.7,0
	l-26.6,22.2H447.9z"/>
</svg>
