<?xml version="1.0" encoding="utf-8"?>
<!-- Generator: Adobe Illustrator 24.3.0, SVG Export Plug-In . SVG Version: 6.00 Build 0)  -->
<svg version="1.1" id="Layer_1" xmlns="http://www.w3.org/2000/svg" xmlns:xlink="http://www.w3.org/1999/xlink" x="0px" y="0px"
	 viewBox="0 0 800 800" style="enable-background:new 0 0 800 800;" xml:space="preserve">
<style type="text/css">
	.st0{fill:#FFFFFF;}
</style>
<g>
	<g>
		<path class="st0" d="M283.3,166.7H150c-10,0-16.7-6.7-16.7-16.7c0-10,6.7-16.7,16.7-16.7h133.3c10,0,16.7,6.7,16.7,16.7
			C300,160,293.3,166.7,283.3,166.7z"/>
	</g>
	<g>
		<path class="st0" d="M216.7,233.3H150c-10,0-16.7-6.7-16.7-16.7c0-10,6.7-16.7,16.7-16.7h66.7c10,0,16.7,6.7,16.7,16.7
			C233.3,226.7,226.7,233.3,216.7,233.3z"/>
	</g>
	<g>
		<path class="st0" d="M283.3,633.3H150c-10,0-16.7-6.7-16.7-16.7c0-10,6.7-16.7,16.7-16.7h133.3c10,0,16.7,6.7,16.7,16.7
			C300,626.7,293.3,633.3,283.3,633.3z"/>
	</g>
	<g>
		<path class="st0" d="M516.7,633.3H450c-10,0-16.7-6.7-16.7-16.7c0-10,6.7-16.7,16.7-16.7h66.7c10,0,16.7,6.7,16.7,16.7
			C533.3,626.7,526.7,633.3,516.7,633.3z"/>
	</g>
	<g>
		<path class="st0" d="M450,166.7H350c-10,0-16.7-6.7-16.7-16.7c0-10,6.7-16.7,16.7-16.7h100c10,0,16.7,6.7,16.7,16.7
			C466.7,160,460,166.7,450,166.7z"/>
	</g>
	<path class="st0" d="M683.3,133.3H650c-3.3,0-3.3,0-6.7,0L600,150V50c0-26.7-23.3-50-50-50H116.7c-26.7,0-50,23.3-50,50v700
		c0,26.7,23.3,50,50,50H550c26.7,0,50-23.3,50-50V516.7l43.3,13.3c3.3,0,3.3,0,6.7,0h33.3c26.7,0,50-23.3,50-50V180
		C733.3,156.7,710,133.3,683.3,133.3z M266.7,33.3H400V50c0,10-6.7,16.7-16.7,16.7h-100c-10,0-16.7-6.7-16.7-16.7V33.3z M116.7,33.3
		h116.7V50c0,26.7,23.3,50,50,50h100c26.7,0,50-23.3,50-50V33.3H550c10,0,16.7,6.7,16.7,16.7v110l-220,73.3h-63.3
		c-10,0-16.7,6.7-16.7,16.7v16.7h-50c-10,0-16.7,6.7-16.7,16.7V300h-16.7c-26.7,0-50,23.3-50,50v166.7c0,26.7,23.3,50,50,50h133.3
		l20,56.7c3.3,6.7,10,10,16.7,10h33.3c3.3,0,10-3.3,13.3-6.7c3.3-3.3,3.3-10,3.3-13.3l-10-46.7h90c26.7,0,50-23.3,50-50v-20l33.3,10
		v160H100V50C100,40,106.7,33.3,116.7,33.3z M216.7,400h50v16.7c0,3.3,0,3.3,0,6.7l36.7,110h-120c-10,0-16.7-6.7-16.7-16.7V350
		c0-10,6.7-16.7,16.7-16.7H200v50C200,393.3,206.7,400,216.7,400z M233.3,366.7V300h33.3v66.7H233.3z M300,400V266.7h33.3V400H300z
		 M336.7,433.3L363.3,600l0,0l-56.7-166.7H336.7z M370,440l130,43.3v33.3c0,10-6.7,16.7-16.7,16.7h-96.7L370,440z M550,766.7H116.7
		c-10,0-16.7-6.7-16.7-16.7v-50h466.7v50C566.7,760,560,766.7,550,766.7z M633.3,493.3l-266.7-90v-140l266.7-90V493.3z M700,483.3
		c0,10-6.7,16.7-16.7,16.7h-16.7V166.7h16.7c10,0,16.7,6.7,16.7,16.7V483.3z"/>
</g>
</svg>
