<?xml version="1.0" encoding="utf-8"?>
<!-- Generator: Adobe Illustrator 24.3.0, SVG Export Plug-In . SVG Version: 6.00 Build 0)  -->
<svg version="1.1" id="Layer_1" xmlns="http://www.w3.org/2000/svg" xmlns:xlink="http://www.w3.org/1999/xlink" x="0px" y="0px"
	 viewBox="0 0 800 800" style="enable-background:new 0 0 800 800;" xml:space="preserve">
<style type="text/css">
	.st0{fill:#FFFFFF;}
</style>
<path class="st0" d="M755.6,0H44.4C19.9,0,0,19.9,0,44.4v711.1C0,780.1,19.9,800,44.4,800h711.1c24.5,0,44.4-19.9,44.4-44.4V44.4
	C800,19.9,780.1,0,755.6,0z M133.3,711.1c-24.5,0-44.4-19.9-44.4-44.4s19.9-44.4,44.4-44.4s44.4,19.9,44.4,44.4
	S157.9,711.1,133.3,711.1z M133.3,533.3c-23.2,1.4-43.1-16.3-44.4-39.4c-0.1-1.7-0.1-3.4,0-5c-1.4-23.2,16.3-43.1,39.4-44.4
	c1.7-0.1,3.4-0.1,5,0c23.2-1.4,43.1,16.3,44.4,39.4c0.1,1.7,0.1,3.4,0,5c1.4,23.2-16.3,43.1-39.4,44.4
	C136.7,533.4,135,533.4,133.3,533.3z M133.3,355.6c-23.2,1.4-43.1-16.3-44.4-39.4c-0.1-1.7-0.1-3.4,0-5
	c-1.4-23.2,16.3-43.1,39.4-44.4c1.7-0.1,3.4-0.1,5,0c23.2-1.4,43.1,16.3,44.4,39.4c0.1,1.7,0.1,3.4,0,5
	c1.4,23.2-16.3,43.1-39.4,44.4C136.7,355.7,135,355.7,133.3,355.6z M133.3,177.8c-23.2,1.4-43.1-16.3-44.4-39.4
	c-0.1-1.7-0.1-3.4,0-5c-1.4-23.2,16.3-43.1,39.4-44.4c1.7-0.1,3.4-0.1,5,0c23.2-1.4,43.1,16.3,44.4,39.4c0.1,1.7,0.1,3.4,0,5
	c1.4,23.2-16.3,43.1-39.4,44.4C136.7,177.9,135,177.9,133.3,177.8z M666.7,711.1H311.1c-24.5,0-44.4-19.9-44.4-44.4
	s19.9-44.4,44.4-44.4h355.6c24.5,0,44.4,19.9,44.4,44.4S691.2,711.1,666.7,711.1z M666.7,533.3H311.1c-24.5,0-44.4-19.9-44.4-44.4
	c0-24.5,19.9-44.4,44.4-44.4h355.6c24.5,0,44.4,19.9,44.4,44.4C711.1,513.4,691.2,533.3,666.7,533.3z M666.7,355.6H311.1
	c-24.5,0-44.4-19.9-44.4-44.4c0-24.5,19.9-44.4,44.4-44.4h355.6c24.5,0,44.4,19.9,44.4,44.4C711.1,335.7,691.2,355.6,666.7,355.6z
	 M666.7,177.8H311.1c-24.5,0-44.4-19.9-44.4-44.4s19.9-44.4,44.4-44.4h355.6c24.5,0,44.4,19.9,44.4,44.4S691.2,177.8,666.7,177.8z"
	/>
</svg>
