<?xml version="1.0" encoding="utf-8"?>
<!-- Generator: Adobe Illustrator 24.3.0, SVG Export Plug-In . SVG Version: 6.00 Build 0)  -->
<svg version="1.1" id="Layer_1" xmlns="http://www.w3.org/2000/svg" xmlns:xlink="http://www.w3.org/1999/xlink" x="0px" y="0px"
	 viewBox="0 0 800 800" style="enable-background:new 0 0 800 800;" xml:space="preserve">
<style type="text/css">
	.st0{fill:#FFFFFF;}
</style>
<g>
	<g>
		<path class="st0" d="M745.6,55.3H54.4C24.4,55.3,0,79.7,0,109.7v470c0,30,24.4,54.4,54.4,54.4h222v84.7h-56.2c-7.2,0-13,5.8-13,13
			c0,7.2,5.8,13,13,13h359.4c7.2,0,13-5.8,13-13c0-7.2-5.8-13-13-13h-56.2v-84.7h222c30,0,54.4-24.4,54.4-54.4v-470
			C800,79.7,775.6,55.3,745.6,55.3z M497.6,718.8H302.4v-84.7h195.2L497.6,718.8L497.6,718.8z M774.1,579.7
			c0,15.7-12.8,28.5-28.5,28.5H54.4c-15.7,0-28.5-12.8-28.5-28.5v-28.5h748.2V579.7L774.1,579.7z M774.1,525.3H25.9V109.7
			c0-15.7,12.8-28.5,28.5-28.5h691.1c15.7,0,28.5,12.8,28.5,28.5L774.1,525.3L774.1,525.3z"/>
	</g>
</g>
<g>
	<g>
		<path class="st0" d="M731.8,110.6H68.2c-7.2,0-13,5.8-13,13v359.4c0,7.2,5.8,13,13,13h663.5c7.2,0,13-5.8,13-13V123.5
			C744.7,116.4,738.9,110.6,731.8,110.6z M718.8,470H81.2V247.1h637.6V470z M718.8,221.2H81.2v-84.7h637.6V221.2z"/>
	</g>
</g>
<g>
	<g>
		<path class="st0" d="M261.8,165.9H123.5c-7.2,0-13,5.8-13,13c0,7.2,5.8,13,13,13h138.2c7.2,0,13-5.8,13-13
			C274.7,171.7,268.9,165.9,261.8,165.9z"/>
	</g>
</g>
<g>
	<g>
		<path class="st0" d="M344.7,165.9h-27.6c-7.2,0-13,5.8-13,13c0,7.2,5.8,13,13,13h27.6c7.2,0,13-5.8,13-13
			C357.7,171.7,351.9,165.9,344.7,165.9z"/>
	</g>
</g>
<g>
	<g>
		<path class="st0" d="M427.6,165.9H400c-7.2,0-13,5.8-13,13c0,7.2,5.8,13,13,13h27.6c7.2,0,13-5.8,13-13
			C440.6,171.7,434.8,165.9,427.6,165.9z"/>
	</g>
</g>
<g>
	<g>
		<path class="st0" d="M510.6,165.9h-27.6c-7.2,0-13,5.8-13,13c0,7.2,5.8,13,13,13h27.6c7.2,0,13-5.8,13-13
			C523.5,171.7,517.7,165.9,510.6,165.9z"/>
	</g>
</g>
<g>
	<g>
		<path class="st0" d="M593.5,165.9h-27.6c-7.2,0-13,5.8-13,13c0,7.2,5.8,13,13,13h27.6c7.2,0,13-5.8,13-13
			C606.5,171.7,600.7,165.9,593.5,165.9z"/>
	</g>
</g>
<g>
	<g>
		<path class="st0" d="M676.5,165.9h-27.6c-7.2,0-13,5.8-13,13c0,7.2,5.8,13,13,13h27.6c7.2,0,13-5.8,13-13
			C689.4,171.7,683.6,165.9,676.5,165.9z"/>
	</g>
</g>
<g>
	<g>
		<path class="st0" d="M344.7,276.5H123.5c-7.2,0-13,5.8-13,13v138.2c0,7.2,5.8,13,13,13h221.2c7.2,0,13-5.8,13-13V289.4
			C357.7,282.3,351.9,276.5,344.7,276.5z M331.8,414.7H136.5v-57h195.2V414.7z M331.8,331.8H136.5v-29.4h195.2V331.8z"/>
	</g>
</g>
<g>
	<g>
		<path class="st0" d="M676.5,276.5H565.9c-7.2,0-13,5.8-13,13v138.2c0,7.2,5.8,13,13,13h110.6c7.2,0,13-5.8,13-13V289.4
			C689.4,282.3,683.6,276.5,676.5,276.5z M663.5,414.7h-84.7v-57h84.7V414.7z M663.5,331.8h-84.7v-29.4h84.7V331.8z"/>
	</g>
</g>
<g>
	<g>
		<path class="st0" d="M510.6,276.5H400c-7.2,0-13,5.8-13,13v138.2c0,7.2,5.8,13,13,13h110.6c7.2,0,13-5.8,13-13V289.4
			C523.5,282.3,517.7,276.5,510.6,276.5z M497.6,414.7H413v-57h84.7V414.7z M497.6,331.8H413v-29.4h84.7V331.8z"/>
	</g>
</g>
</svg>
