<?xml version="1.0" encoding="utf-8"?>
<!-- Generator: Adobe Illustrator 24.3.0, SVG Export Plug-In . SVG Version: 6.00 Build 0)  -->
<svg version="1.1" id="Layer_1" xmlns="http://www.w3.org/2000/svg" xmlns:xlink="http://www.w3.org/1999/xlink" x="0px" y="0px"
	 viewBox="0 0 800 800" style="enable-background:new 0 0 800 800;" xml:space="preserve">
<style type="text/css">
	.st0{fill:#FFFFFF;}
</style>
<g>
	<g>
		<g>
			<path class="st0" d="M400,323.8c43.3,0,78.6-35.3,78.6-78.6s-35.3-78.6-78.6-78.6c-43.3,0-78.6,35.3-78.6,78.6
				S356.7,323.8,400,323.8z M400,217.2c15.4,0,28,12.6,28,28c0,15.4-12.6,28-28,28c-15.4,0-28-12.6-28-28S384.6,217.2,400,217.2z"/>
			<path class="st0" d="M400,329.1c-76.4,0-138.6,62.2-138.6,138.6c0,14,11.3,25.3,25.3,25.3h226.6c14,0,25.3-11.3,25.3-25.3
				C538.6,391.3,476.4,329.1,400,329.1z M315.7,442.4c10.9-36.2,44.6-62.7,84.3-62.7s73.4,26.5,84.3,62.7H315.7z"/>
			<path class="st0" d="M757.4,54.1H554.4c-21.3,0-38.9,15.7-42.1,36.1H287.7c-3.1-20.4-20.8-36.1-42.1-36.1H42.6
				C19.1,54.1,0,73.1,0,96.6v249.2c0,23.5,19.1,42.6,42.6,42.6h45.2l34.4,59.6c9.7,16.9,34.1,16.9,43.8,0l30.2-52.2v120.1
				c0,28.3,23,51.2,51.2,51.2h75.3l55.4,96c9.7,16.9,34.1,16.8,43.8,0l55.4-96h75.3c28.3,0,51.2-23,51.2-51.2V395.8L634,448
				c9.7,16.9,34.1,16.8,43.8,0l34.4-59.6h45.2c23.5,0,42.6-19.1,42.6-42.6V96.6C800,73.1,780.9,54.1,757.4,54.1z M196.2,337.7
				c-29.4,0-25.9,1.6-52.1,47c-31.3-54.2-16.1-47-93.5-47v-233h161.1C190,125.8,196.2,139.5,196.2,337.7z M552.6,516.5h-89.9
				c-18.9,0-20.1,9.5-62.7,83.3c-42.6-73.8-43.8-83.3-62.7-83.3h-89.9c-0.3,0-0.6-0.3-0.6-0.6c0-1-0.4-375.1,0.6-375.1
				c0.9,0,305.8-0.3,305.8,0.6c0,17.6,0,359.9,0,374.5C553.2,516.2,552.9,516.5,552.6,516.5z M749.4,337.7c-77,0-62.1-7.4-93.5,47
				c-26.2-45.4-22.8-47-52.1-47c0-205.5,5.9-212.1-15.5-233.1h161V337.7z"/>
			<path class="st0" d="M704.5,695.3h-609c-14,0-25.3,11.3-25.3,25.3s11.3,25.3,25.3,25.3h609c14,0,25.3-11.3,25.3-25.3
				S718.5,695.3,704.5,695.3z"/>
		</g>
	</g>
</g>
</svg>
