<?xml version="1.0" encoding="utf-8"?>
<!-- Generator: Adobe Illustrator 24.3.0, SVG Export Plug-In . SVG Version: 6.00 Build 0)  -->
<svg version="1.1" id="Layer_1" xmlns="http://www.w3.org/2000/svg" xmlns:xlink="http://www.w3.org/1999/xlink" x="0px" y="0px"
	 viewBox="0 0 500 300" style="enable-background:new 0 0 500 300;" xml:space="preserve">
<style type="text/css">
	.st0{fill:#FFFFFF;}
	.st1{opacity:0.39;fill:#F7A9B4;}
	.st2{fill:#F7A9B4;}
	.st3{fill:#599AF2;}
	.st4{opacity:7.000000e-02;}
	.st5{fill:#ECF1F7;}
	.st6{opacity:0.65;}
	.st7{fill:#4C65BA;}
	.st8{fill:#3E479B;}
	.st9{opacity:7.000000e-02;fill:#373449;}
	.st10{fill:#373449;}
	.st11{clip-path:url(#SVGID_4_);}
	.st12{fill:#6D6CD4;}
	.st13{opacity:0.56;fill:#3E479B;}
	.st14{clip-path:url(#SVGID_4_);fill:#F28393;}
	.st15{fill:#F28393;}
</style>
<g>
	<g>
		<path class="st0" d="M275,145.3h-85.2c-9.3,0-16.9-7.6-16.9-16.9v-93c0-9.3,7.6-16.9,16.9-16.9H275c9.3,0,16.9,7.6,16.9,16.9v93
			C291.9,137.8,284.4,145.3,275,145.3z"/>
		<path class="st1" d="M275,145.3h-85.2c-9.3,0-16.9-7.6-16.9-16.9v-93c0-9.3,7.6-16.9,16.9-16.9H275c9.3,0,16.9,7.6,16.9,16.9v93
			C291.9,137.8,284.4,145.3,275,145.3z"/>
		<g>
			<path class="st2" d="M264.8,18.5L264.8,18.5l-95.6,0c-11,0-19.9,8.9-19.9,19.9V46h96.7v-7.6C245.9,27.8,254.3,19.1,264.8,18.5z"
				/>
		</g>
		<path class="st0" d="M261.1,60.6h-65.4c-0.6,0-1.1-0.5-1.1-1.1s0.5-1.1,1.1-1.1h65.4c0.6,0,1.1,0.5,1.1,1.1S261.7,60.6,261.1,60.6
			z"/>
		<path class="st0" d="M261.1,88.1h-65.4c-0.6,0-1.1-0.5-1.1-1.1s0.5-1.1,1.1-1.1h65.4c0.6,0,1.1,0.5,1.1,1.1S261.7,88.1,261.1,88.1
			z"/>
		<path class="st0" d="M230.4,74.3h-34.8c-0.6,0-1.1-0.5-1.1-1.1c0-0.6,0.5-1.1,1.1-1.1h34.8c0.6,0,1.1,0.5,1.1,1.1
			C231.5,73.9,231,74.3,230.4,74.3z"/>
		<path class="st0" d="M268.4,74.3h-29.5c-0.6,0-1.1-0.5-1.1-1.1c0-0.6,0.5-1.1,1.1-1.1h29.5c0.6,0,1.1,0.5,1.1,1.1
			C269.4,73.9,268.9,74.3,268.4,74.3z"/>
	</g>
</g>
<g>
	<g>
		<g>
			<g>
				<defs>
					<path id="SVGID_1_" d="M253.1,258h-89.5V151.1c0-24.7,20-44.8,44.8-44.8l0,0c24.7,0,44.8,20,44.8,44.8V258z"/>
				</defs>
				<clipPath id="SVGID_2_">
					<use xlink:href="#SVGID_1_"  style="overflow:visible;"/>
				</clipPath>
			</g>
		</g>
	</g>
	<g>
		<g>
			<g>
				<path class="st3" d="M213.9,95.8h144.8c32.4,0,58.6,26.2,58.6,58.6v103c0,2.4-1.9,4.3-4.3,4.3H158.8c-0.3,0-0.5-0.2-0.5-0.5
					V151.5C158.3,120.7,183.2,95.8,213.9,95.8z"/>
			</g>
			<g class="st4">
				<path class="st5" d="M231.8,118.5h109.5c32.4,0,58.6,26.2,58.6,58.6v80.3c0,2.4-1.9,4.3-4.3,4.3H176.7c-0.3,0-0.5-0.2-0.5-0.5
					v-87.1C176.2,143.4,201.1,118.5,231.8,118.5z"/>
			</g>
			<g class="st6">
				<path class="st7" d="M412.5,262.2h-160v-13.7h164.8v8.9C417.4,260.1,415.2,262.2,412.5,262.2z"/>
			</g>
			<g class="st6">
				<path class="st7" d="M412.5,262.2h-160v-13.7h164.8v8.9C417.4,260.1,415.2,262.2,412.5,262.2z"/>
			</g>
			<path class="st8" d="M413.7,261.7h-72.8v-12.8h76.5v9.1C417.4,260.1,415.7,261.7,413.7,261.7z"/>
			<rect x="260.5" y="154.8" class="st9" width="156.9" height="93.7"/>
		</g>
		<g>
			<g>
				<path class="st7" d="M254.1,258h-89.5c-3.5,0-6.3-2.8-6.3-6.3V150.1c0-28.2,22.9-51.1,51.1-51.1l0,0c28.2,0,51.1,22.9,51.1,51.1
					v101.6C260.5,255.2,257.6,258,254.1,258z"/>
			</g>
			<path class="st10" d="M253.1,258h-89.5V151.1c0-24.7,20-44.8,44.8-44.8l0,0c24.7,0,44.8,20,44.8,44.8V258z"/>
			<g>
				<defs>
					<path id="SVGID_3_" d="M253.1,258h-89.5V151.1c0-24.7,20-44.8,44.8-44.8l0,0c24.7,0,44.8,20,44.8,44.8V258z"/>
				</defs>
				<clipPath id="SVGID_4_">
					<use xlink:href="#SVGID_3_"  style="overflow:visible;"/>
				</clipPath>
				<g class="st11">
					<path class="st12" d="M256.7,244.3h-74.2c-2.7,0-4.9-2.2-4.9-4.9v-44.6c0-3.3,2.7-6.1,6.1-6.1h70.5c4.1,0,7.3,3.3,7.3,7.3v43.3
						C261.5,242.1,259.4,244.3,256.7,244.3z"/>
					<path class="st13" d="M257.7,244.3h-38.1h-38.1c-2.1,0-3.8-1.7-3.8-3.8v-46.4c0-0.6,0.2-1.1,0.6-1.6l0,0
						c0.4-0.5,1.2-0.6,1.7-0.1l29.1,24.1l6,5c2.6,2.1,6.3,2.1,8.9-0.1l35.8-30.4c2.2,2.1,1.7,4.3,1.7,4.3v45.1
						C261.5,242.6,259.8,244.3,257.7,244.3z"/>
					<path class="st12" d="M179.4,244.8c-0.3,0-0.6-0.1-0.8-0.4c-0.4-0.4-0.3-1.1,0.1-1.5l31.4-28c0.4-0.4,1.1-0.3,1.5,0.1
						s0.3,1.1-0.1,1.5l-31.4,28C179.9,244.7,179.7,244.8,179.4,244.8z"/>
					<path class="st12" d="M258.6,244.8c-0.2,0-0.5-0.1-0.7-0.3l-30.5-27.1c-0.4-0.4-0.5-1.1-0.1-1.5c0.4-0.4,1.1-0.5,1.5-0.1
						l30.5,27.1c0.4,0.4,0.5,1.1,0.1,1.5C259.2,244.7,258.9,244.8,258.6,244.8z"/>
				</g>
				<path class="st14" d="M253.6,258h-83.2v-5.1c0-4.7,3.8-8.5,8.5-8.5h74.6V258z"/>
			</g>
		</g>
		<g>
			<g>
				<path class="st3" d="M250.5,277H100.1c-5.7,0-10.3-4.6-10.3-10.3V258h172.7v6.9C262.6,271.6,257.2,277,250.5,277z"/>
			</g>
			<g>
				<path class="st7" d="M250.5,277h-47.2c-5.7,0-10.3-4.6-10.3-10.3V258h69.5v6.9C262.6,271.6,257.2,277,250.5,277z"/>
			</g>
		</g>
		<g>
			<circle class="st8" cx="301.5" cy="158" r="14.7"/>
			<path class="st8" d="M301.5,162.7L301.5,162.7c-2.6,0-4.7-2.1-4.7-4.7V64.2c0-2.6,2.1-4.7,4.7-4.7l0,0c2.6,0,4.7,2.1,4.7,4.7V158
				C306.3,160.6,304.1,162.7,301.5,162.7z"/>
			<g>
				<circle class="st7" cx="303.6" cy="158" r="12.6"/>
			</g>
			<polygon class="st12" points="307.8,87 307.8,87 307.8,64.2 351,64.2 			"/>
			<polygon class="st12" points="307.8,87 307.8,87 307.8,64.2 351,64.2 			"/>
			<g>
				<path class="st7" d="M303.6,162.7L303.6,162.7c-2.6,0-4.7-2.1-4.7-4.7V64.2c0-2.6,2.1-4.7,4.7-4.7l0,0c2.6,0,4.7,2.1,4.7,4.7
					V158C308.4,160.6,306.2,162.7,303.6,162.7z"/>
			</g>
			<path class="st8" d="M303.6,165.3c-4.2,0-7.6-3.4-7.6-7.6c0-4.2,3.4-7.6,7.6-7.6c4.2,0,7.6,3.4,7.6,7.6
				C311.3,161.9,307.8,165.3,303.6,165.3z M303.6,151.1c-3.6,0-6.6,3-6.6,6.6s3,6.6,6.6,6.6c3.6,0,6.6-3,6.6-6.6
				S307.3,151.1,303.6,151.1z"/>
		</g>
	</g>
	<g>
		<g>
			<g>
				<defs>
					<path id="SVGID_5_" d="M253.1,258h-89.5V151.1c0-24.7,20-44.8,44.8-44.8l0,0c24.7,0,44.8,20,44.8,44.8V258z"/>
				</defs>
				<clipPath id="SVGID_6_">
					<use xlink:href="#SVGID_5_"  style="overflow:visible;"/>
				</clipPath>
			</g>
		</g>
	</g>
</g>
<g>
	<g>
		<path class="st2" d="M207,219.5H94.1c-3.3,0-5.9-2.7-5.9-5.9v-69.7c0-3.7,3-6.7,6.7-6.7h109.6c4.4,0,8,3.6,8,8V214
			C212.5,217,210,219.5,207,219.5z"/>
		<path class="st15" d="M206.8,219.5h-56.5H93.8c-3.1,0-5.6-2.5-5.6-5.6v-68.7c0-0.8,0.3-1.7,0.9-2.3l0,0c0.7-0.7,1.8-0.8,2.5-0.2
			l43.2,35.8l8.9,7.4c3.8,3.2,9.4,3.1,13.1-0.1l53-45c3.3,3.2,2.6,6.3,2.6,6.3v66.9C212.5,217,209.9,219.5,206.8,219.5z"/>
		<path class="st2" d="M91.4,219c-0.3,0-0.6-0.1-0.8-0.4c-0.4-0.4-0.3-1.1,0.1-1.5l45.9-40.8c0.4-0.4,1.1-0.3,1.5,0.1
			c0.4,0.4,0.3,1.1-0.1,1.5l-45.9,40.8C91.9,218.9,91.7,219,91.4,219z"/>
		<path class="st2" d="M208.3,219.1c-0.2,0-0.5-0.1-0.7-0.3l-45.4-39.5c-0.4-0.4-0.5-1-0.1-1.5c0.4-0.4,1-0.5,1.5-0.1l45.4,39.5
			c0.4,0.4,0.5,1,0.1,1.5C208.9,219,208.6,219.1,208.3,219.1z"/>
	</g>
</g>
<g>
	<circle class="st8" cx="398.4" cy="99.2" r="23.2"/>
	<g>
		<path class="st0" d="M395.9,71.5c-0.3,0-0.5-0.2-0.5-0.5v-7.7c0-0.3,0.2-0.5,0.5-0.5c0.3,0,0.5,0.2,0.5,0.5V71
			C396.4,71.3,396.2,71.5,395.9,71.5z"/>
		<path class="st0" d="M406.2,73.8c-0.1,0-0.2,0-0.3-0.1c-0.2-0.2-0.3-0.5-0.1-0.7l2.2-3.2c0.2-0.2,0.5-0.3,0.7-0.1
			c0.2,0.2,0.3,0.5,0.1,0.7l-2.2,3.2C406.5,73.7,406.3,73.8,406.2,73.8z"/>
		<path class="st0" d="M385.2,73.8c-0.2,0-0.3-0.1-0.4-0.2l-2.2-3.2c-0.2-0.2-0.1-0.6,0.1-0.7c0.2-0.2,0.6-0.1,0.7,0.1l2.2,3.2
			c0.2,0.2,0.1,0.6-0.1,0.7C385.5,73.7,385.3,73.8,385.2,73.8z"/>
	</g>
</g>
</svg>
