<?xml version="1.0" encoding="utf-8"?>
<!-- Generator: Adobe Illustrator 24.3.0, SVG Export Plug-In . SVG Version: 6.00 Build 0)  -->
<svg version="1.1" xmlns="http://www.w3.org/2000/svg" xmlns:xlink="http://www.w3.org/1999/xlink" x="0px" y="0px"
	 viewBox="0 0 1920 900" style="enable-background:new 0 0 1920 900;" xml:space="preserve">
<style type="text/css">
	.st0{fill:#EC7126;}
	.st1{opacity:0.2;}
	.st2{fill:#FFD0C1;}
	.st3{fill:#BCBEC0;}
	.st4{fill:#EAD2B7;}
	.st5{fill:#33435A;}
	.st6{fill:#222D3D;}
	.st7{fill:#06529C;}
	.st8{fill:#D7765B;}
	.st9{fill:#263343;}
	.st10{fill:#FDC4B1;}
	.st11{fill:#D0E8F4;}
	.st12{fill:#E3E3E4;}
	.st13{fill:#FFFFFF;}
	.st14{fill:#CCCDCE;}
	.st15{fill:#9D9D9F;}
	.st16{fill:#EAEAEA;}
	.st17{fill:#F6F6F6;}
	.st18{fill:#FFBDB8;}
	.st19{opacity:0.12;}
	.st20{fill:#272426;}
	.st21{fill:#427CCC;}
	.st22{fill:#FFD400;}
	.st23{fill:#F29100;}
	.st24{fill:#E20613;}
	.st25{fill:#1D70B7;}
	.st26{fill:#35A8E0;}
	.st27{fill:#006633;}
</style>
<g id="Layer_2">
	<rect x="-0.6" y="-2.9" class="st0" width="1917.3" height="899.6"/>
</g>
<g id="Layer_5">
	<g class="st1">
		<g>
			<polygon class="st2" points="300.9,78.5 302.8,58.3 294.2,57.1 289.8,70.7 286,68.2 286.5,85.7 295.3,88.1 			"/>
			<polygon class="st3" points="173.3,180 263.2,146.1 285.7,83.2 297,87.3 295.4,165.4 211.2,226.6 			"/>
		</g>
		<g id="XMLID_132_">
			<polygon class="st4" points="653.9,251 653,261.1 634.4,265.3 625.2,256.2 626.7,244.5 636.6,245.2 637.3,242.7 640.8,241 			"/>
		</g>
		<g>
			<g>
				<g>
					<polygon class="st5" points="1089.8,408 1093.8,499.9 1082.2,656.3 1064.8,657.5 1043.6,515.5 1014.4,395.3 					"/>
					<polygon class="st6" points="1065.4,664.8 1084.9,672.9 1093.6,662.8 1083.5,654.1 1064.7,655.4 					"/>
				</g>
				<g>
					<polygon class="st5" points="966.7,375.4 962.9,444.9 974.2,651.6 991.6,652.5 1017.7,516.9 1040.8,368.3 					"/>
					<polygon class="st6" points="991.2,659.8 971.9,668.3 962.9,658.4 972.8,649.4 991.6,650.4 					"/>
				</g>
				<g>
					<path class="st7" d="M1068,170.7l-54.3-5.8c0,0-30.2,3.2-50.7,75c-11.4,39.9-14.9,102.9-15.7,150.8c1.3,6.8,8.7,36.8,40.3,31.7
						c54.1-8.7,83-17.5,106.5-13.1c20.1,4.4,18.4-23.3,16.2-44.4l-8-65.3L1068,170.7z"/>
				</g>
				<g>
					<path class="st8" d="M1057.5,103c-13.7-3-27.8-5.7-41.5-3c-3,0.6-6.2,1.6-7.9,4.2c-0.6,1-1,2.2-1.3,3.3
						c-3.5,12.9-7.8,31.9,0.6,43.8c1.6,2.3,3.8,4.1,6.1,5.5c3.1,1.9,6.6,3.3,10.1,4c-0.7,3.2-1.8,6.3-3.1,9.3
						c3.1,4.7,17.8,5.3,20.5,0.8c0.2-3.9,0.3-7.8,0.5-11.8c1.8-0.7,3.5-1.6,5.1-2.7c6.3-4.1,10.4-10.4,12.8-17.4
						c2.6-7.6,6.3-14.8,8.6-22.6c0.9-2.8,1.6-6.1,0.1-8.6c-1.6-2.7-5-3.6-8.1-4.3C1059.2,103.4,1058.3,103.2,1057.5,103z"/>
					<path class="st9" d="M1011.9,110.4c6.8-4.4,16.9-6.2,23.3-5.8c19.2,1.4,26.3,15.5,27.3,33.2c5.3-6.7,15.3-15.2,15.9-23.9
						c0.5-7.1-0.5-16.8-4.5-22.9c-3.7-5.7-13.2-8.9-18.9-12.2c-5.3-3.1-10.7-6.3-16-9.4c-1.1-0.7-2.2-1.3-3.5-1.5
						c-1.5-0.3-3,0.1-4.5,0.5c-12.6,3.3-25.2,6.5-37.8,9.8c-2.4,0.6-5.2,1.5-6.1,3.9c-0.5,1.4-0.2,3,0.1,4.5
						c1.4,6.5,4.2,13.2,4.9,19.9c0.8,3.9,3.1,23.6,9.9,21.3c2-3.3,2.3-7.3,3.9-10.8C1006.9,114.3,1009.1,112.1,1011.9,110.4z"/>
				</g>
			</g>
		</g>
		<g id="XMLID_113_">
			<g id="XMLID_115_">
				<g id="XMLID_129_">
					<g id="XMLID_131_">
						<path class="st6" d="M828.8,632.4c1.9-2,4-3.2,6.5-2.8c2.4,0.4,4.5,2,5.4,4.1c0.7,1.5,0.8,3.1,0.9,4.7
							c0.7,8.2,0.6,27.7-10.3,30.5c-4.6,1.2-8.4-2.1-9.6-6.2C819.8,656.5,822.6,639.3,828.8,632.4z"/>
					</g>
					<g id="XMLID_130_">
						<path class="st10" d="M824.9,508.7l0.6,50c-0.7,22.2,2.8,44.6,2.1,66.8c-0.2,5.1-1.5,10.5-0.2,15.6c1.3,5,5.3,5.8,9.4,3.3
							c5.5-3.4,4.6-11.2,5.6-16.9c2.5-15.7,5.5-31.4,8.2-47.1c1.3-7.7-1.4-18.5-0.8-26.3l8.1-41.9L824.9,508.7z"/>
					</g>
				</g>
				<g id="XMLID_128_">
					<polygon class="st5" points="882.1,427.8 860.3,524.6 855.7,615.9 821.1,615.1 811.7,359.6 878.7,360.8 					"/>
				</g>
				<g id="XMLID_123_">
					<g id="XMLID_125_">
						<g id="XMLID_127_">
							<path class="st6" d="M779.4,630.6c1.9-1.9,4.1-2.9,6.6-2.4c2.3,0.5,4.4,2.2,5.2,4.4c0.6,1.5,0.7,3.1,0.7,4.7
								c0.3,8.2-0.6,27.7-11.6,29.9c-4.6,0.9-8.3-2.6-9.3-6.8C769.5,654.1,772.9,637.1,779.4,630.6z"/>
						</g>
						<g id="XMLID_126_">
							<path class="st10" d="M797.6,515.7l-2.9,50c-0.2,13.9-2.1,27.7-3.5,41.4c-1.3,12.8,0.7,26.1-6,37.8c-2.1,3.7-6.3,6.1-9.3,1.6
								c-2.3-3.4-0.9-9.1-1.4-13c-1.8-15.8-4-31.6-5.9-47.4c-0.9-7.8,2.2-18.4,2-26.2l-6.1-42.3L797.6,515.7z"/>
						</g>
					</g>
					<g id="XMLID_124_">
						<polygon class="st5" points="753.9,421.9 751.1,515.8 765.8,610.8 801,611.8 799.4,509.1 818,423.8 824.2,368.1 768.5,361.5 
													"/>
					</g>
				</g>
				<g id="XMLID_122_">
					<polygon class="st11" points="798,169.3 858,167.9 892.8,232.6 880.5,293.3 878.3,365.8 792.6,367 764.4,362.4 771.9,284.9 
						767.6,181.3 					"/>
				</g>
				<g id="XMLID_121_">
					<polygon class="st11" points="788.5,212 766.9,278.4 734.5,290 646,266.2 657.9,247.8 735.7,250.3 767.8,184.2 					"/>
				</g>
				<g id="XMLID_116_">
					<g id="XMLID_120_">
						<path class="st10" d="M801.8,119c9.1-26.3,43.8-16.5,51,7c4.7,15.3-7.1,35.1-23,39.5c-0.1,0.6-0.1,1.2-0.1,1.6
							c0,2.5-0.3,4.9-0.7,7.3c-0.1,0.9-14-1.7-15.5-2.1c-0.5-0.1-1.1-0.3-1.4-0.7c-0.6-0.9,0.3-3.4,0.5-4.4c0.1-1.1,0.2-2.3,0.4-3.4
							c-7.8-3.8-12.7-11.9-14.1-20.2C797.3,135.4,799,126.9,801.8,119z"/>
					</g>
					<g id="XMLID_117_">
						<g id="XMLID_119_">
							<path class="st9" d="M824.4,95.2c1.9,1.9,2.6,4.5,3.1,7.1c0.3,1.5,0.6,3.1,0.3,4.6c-1.3,6-7.2,5.7-11.8,7.6
								c-5.7,2.4-10.5,6.7-13.7,11.8c-5,7.9-2.7,18-0.7,26.7c0.7,3.1,2.1,7.6-0.2,10.4c-2.4,2.8-8,2.3-10.9,0.9
								c-2.6-1.3-4.8-3.7-7.7-4.2c-3.1-0.5-7.2,0.8-8.7-2c-0.4-0.8-0.4-1.7-0.9-2.5c-1.7-2.4-5.9,0.4-8.3-1.3
								c-1.5-1.1-1.5-3.3-1-5.1c0.5-1.8,1.3-3.6,1-5.4c-0.3-1.6-1.4-2.8-2.1-4.2c-1.4-2.8-0.9-6.4,1.1-8.8
								c3.8-4.4,11.1-3.5,15.2-7.7c2.1-2.1,2.9-5.2,3.7-8.2c0.8-2.9,1.7-6,4-8c2.8-2.5,6.8-2,9.6-4.9c1.6-1.7,2.7-3.9,4.5-5.4
								c2.4-2,7.1-3.5,10-4.5C815.6,90.6,820.9,91.6,824.4,95.2z"/>
						</g>
						<g id="XMLID_118_">
							<path class="st9" d="M846.4,137.2c0.2,8.7-4.1,18-0.2,25.6c4,7.7,14.1,9.1,22.6,9.5c1.4,0.1,19.5,1.6,19.5,1.3
								c1.4-6,2.8-12.2,5.9-17.5c3.2-5.3,8.4-9.7,14.5-10.1c-1.7-0.3-2.6-2.4-2.4-4.2c0.2-1.8,1.1-3.4,1.7-5.1
								c1.3-4.2,0-9.2-3.2-12.2c-6.4-6-18-3.5-23.4-10.3c-3.4-4.2-3-10.4-4.8-15.6c-3.4-10-14.4-12.1-22.6-16.6
								c-8.6-4.8-16.8-7.4-26.8-5.7c-12.4,2.1-21.6,14.7-16.8,26.5c6.1,15.2,30.6,13.9,35.2,29.3
								C846.1,133.8,846.4,135.5,846.4,137.2z"/>
						</g>
					</g>
				</g>
			</g>
			<g id="XMLID_114_">
				<polygon class="st12" points="840.3,169 821.6,195.3 812.9,194.6 798.3,167.9 				"/>
			</g>
		</g>
		<g>
			<polygon class="st6" points="358.4,645.1 357,655.8 376.9,669.1 388.9,659.9 379.6,647.9 359.8,634.5 			"/>
			<g>
				<polygon class="st5" points="357.7,641.6 373.1,506 354.6,354.2 358.7,321.9 441.2,318.8 444.2,371.4 430.3,506.2 378.3,648.5 
									"/>
			</g>
			<g>
				<polygon class="st5" points="501.7,334 501.9,470.8 474.4,646.9 454.6,646.7 443.7,483.9 418.2,320.8 				"/>
				<polygon class="st6" points="454.6,655.1 475.9,666 486.7,655.4 476.1,644.6 454.7,644.4 				"/>
			</g>
			<g>
				<path class="st7" d="M346.1,380.5c0.2-5.9,0.5-10.9,0.6-12.6c0.4-15.9,1.8-31.8,3.8-47.6c1.8-14.2,4-49.3,6.5-63.3
					c2-11.6,9-40.6,14-51.4c12.5-26.8,8.7-29.3,63.6-37.2c24.1-3.5,29.8,11.5,49.5,28.8c1.9,1.7,1.8,11.8,2.3,14.5
					c0.8,4.7,1.6,9.5,2.6,14.2c0.8,3.7,1.6,7.4,2.6,11l0,0c0,0,16.5,75.3,27.5,91.3c10.9,16,33.5,38.3-4.3,52
					c-6.7,2.2-13.4,4.2-20.4,5.3c0,0-30.9-3.4-46.8-3.3c-14.6,0.1-29.3,1.6-43.7,4.1c-9.6,1.6-19.5,3.9-28.1,8.4
					c-8.2,4.3-14.1,10.6-22.5,15c-0.8,0.4-1.7,0.9-2.6,0.7C345.9,409.8,345.7,393,346.1,380.5z"/>
			</g>
			<g>
				<path class="st2" d="M434.6,176c-2.8,1.4-9.3,1.9-16.2-0.8c-1.4-0.5-2.3-1.9-2.3-3.3c0.1-4.1,0.4-8.3,1-12.4
					c-5.1-1.8-11-4.5-11.9-9.9c-0.3-1.7,0-3.4,0.3-5.1c1.2-7,2.4-13.9,3.6-20.9c0.4-2.4,0.9-4.9,2.2-7c2.3-3.6,6.8-5.2,11-5.9
					c10.8-1.9,22.6,0.5,30.9,7.5c2.2,1.9,4.2,4.1,5.2,6.9c1.5,4.2,0.4,8.9-0.8,13.2c-1.1,4-2.1,8-3.2,12c-1.2,4.6-3,9.9-7.4,11.6
					c-2.4,0.9-5.1,0.7-7.3,2C436.1,166.3,436.6,171.9,434.6,176z"/>
				<path class="st9" d="M496.9,106.4c1.1-1.7,2.2-3.4,3.5-5c2.8-3.4,6.2-6.3,8.4-10.1c2.2-3.8,3-8.9,0.3-12.4
					c-1.7-2.3-4.5-3.4-7.2-4.2c-9-2.6-18.6-2.8-27.7-0.5c-8.6,2.2-16.3,5.8-25,2.6c-8.2-3-14-1.8-22.6,1.2c-9.2,3.3-21.6,4.1-30,8.7
					c-3.5,1.9-6.3,5-8.4,8.3c-7.5,11.6-7.6,27.6-0.1,39.2c1.7,2.6,3.7,5,5.8,7.3c4.4,4.7,9.6,10.5,15.5,12.3
					c0.1-5.4-4.7-22.2-0.6-26.6c6.5-7,21.3-4.5,29.4-2.8c8.8,1.9,16.7,8.1,25.5,9.5c6.3,1,14.3-2.1,19.7-5.4
					C490,124.5,493,112.8,496.9,106.4z"/>
			</g>
			<polygon class="st7" points="388.9,178.7 354.6,208.8 316.3,289.2 364.7,346.7 373,314.6 			"/>
		</g>
		<g>
			<g>
				<polygon class="st7" points="166,409.4 88.9,385.9 112,517.4 109.4,632.1 109.2,632.8 109.4,632.8 109.4,633.1 124.4,633.7 
					124.4,633.7 125,633.7 152.4,530.1 163.9,420.7 163.9,420.7 				"/>
				<polygon class="st6" points="123.9,638.9 108.4,639.4 105.2,652.7 105.6,652.8 105.5,652.8 131.9,666.5 144.2,667.1 
					144.9,653.2 141.5,650.9 				"/>
			</g>
			<g>
				<polygon class="st7" points="225.4,408.5 215.7,636.4 200.7,637.9 178.8,516.4 145.8,396.1 				"/>
				<polygon class="st6" points="215.9,641.7 236.4,651.8 235,661.2 199.4,657.9 200.7,644.3 				"/>
			</g>
			<g>
				<path class="st3" d="M69.8,450.3C67.1,411.9,98,288.7,98,288.7l0,0c3.3-11.6,5.7-23.4,7.1-35.1c0.9-8.4,23.3-103.9,21.6-103.9
					c17.3,0.8,50.3-4.2,63.4,7.6c0.4,0.3,0.7,0.7,1.1,1.1c10.3,11.1,16.1,33.9,21.2,47.9c6.7,18.4,12,37.3,15.8,56.5
					c3.3,16.8,5.5,33.8,7.1,50.8c1.4,14.6,1,29.2,1.9,43.6c1,15.9,6.3,33.1,10.3,48.6c4,15.5,9,30.9,15.8,45.5
					c-16.9,8-35.9,10.6-54.5,11.2c-18.7,0.6-37.4-0.7-56.1,0.1c-15.8,0.7-31.7,2.9-47.3,0.1C92.9,460.4,81.4,455.2,69.8,450.3
					L69.8,450.3z"/>
			</g>
			<g>
				<path class="st9" d="M184.5,107.7c8,3.7,16.4,13.4,16.2,22.8c-0.1,4.5-2.5,8-2.4,12.9c0.1,9.5-14,19.8-4.9,28.7
					c4.7,4.6,11.8,5.3,18.3,5.8c0.8,0.1,1.6,0.1,2.3-0.2c1.2-0.5,1.7-2,1.7-3.3c-0.1-1.3-0.6-2.5-1-3.8c-4.5-12.9,1.3-28.2,1.7-41.4
					c0.4-13.2-3.2-27.4-14.2-35.7c-7.2,2.4-12.5,5.6-15.9,12.4L184.5,107.7z"/>
				<path class="st2" d="M181.2,164.2c8.9-1.4,16.3-8.2,20.3-16.3c3.9-8.1,4.8-17.4,4.6-26.4c-0.7-30-37.9-31-52.2-9.1
					C141.4,131.4,155.3,168.2,181.2,164.2z"/>
			</g>
		</g>
		<g>
			<rect x="906.1" y="341.5" class="st13" width="295.6" height="190.7"/>
			<g>
				<polygon class="st13" points="1162.3,276.9 1053.9,276.9 945.5,276.9 898.3,332.5 1053.9,332.5 1209.5,332.5 				"/>
				<rect x="898.3" y="332.5" class="st14" width="311.2" height="20"/>
				<polygon class="st15" points="995.5,295.7 987.8,304.7 1111.5,304.7 1103.9,295.7 				"/>
			</g>
			<polygon class="st16" points="906.1,352.6 1201.7,380.1 1201.7,352.6 			"/>
			<polygon class="st17" points="927.4,400.7 1177.4,392.9 1171.9,400.7 1181.7,410 1173.6,423.9 1181.7,431.7 1175.7,437 
				1187.6,456.6 1170.5,470.8 1178.9,479.4 929.7,486.4 934.9,476.9 927.4,476.9 935.3,455.6 922.3,445.3 930,434.7 926.9,429.2 
				933.2,419.8 922.3,406.9 			"/>
		</g>
		<polygon class="st8" points="948.4,316.5 949,326.5 961.4,341 968.9,333.5 962.9,320.3 965.9,315.5 961,310.1 		"/>
		<polygon class="st7" points="1013.6,164.8 993.5,170.9 920.2,247.8 915.8,273.1 950.9,331 960.4,309.8 945.5,267 969.1,250.4 
			1000.5,179.7 		"/>
		<g>
			<g>
				<g>
					<g>
						<path class="st18" d="M711,161.2c-32.3-6.8-75.5,5.7-88.9,32.7c-6.2-29.5-54-53.2-87-54.7c-87-3.8-128.5,90.1-100.3,160.2
							c15.2,37.8,39.5,72.2,66.8,103.8c22.8,26.5,83.1,84.1,83.3,83.9c0.2,0.2,72.9-40.6,101.6-60.5c34.3-23.8,66.4-51.1,90.5-83.9
							C821.9,281.7,796.1,179.2,711,161.2z"/>
					</g>
					<g class="st19">
						<path d="M757.6,347.2c-24.8,23.6-52.8,45.2-82.4,63c-28.7,17.2-61.5,31.2-95.9,33c-16.5,0.8-32.3-1.6-46.8-7
							c24.7,25,51.8,50.8,51.9,50.7c0.2,0.2,72.9-40.6,101.6-60.5c34.3-23.8,66.4-51.1,90.5-83.9c7.8-10.6,13.5-22.5,17-35
							C782.8,321.6,770.6,334.8,757.6,347.2z"/>
					</g>
				</g>
			</g>
			<path class="st13" d="M817.2,377c1.2-9.8-5.9-18.8-15.7-20c-9.9-1.2-18.8,5.8-20,15.7c0,0,0,0,0,0l-21.2,75.2
				c-5,17.7-17.1,32.6-33.4,41.1l-59.7,31.1l43.9-51.5c0.7-0.7,1.4-1.5,2-2.3l0,0l0,0c1.5-2.1,2.5-4.7,2.9-7.5
				c1.1-9.1-5.4-17.3-14.4-18.4c-4.1-0.5-8,0.6-11.2,2.7l0,0l-59.4,42.5c-25.7,18.3-42.5,46.6-46.3,78l-4.2,34.9
				c-2.9,23.6,14,45.1,37.6,48c9.1,1.1,17.9-0.7,25.5-4.8c2.1-1.1,4-2.4,5.9-3.8l122.1-78.4c16.3-10.4,27-27.6,29.4-46.8L817.2,377
				L817.2,377z"/>
			<path class="st13" d="M386.3,324.5c1.2-9.8,10.2-16.8,20-15.6c9.9,1.2,16.9,10.2,15.7,20c0,0,0,0,0,0l2.6,78.1
				c0.6,18.4,8.8,35.7,22.6,47.9l50.5,44.5l-30.2-60.5c-0.5-0.9-1-1.8-1.4-2.7l0,0l0,0c-0.9-2.4-1.3-5.1-1-7.9
				c1.1-9.1,9.3-15.5,18.4-14.4c4.1,0.5,7.7,2.5,10.3,5.3l0,0l47.5,55.5c20.5,24,30.1,55.5,26.3,86.8l-4.2,34.9
				c-2.9,23.6-24.4,40.5-48,37.6c-9.1-1.1-17.2-5-23.6-10.8c-1.7-1.6-3.4-3.3-4.8-5.1L387,512.7c-13.3-14-19.6-33.3-17.3-52.5
				L386.3,324.5L386.3,324.5z"/>
		</g>
		<g>
			<g id="XMLID_112_">
				<polygon class="st4" points="810.4,378 819.2,383 815.5,401.6 803.4,406.3 793.4,400.2 798.1,391.4 796,389.8 795.9,385.9 				
					"/>
			</g>
			<g id="XMLID_111_">
				<polygon class="st11" points="860.6,181.5 881.2,216.2 880.2,301.7 826.5,387.1 807.3,377.2 849.6,301.7 841.9,242.9 				"/>
			</g>
		</g>
		<polygon class="st20" points="1063.1,176.1 1114.8,157.5 1147.3,80.6 1165.2,81.8 1144,166.3 1125.2,187.7 1061.4,219.7 		"/>
		<polygon class="st8" points="1161.4,81.6 1166,72.7 1162.8,53.8 1152.5,56.4 1150.9,70.8 1145.8,73.5 1147.3,80.6 		"/>
		<g>
			<g>
				<g>
					
						<ellipse transform="matrix(0.7071 -0.7071 0.7071 0.7071 215.7411 868.2164)" class="st3" cx="1155.9" cy="173.7" rx="103.9" ry="103.9"/>
				</g>
			</g>
			<g>
				<g>
					
						<ellipse transform="matrix(0.7071 -0.7071 0.7071 0.7071 215.741 868.2164)" class="st14" cx="1155.9" cy="173.7" rx="88.2" ry="88.2"/>
				</g>
			</g>
			<g>
				<g>
					<path class="st15" d="M1201.9,98.4c8.8,13.7,13.9,30,14,47.5c0.1,48.7-39.3,88.2-88,88.3c-16.9,0-32.7-4.7-46.2-12.9
						c15.7,24.4,43.2,40.6,74.4,40.5c48.7-0.1,88.1-39.6,88-88.3C1244,141.6,1227.1,113.8,1201.9,98.4z"/>
				</g>
			</g>
			<g>
				<g>
					<path class="st17" d="M1083.2,181.9c-0.1-43,34.7-77.9,77.7-78c25.1,0,47.5,11.8,61.7,30.3c-13.5-23.3-38.7-39-67.6-38.9
						c-43,0.1-77.8,35-77.7,78c0,17.9,6.1,34.3,16.2,47.4C1087,209.2,1083.2,196,1083.2,181.9z"/>
				</g>
			</g>
		</g>
		<g>
			<g>
				<path class="st13" d="M349.9,369.8c-5.4-11.9-14.7-20.8-26.3-25.3c0.1-1.7,0.1-3.4,0.1-5c0-17.4-3.4-34.3-10.1-50.2
					c-6.5-15.4-15.8-29.1-27.6-41c-11.8-11.8-25.6-21.1-41-27.6c-15.9-6.7-32.8-10.1-50.2-10.1s-34.3,3.4-50.2,10.1
					c-15.4,6.5-29.1,15.8-41,27.6c-11.8,11.8-21.1,25.6-27.6,41c-6.7,15.9-10.1,32.8-10.1,50.2c0,17.4,3.4,34.3,10.1,50.2
					c6.5,15.4,15.8,29.1,27.6,41c11.8,11.8,25.6,21.1,41,27.6c15.9,6.7,32.8,10.1,50.2,10.1s34.3-3.4,50.2-10.1
					c0.7-0.3,1.4-0.6,2.1-0.9l5.8,4.6c5.7,4.5,11.3,8.8,14.1,10.9c2,1.5,3.7,2.8,4.8,3.6c0.8,0.6,1.5,1.1,2.2,1.6
					c0.7,0.5,2.4,1.6,4.9,1.6c0,0,0,0,0,0c0.6,0,1,0,1.5-0.1l0.7,0l0.5-0.3c1.4-0.5,3-1.7,6.3-4.1c0.8-0.6,1.9-1.4,3.3-2.4l1.3-1
					c1.4-1.1,3-2.3,4.8-3.6c6.6-5,15.6-11.9,20.7-16.5c13.6-12.1,23.5-23.9,30.3-35.9C356.2,402,356.7,384.9,349.9,369.8z"/>
			</g>
			<g>
				<g>
					<g>
						<g>
							<g>
								<g>
									<g>
										<path class="st21" d="M195.8,459.9c-16.2,0-32-3.2-46.9-9.5c-14.3-6.1-27.2-14.7-38.3-25.8
											c-11.1-11.1-19.7-23.9-25.8-38.3c-6.3-14.8-9.5-30.6-9.5-46.9s3.2-32,9.5-46.9c6.1-14.3,14.7-27.2,25.8-38.3
											c11.1-11.1,23.9-19.7,38.3-25.8c14.8-6.3,30.6-9.5,46.9-9.5s32,3.2,46.9,9.5c14.3,6.1,27.2,14.7,38.3,25.8
											c11.1,11.1,19.7,23.9,25.8,38.3c6.3,14.8,9.5,30.6,9.5,46.9s-3.2,32-9.5,46.9c-6.1,14.3-14.7,27.2-25.8,38.3
											c-11.1,11.1-23.9,19.7-38.3,25.8C227.8,456.7,212,459.9,195.8,459.9z M195.8,231.2c-28.9,0-56.1,11.3-76.6,31.7
											c-20.4,20.4-31.7,47.6-31.7,76.6c0,28.9,11.3,56.1,31.7,76.6c20.4,20.4,47.6,31.7,76.6,31.7s56.1-11.3,76.6-31.7
											c20.4-20.4,31.7-47.6,31.7-76.6c0-28.9-11.3-56.1-31.7-76.6C251.9,242.5,224.7,231.2,195.8,231.2z"/>
									</g>
									<g>
										<rect x="189.7" y="225.2" class="st21" width="12.1" height="228.7"/>
									</g>
								</g>
								<g>
									<rect x="88.1" y="296.1" class="st21" width="217.2" height="12.1"/>
								</g>
								<g>
									<rect x="84.6" y="365.4" class="st21" width="221" height="12.1"/>
								</g>
								<g>
									<path class="st21" d="M190.4,458.6c-0.7-0.5-16.6-11.7-32.7-32.3c-9.4-12.2-17-25.1-22.4-38.5c-6.8-16.8-10.2-34.3-10.2-52
										c0-17.8,3.5-34.9,10.3-51c5.4-12.8,13-24.9,22.5-36.1c16.2-18.9,32.2-28.3,32.9-28.7l6,10.5c-0.1,0.1-15.2,8.9-30,26.4
										c-8.6,10.1-15.5,21.2-20.4,32.8c-6.1,14.5-9.2,30-9.2,46c0,16.2,3.1,32.1,9.4,47.5c5,12.3,12,24.3,20.7,35.6
										c14.9,19.2,29.9,29.7,30,29.8L190.4,458.6z"/>
								</g>
								<g>
									<path class="st21" d="M202.7,458.6l-6.9-9.9c0.2-0.1,15.3-10.8,30.3-30.1c8.7-11.3,15.6-23.2,20.6-35.5
										c6.1-15.3,9.3-31.2,9.3-47.3c0-16.1-3.1-31.7-9.3-46.2c-5-11.7-11.9-22.7-20.6-32.9c-14.8-17.3-29.6-26-29.8-26l6-10.5
										c0.7,0.4,16.8,9.8,32.9,28.7c9.5,11.1,17.1,23.2,22.5,36.1c6.8,16.1,10.3,33.2,10.3,51c0,17.7-3.4,35.2-10.2,52
										c-5.4,13.4-12.9,26.3-22.4,38.5C219.4,447,203.4,458.2,202.7,458.6z"/>
								</g>
							</g>
						</g>
					</g>
				</g>
				<g>
					<g>
						<g>
							<path class="st18" d="M310.7,350c-11.7-1-26.6,5.3-30.2,15.5c-3.5-10.2-21.5-16.6-33.2-15.6c-31,2.4-41.7,37.5-28.7,61.2
								c7,12.7,17.1,23.9,28.2,34c9.3,8.4,33.1,26.2,33.2,26.2c0.1,0.1,24.1-17.6,33.5-25.9c11.1-9.9,21.4-21,28.5-33.7
								C355.2,388,341.7,352.7,310.7,350z"/>
						</g>
						<g class="st19">
							<path d="M335.3,414c-7.8,9.5-16.8,18.3-26.5,25.9c-9.4,7.4-20.5,13.7-32.6,15.8c-5.8,1-11.5,0.8-16.9-0.4
								c9.9,7.8,20.6,15.8,20.6,15.7c0.1,0.1,24.1-17.6,33.5-25.9c11.1-9.9,21.4-21,28.5-33.7c2.3-4.1,3.8-8.6,4.5-13.1
								C343.1,403.8,339.3,409,335.3,414z"/>
						</g>
					</g>
				</g>
			</g>
		</g>
		<g>
			<g>
				<path class="st2" d="M74.4,370.5c1.1,4.4,8.9,13.8,13.8,14.5c11.3,1.6,2.4-10.5,0.3-15.4c1.9-0.2,3.8-0.4,5.6-1
					c1.7-0.5-9.1-13-11.2-13.7c-5.1-1.7-7.2,1.1-11.6,3.5C72.4,362.4,73.4,366.5,74.4,370.5z"/>
			</g>
			<polygon class="st3" points="125.1,160.1 26.9,284.5 69.7,363.8 89.5,358.4 68.3,291.7 95.3,256.9 149.2,214.9 			"/>
		</g>
		<path class="st9" d="M136.3,169.1c4.6-1.4,9.1-3,12.6-7c5.6-6.5,7-18.4,9.5-26.3c2.6-8.3,5.8-17.4,13.2-22.1
			c4.8-3.1,9.8-3,15.2-2.2c3.7,0.6,3.6,2,7.1,0.5c2.6-1.1,5.4-5.3,6.4-7.9c1.7-4.3,0.7-9.3-1.7-13.3c-3.7-6.1-8.6-9.7-15.4-11
			c-24-4.5-44.4,6.7-55.1,29.1c-5.1,10.7-4.8,23.7-10.1,34c-3.3,6.4-8.3,10.1-11.2,17c-7.6,17.8-21.8,39.8-24.2,59.1
			c-0.1,0.7-0.1,1.5,0.3,2.1c0.9,1.1,2.7,0.2,3.9-0.7c6.6-5.5,13.2-11,19.7-16.4c2.6-2.2,5.2-4.3,7.1-7.1c4.7-6.9,4.5-16.9,11-22.3
			C127.8,171.7,132.1,170.5,136.3,169.1z"/>
		<polygon class="st2" points="381,349.5 398.6,359.6 403.2,352.2 392.7,342.7 396.5,340.2 380.4,333.4 374.6,340.4 		"/>
	</g>
</g>
<g id="Layer_4">
</g>
<g id="Layer_3">
</g>
<g id="Layer_1">
	<circle class="st13" cx="1772.2" cy="266.6" r="492.1"/>
	<g>
		<g>
			<path class="st13" d="M1652.9,131.3c19.5,0.2,35.6-28.8,35.8-48.3c0.2-19.5-15.4-35.4-34.9-35.7c-19.5-0.2-35.4,15.4-35.7,34.9
				C1618,101.7,1633.4,131.1,1652.9,131.3z"/>
			<path class="st13" d="M1477.4,201.9c16.8,9.9,50,11.2,59.9-5.5c9.9-16.8-7.2-45.2-23.9-55.2c-16.8-9.9-38.4-4.4-48.3,12.4
				C1455.1,170.4,1460.6,192,1477.4,201.9z"/>
			<path class="st13" d="M1535.8,329.1c-9.6-17-42.8-16.4-59.7-6.9c-17,9.6-23,31.1-13.4,48c9.6,17,31.1,23,48,13.4
				C1527.6,374.2,1545.3,346.1,1535.8,329.1z"/>
			<path class="st13" d="M1650,396.7c-19.5-0.2-35.6,28.8-35.8,48.3c-0.2,19.5,15.4,35.4,34.9,35.7c19.5,0.2,35.4-15.4,35.7-34.9
				C1684.9,426.3,1669.4,396.9,1650,396.7z"/>
			<path class="st13" d="M1805.4,267.7c-3.9-0.7-8.1-1.4-12.4-2.2c4.4-0.7,8.6-1.3,12.5-1.9c28-4.2,65.1-2.2,62.7-25.6
				c-2.3-22.6-89.9,9.2-118.6-29.3c-17.9-44.5,54.6-102.9,36.6-116.6c-18.8-14.2-36.3,18.5-54.4,40.3c-2.5,3-5.3,6.3-8.1,9.7
				c1.6-4.1,3.2-8.1,4.6-11.7c10.4-26.3,30.6-57.5,9.2-67.1c-20.7-9.3-37,82.4-84.6,88.1c-47.5-6.7-61.8-98.7-82.7-90
				c-21.7,9.1-2.1,40.7,7.7,67.3c1.4,3.7,2.8,7.7,4.3,11.8c-2.8-3.4-5.4-6.8-7.9-9.9c-17.6-22.2-34.5-55.3-53.5-41.5
				c-18.4,13.3,52.9,73.2,34,117.3c-29.6,37.8-116.4,4.1-119.2,26.6c-2.9,23.3,34.2,22.2,62.1,27c3.9,0.7,8.1,1.4,12.4,2.2
				c-4.4,0.7-8.6,1.3-12.5,1.9c-28,4.2-65.1,2.2-62.7,25.6c2.3,22.6,89.9-9.2,118.6,29.3c17.9,44.5-54.6,102.9-36.6,116.6
				c18.8,14.2,36.3-18.5,54.4-40.3c2.5-3,5.3-6.3,8.1-9.7c-1.6,4.1-3.2,8.1-4.6,11.7c-10.4,26.3-30.6,57.5-9.2,67.1
				c20.7,9.3,37-82.4,84.6-88.1c47.5,6.7,61.8,98.7,82.7,90c21.7-9.1,2.1-40.7-7.7-67.3c-1.4-3.7-2.8-7.7-4.3-11.8
				c2.8,3.4,5.4,6.8,7.9,9.9c17.6,22.2,34.5,55.3,53.5,41.5c18.4-13.3-52.9-73.2-34-117.3c29.6-37.8,116.4-4.1,119.2-26.6
				C1870.4,271.4,1833.3,272.6,1805.4,267.7z M1651.4,264L1651.4,264L1651.4,264L1651.4,264C1651.4,264,1651.4,264,1651.4,264
				L1651.4,264C1651.4,264,1651.4,264,1651.4,264z"/>
			<path class="st13" d="M1825.5,326.1c-16.8-9.9-50-11.2-59.9,5.5c-9.9,16.8,7.2,45.2,23.9,55.2c16.8,9.9,38.4,4.4,48.3-12.4
				C1847.8,357.7,1842.3,336,1825.5,326.1z"/>
			<path class="st13" d="M1767.1,198.9c9.6,17,42.8,16.4,59.7,6.9c17-9.6,23-31.1,13.4-48c-9.6-17-31.1-23-48-13.4
				C1775.3,153.9,1757.5,182,1767.1,198.9z"/>
		</g>
		<g>
			<g>
				<path class="st22" d="M1737.3,63.4c-20.7-9.3-37,82.4-84.6,88.1c-47.5-6.7-61.8-98.7-82.7-90c-21.7,9.1-2.1,40.7,7.7,67.3
					c13,35.4,34.2,94.5,34.2,94.5s12.3,40.5,39.5,40.8c27.2,0.3,40.4-39.9,40.4-39.9s22.5-58.5,36.3-93.7
					C1738.5,104.1,1758.8,73,1737.3,63.4z"/>
				<path class="st22" d="M1688.7,83c-0.2,19.5-16.3,48.5-35.8,48.3c-19.5-0.2-34.9-29.6-34.7-49.1c0.2-19.5,16.2-35.1,35.7-34.9
					C1673.3,47.6,1688.9,63.5,1688.7,83z"/>
			</g>
		</g>
		<g>
			<g>
				<path class="st23" d="M1520.6,89.3c-18.4,13.3,52.9,73.2,34,117.3c-29.6,37.8-116.4,4.1-119.2,26.6c-2.9,23.3,34.2,22.2,62.1,27
					c37.2,6.4,98.9,17.6,98.9,17.6s41.2,9.6,55.1-13.9c13.9-23.4-14.3-54.9-14.3-54.9s-39.5-48.7-63-78.3
					C1556.5,108.6,1539.7,75.5,1520.6,89.3z"/>
				<path class="st23" d="M1513.3,141.2c16.8,9.9,33.9,38.4,23.9,55.2c-9.9,16.8-43.1,15.5-59.9,5.5c-16.8-9.9-22.3-31.6-12.4-48.3
					C1474.9,136.8,1496.6,131.3,1513.3,141.2z"/>
			</g>
		</g>
		<g>
			<g>
				<path class="st24" d="M1434.7,289.9c2.3,22.6,89.9-9.2,118.6,29.3c17.9,44.5-54.6,102.9-36.6,116.6
					c18.8,14.2,36.3-18.5,54.4-40.3c24.2-29,64.7-76.9,64.7-76.9s28.9-30.9,15.5-54.6c-13.3-23.7-54.7-15.1-54.7-15.1
					s-61.9,9.8-99.3,15.4C1469.4,268.5,1432.3,266.5,1434.7,289.9z"/>
				<path class="st24" d="M1476,322.2c17-9.6,50.2-10.1,59.7,6.9c9.6,17-8.2,45.1-25.2,54.6c-17,9.6-38.5,3.5-48-13.4
					C1453,353.3,1459.1,331.8,1476,322.2z"/>
			</g>
		</g>
		<g>
			<g>
				<path class="st25" d="M1565.5,464.6c20.7,9.3,37-82.4,84.6-88.1c47.5,6.7,61.8,98.7,82.7,90c21.7-9.1,2.1-40.7-7.7-67.3
					c-13-35.4-34.2-94.5-34.2-94.5s-12.3-40.5-39.5-40.8c-27.2-0.3-40.4,39.9-40.4,39.9s-22.5,58.5-36.3,93.7
					C1564.3,423.9,1544.1,455,1565.5,464.6z"/>
				<path class="st25" d="M1614.1,445c0.2-19.5,16.3-48.5,35.8-48.3c19.5,0.2,34.9,29.6,34.7,49.1c-0.2,19.5-16.2,35.1-35.7,34.9
					C1629.5,480.5,1613.9,464.5,1614.1,445z"/>
			</g>
		</g>
		<g>
			<g>
				<path class="st26" d="M1782.2,438.7c18.4-13.3-52.9-73.2-34-117.3c29.6-37.8,116.4-4.1,119.2-26.6c2.9-23.3-34.2-22.2-62.1-27
					c-37.2-6.4-98.9-17.6-98.9-17.6s-41.2-9.6-55.1,13.9c-13.9,23.4,14.3,54.9,14.3,54.9s39.5,48.7,63,78.3
					C1746.3,419.4,1763.2,452.5,1782.2,438.7z"/>
				<path class="st26" d="M1789.6,386.8c-16.8-9.9-33.9-38.4-23.9-55.2c9.9-16.8,43.1-15.5,59.9-5.5c16.8,9.9,22.3,31.6,12.4,48.3
					C1827.9,391.2,1806.3,396.7,1789.6,386.8z"/>
			</g>
		</g>
		<g>
			<g>
				<path class="st27" d="M1868.1,238.1c-2.3-22.6-89.9,9.2-118.6-29.3c-17.9-44.5,54.6-102.9,36.6-116.6
					c-18.8-14.2-36.3,18.5-54.4,40.3c-24.2,29-64.7,76.9-64.7,76.9s-28.9,30.9-15.5,54.6c13.3,23.7,54.7,15.1,54.7,15.1
					s61.9-9.8,99.3-15.4C1833.5,259.5,1870.6,261.5,1868.1,238.1z"/>
				<path class="st27" d="M1826.8,205.8c-17,9.6-50.2,10.1-59.7-6.9c-9.6-17,8.2-45.1,25.2-54.6c17-9.6,38.5-3.5,48,13.4
					C1849.8,174.7,1843.8,196.2,1826.8,205.8z"/>
			</g>
		</g>
	</g>
</g>
</svg>
