<?xml version="1.0" encoding="utf-8"?>
<!-- Generator: Adobe Illustrator 24.3.0, SVG Export Plug-In . SVG Version: 6.00 Build 0)  -->
<svg version="1.1" xmlns="http://www.w3.org/2000/svg" xmlns:xlink="http://www.w3.org/1999/xlink" x="0px" y="0px"
	 viewBox="0 0 1920 900" style="enable-background:new 0 0 1920 900;" xml:space="preserve">
<style type="text/css">
	.st0{fill:#EC7126;}
	.st1{opacity:0.1;}
	.st2{fill:url(#SVGID_1_);}
	.st3{fill:#91B3FA;}
	.st4{fill:#BDD0FB;}
	.st5{opacity:0.47;fill:#FFFFFF;}
	.st6{fill:url(#SVGID_2_);}
	.st7{fill:url(#SVGID_3_);}
	.st8{opacity:0.37;fill:#FFFFFF;}
	.st9{fill:#FFFFFF;}
	.st10{fill:url(#SVGID_4_);}
	.st11{fill:url(#SVGID_5_);}
	.st12{fill:url(#SVGID_6_);}
	.st13{fill:url(#SVGID_7_);}
	.st14{fill:url(#SVGID_8_);}
	.st15{fill:url(#SVGID_9_);}
	.st16{opacity:0.43;fill:#FFFFFF;}
	.st17{fill:url(#SVGID_10_);}
	.st18{opacity:0.2;fill:url(#SVGID_11_);}
	.st19{fill:url(#SVGID_12_);}
	.st20{fill:url(#SVGID_13_);}
	.st21{fill:url(#SVGID_14_);}
	.st22{opacity:0.43;fill:#BDD0FB;}
	.st23{opacity:0.57;fill:#FFFFFF;}
	.st24{fill:url(#SVGID_15_);}
	.st25{opacity:0.83;fill:#FFFFFF;}
	.st26{fill:url(#SVGID_16_);}
	.st27{fill:url(#SVGID_17_);}
	.st28{fill:url(#SVGID_18_);}
	.st29{fill:url(#SVGID_19_);}
	.st30{fill:url(#SVGID_20_);}
	.st31{fill:url(#SVGID_21_);}
	.st32{fill:#7D97F4;}
	.st33{fill:url(#SVGID_22_);}
	.st34{fill:url(#SVGID_23_);}
	.st35{fill:url(#SVGID_24_);}
	.st36{fill:url(#SVGID_25_);}
	.st37{fill:url(#SVGID_26_);}
	.st38{opacity:0.2;fill:url(#SVGID_27_);}
	.st39{fill:url(#SVGID_28_);}
	.st40{opacity:0.43;fill:url(#SVGID_29_);}
	.st41{opacity:0.43;fill:url(#SVGID_30_);}
	.st42{opacity:0.43;fill:url(#SVGID_31_);}
	.st43{opacity:0.43;fill:url(#SVGID_32_);}
	.st44{opacity:0.43;fill:url(#SVGID_33_);}
	.st45{fill:url(#SVGID_34_);}
	.st46{fill:url(#SVGID_35_);}
	.st47{fill:url(#SVGID_36_);}
	.st48{fill:url(#SVGID_37_);}
	.st49{fill:url(#SVGID_38_);}
	.st50{fill:url(#SVGID_39_);}
	.st51{fill:url(#SVGID_40_);}
	.st52{fill:url(#SVGID_41_);}
	.st53{fill:url(#SVGID_42_);}
	.st54{opacity:0.2;fill:url(#SVGID_43_);}
	.st55{fill:url(#SVGID_44_);}
	.st56{opacity:0.43;}
	.st57{fill:url(#SVGID_45_);}
	.st58{fill:url(#SVGID_46_);}
	.st59{fill:url(#SVGID_47_);}
	.st60{fill:url(#SVGID_48_);}
	.st61{fill:url(#SVGID_49_);}
	.st62{fill:url(#SVGID_50_);}
	.st63{fill:url(#SVGID_51_);}
	.st64{fill:url(#SVGID_52_);}
	.st65{opacity:0.2;fill:url(#SVGID_53_);}
	.st66{fill:url(#SVGID_54_);}
	.st67{fill:url(#SVGID_55_);}
	.st68{fill:url(#SVGID_56_);}
	.st69{fill:url(#SVGID_57_);}
	.st70{fill:url(#SVGID_58_);}
	.st71{fill:url(#SVGID_59_);}
	.st72{fill:url(#SVGID_60_);}
	.st73{fill:url(#SVGID_61_);}
	.st74{opacity:0.2;fill:url(#SVGID_62_);}
	.st75{fill:url(#SVGID_63_);}
	.st76{fill:url(#SVGID_64_);}
	.st77{fill:url(#SVGID_65_);}
	.st78{fill:url(#SVGID_66_);}
	.st79{fill:url(#SVGID_67_);}
	.st80{fill:url(#SVGID_68_);}
	.st81{opacity:0.12;fill:#FFFFFF;}
	.st82{fill:url(#SVGID_69_);}
	.st83{fill:#ECECEC;}
	.st84{fill:#007ADF;}
	.st85{fill:#0065C9;}
	.st86{fill:#0D6EB5;}
	.st87{fill:#00659D;}
	.st88{fill:#95D5FF;}
	.st89{fill:#FBEA0F;}
	.st90{fill:#5CA2FF;}
	.st91{fill:#FFC923;}
	.st92{fill:#4488D4;}
	.st93{fill:#8EC2FF;}
	.st94{fill:#FFF8B9;}
	.st95{fill:#E8AE17;}
	.st96{fill:#297FC4;}
	.st97{fill:#0066A2;}
</style>
<g id="Layer_2">
	<rect x="-0.6" y="-2.9" class="st0" width="1917.3" height="899.6"/>
</g>
<g id="Layer_4">
	<g class="st1">
		<linearGradient id="SVGID_1_" gradientUnits="userSpaceOnUse" x1="38.0041" y1="293.1413" x2="1273.1478" y2="293.1413">
			<stop  offset="0" style="stop-color:#DAE3FE"/>
			<stop  offset="1" style="stop-color:#E9EFFD"/>
		</linearGradient>
		<path class="st2" d="M1065.6,171.8c-69.9-36.4,48.8-142.6-53.4-209.4c-161.6-105.5-299,17.8-346.2,71.2
			c-87.3,98.7-102.4,203.8-344.6,47.7C79.3-74.8-10.4,203.9,62.8,280.1c73.2,76.3,36.4,77.7-9.4,210.3
			C7.6,623,186.6,716.8,342.2,634.3c155.5-82.5,134.1-91.1,340.2-4.8c206.1,86.3,355.3-17.3,485.4-110.8
			C1426.9,332.4,1135.4,208.2,1065.6,171.8z"/>
		<g>
			<g>
				<path class="st3" d="M1230.1,632.3c-0.3,0-0.5-0.1-0.7-0.3c-0.3-0.4-0.3-0.9,0.1-1.2c0.9-0.7,1.8-1.5,2.6-2.2
					c0.4-0.3,0.9-0.3,1.2,0.1c0.3,0.4,0.3,0.9-0.1,1.2c-0.9,0.8-1.8,1.5-2.7,2.3C1230.5,632.3,1230.3,632.3,1230.1,632.3z"/>
				<path class="st3" d="M1164.9,657c-0.5,0-0.9-0.4-0.9-0.8c0-0.5,0.4-0.9,0.8-0.9c2.2-0.1,4.5-0.2,6.7-0.4c0.5-0.1,0.9,0.3,1,0.8
					c0,0.5-0.3,0.9-0.8,1C1169.5,656.8,1167.2,657,1164.9,657C1164.9,657,1164.9,657,1164.9,657z M1153.9,656.9
					C1153.9,656.9,1153.9,656.9,1153.9,656.9c-2.3-0.2-4.6-0.4-6.8-0.7c-0.5-0.1-0.8-0.5-0.8-1c0.1-0.5,0.5-0.8,1-0.8
					c2.2,0.3,4.5,0.5,6.7,0.7c0.5,0,0.8,0.4,0.8,0.9C1154.7,656.5,1154.4,656.9,1153.9,656.9z M1182.5,655c-0.4,0-0.8-0.3-0.9-0.7
					c-0.1-0.5,0.2-0.9,0.7-1c2.2-0.4,4.4-1,6.5-1.5c0.5-0.1,0.9,0.2,1.1,0.6c0.1,0.5-0.2,0.9-0.6,1.1c-2.2,0.6-4.4,1.1-6.6,1.6
					C1182.6,655,1182.6,655,1182.5,655z M1136.4,654.2c-0.1,0-0.1,0-0.2,0c-2.2-0.5-4.4-1.1-6.6-1.8c-0.5-0.1-0.7-0.6-0.6-1.1
					c0.1-0.5,0.6-0.7,1.1-0.6c2.1,0.6,4.3,1.2,6.5,1.7c0.5,0.1,0.8,0.6,0.6,1C1137.1,653.9,1136.8,654.2,1136.4,654.2z
					 M1199.5,650.1c-0.4,0-0.7-0.2-0.8-0.6c-0.2-0.5,0.1-1,0.5-1.1l0.6-0.2c1.9-0.7,3.8-1.5,5.6-2.3c0.4-0.2,1,0,1.2,0.4
					c0.2,0.4,0,1-0.4,1.2c-1.9,0.8-3.8,1.6-5.7,2.4l-0.6,0.2C1199.8,650,1199.6,650.1,1199.5,650.1z M1119.5,648.7
					c-0.1,0-0.2,0-0.3-0.1c-2.1-0.9-4.2-1.8-6.2-2.8c-0.4-0.2-0.6-0.7-0.4-1.2c0.2-0.4,0.7-0.6,1.2-0.4c2,1,4,1.9,6.1,2.8
					c0.4,0.2,0.7,0.7,0.5,1.1C1120.2,648.5,1119.8,648.7,1119.5,648.7z M1215.6,642.5c-0.3,0-0.6-0.2-0.8-0.4
					c-0.2-0.4-0.1-1,0.3-1.2c1.9-1.1,3.8-2.3,5.7-3.5c0.4-0.3,0.9-0.2,1.2,0.2c0.3,0.4,0.2,0.9-0.2,1.2c-1.9,1.3-3.8,2.5-5.8,3.6
					C1215.9,642.4,1215.7,642.5,1215.6,642.5z M1103.7,640.6c-0.2,0-0.3,0-0.5-0.1c-1.9-1.2-3.8-2.5-5.7-3.8
					c-0.4-0.3-0.5-0.8-0.2-1.2c0.3-0.4,0.8-0.5,1.2-0.2c1.8,1.3,3.7,2.5,5.6,3.7c0.4,0.3,0.5,0.8,0.3,1.2
					C1104.3,640.4,1104,640.6,1103.7,640.6z M1089.5,630c-0.2,0-0.4-0.1-0.6-0.2c-1.7-1.5-3.4-3.1-5-4.7c-0.3-0.3-0.3-0.9,0-1.2
					c0.3-0.3,0.9-0.3,1.2,0c1.6,1.6,3.2,3.1,4.9,4.6c0.4,0.3,0.4,0.9,0.1,1.2C1090,629.9,1089.8,630,1089.5,630z M1077.3,617.2
					c-0.3,0-0.5-0.1-0.7-0.3c-1.4-1.8-2.8-3.6-4.1-5.4c-0.3-0.4-0.2-0.9,0.2-1.2c0.4-0.3,0.9-0.2,1.2,0.2c1.3,1.8,2.7,3.6,4.1,5.3
					c0.3,0.4,0.2,0.9-0.1,1.2C1077.6,617.1,1077.5,617.2,1077.3,617.2z M1067.2,602.6c-0.3,0-0.6-0.2-0.8-0.4c-1.1-2-2.2-4-3.2-6
					c-0.2-0.4,0-1,0.4-1.2c0.4-0.2,1,0,1.2,0.4c1,2,2,4,3.1,5.9c0.2,0.4,0.1,1-0.3,1.2C1067.5,602.5,1067.4,602.6,1067.2,602.6z
					 M1059.7,586.5c-0.4,0-0.7-0.2-0.8-0.6c-0.8-2.1-1.5-4.3-2.2-6.5c-0.1-0.5,0.1-0.9,0.6-1.1c0.5-0.1,0.9,0.1,1.1,0.6
					c0.6,2.1,1.4,4.3,2.1,6.4c0.2,0.5-0.1,1-0.5,1.1C1060,586.5,1059.8,586.5,1059.7,586.5z M1054.9,569.4c-0.4,0-0.8-0.3-0.9-0.7
					c-0.4-2.2-0.8-4.5-1.1-6.7c-0.1-0.5,0.3-0.9,0.8-1c0.5-0.1,0.9,0.3,1,0.8c0.3,2.2,0.7,4.4,1.1,6.6c0.1,0.5-0.2,0.9-0.7,1
					C1055.1,569.4,1055,569.4,1054.9,569.4z M1053,551.8c-0.5,0-0.9-0.4-0.9-0.8c0-1,0-2,0-2.9c0-1.3,0-2.6,0.1-3.9
					c0-0.5,0.4-0.8,0.9-0.8c0,0,0,0,0,0c0.5,0,0.9,0.4,0.8,0.9c0,1.3-0.1,2.5-0.1,3.8c0,1,0,1.9,0,2.9
					C1053.9,551.4,1053.5,551.8,1053,551.8C1053,551.8,1053,551.8,1053,551.8z"/>
				<path class="st3" d="M1054,534c0,0-0.1,0-0.1,0c-0.5-0.1-0.8-0.5-0.7-1c0.2-1.2,0.3-2.3,0.5-3.5c0.1-0.5,0.5-0.8,1-0.7
					c0.5,0.1,0.8,0.5,0.7,1c-0.2,1.1-0.4,2.3-0.5,3.4C1054.8,533.7,1054.4,534,1054,534z"/>
			</g>
			<g>
				<path class="st3" d="M1096.8,461.9c-0.3,0-0.5-0.1-0.7-0.4c-0.3-0.4-0.2-0.9,0.2-1.2c0.9-0.7,1.9-1.4,2.9-2
					c0.4-0.3,0.9-0.2,1.2,0.2c0.3,0.4,0.2,0.9-0.2,1.2c-1,0.7-1.9,1.3-2.8,2C1097.1,461.9,1096.9,461.9,1096.8,461.9z"/>
				<path class="st3" d="M1269.1,557.1C1269.1,557.1,1269.1,557.1,1269.1,557.1c-0.5,0-0.9-0.5-0.9-0.9c0.2-2.3,0.3-4.7,0.3-7.1
					c0-0.5,0.4-0.9,0.9-0.9c0,0,0,0,0,0c0.5,0,0.9,0.4,0.9,0.9c0,2.4-0.1,4.8-0.3,7.2C1270,556.7,1269.6,557.1,1269.1,557.1z
					 M1268.9,538.4c-0.4,0-0.8-0.3-0.9-0.8c-0.2-2.3-0.5-4.7-0.9-7c-0.1-0.5,0.2-0.9,0.7-1c0.5-0.1,0.9,0.2,1,0.7
					c0.4,2.4,0.7,4.8,0.9,7.1C1269.9,537.9,1269.5,538.3,1268.9,538.4C1269,538.4,1269,538.4,1268.9,538.4z M1265.5,520
					c-0.4,0-0.7-0.3-0.8-0.6c-0.6-2.3-1.3-4.5-2.1-6.8c-0.2-0.5,0.1-1,0.5-1.1c0.5-0.2,1,0.1,1.1,0.5c0.8,2.3,1.5,4.6,2.2,6.9
					c0.1,0.5-0.1,0.9-0.6,1.1C1265.6,519.9,1265.6,520,1265.5,520z M1258.9,502.4c-0.3,0-0.6-0.2-0.8-0.5c-1-2.1-2.1-4.2-3.2-6.3
					c-0.2-0.4-0.1-1,0.3-1.2c0.4-0.2,1-0.1,1.2,0.3c1.2,2.1,2.3,4.2,3.3,6.4c0.2,0.4,0,1-0.4,1.2
					C1259.2,502.4,1259.1,502.4,1258.9,502.4z M1249.5,486.2c-0.3,0-0.5-0.1-0.7-0.4c-1.4-1.9-2.8-3.8-4.3-5.6
					c-0.3-0.4-0.2-0.9,0.1-1.2c0.4-0.3,0.9-0.2,1.2,0.1c1.5,1.9,3,3.8,4.4,5.7c0.3,0.4,0.2,0.9-0.2,1.2
					C1249.8,486.2,1249.7,486.2,1249.5,486.2z M1237.4,472c-0.2,0-0.4-0.1-0.6-0.3c-1.7-1.7-3.4-3.3-5.2-4.8
					c-0.4-0.3-0.4-0.9-0.1-1.2c0.3-0.4,0.9-0.4,1.2-0.1c1.8,1.6,3.6,3.2,5.3,4.9c0.3,0.3,0.3,0.9,0,1.2
					C1237.8,471.9,1237.6,472,1237.4,472z M1223,460c-0.2,0-0.3-0.1-0.5-0.2c-1.9-1.3-3.9-2.6-6-3.8c-0.4-0.2-0.5-0.8-0.3-1.2
					c0.2-0.4,0.8-0.5,1.2-0.3c2,1.2,4.1,2.5,6,3.9c0.4,0.3,0.5,0.8,0.2,1.2C1223.5,459.9,1223.3,460,1223,460z M1109.5,453.8
					c-0.3,0-0.6-0.2-0.8-0.5c-0.2-0.4-0.1-1,0.4-1.2c2.1-1.1,4.3-2.2,6.4-3.2c0.4-0.2,1,0,1.2,0.4c0.2,0.4,0,1-0.4,1.2
					c-2.1,1-4.3,2.1-6.3,3.2C1109.8,453.8,1109.6,453.8,1109.5,453.8z M1206.7,450.7c-0.1,0-0.2,0-0.4-0.1c-2.1-1-4.3-1.9-6.5-2.8
					c-0.4-0.2-0.7-0.7-0.5-1.1c0.2-0.4,0.7-0.7,1.1-0.5c2.2,0.9,4.5,1.8,6.6,2.8c0.4,0.2,0.6,0.7,0.4,1.2
					C1207.4,450.5,1207.1,450.7,1206.7,450.7z M1126.6,446.3c-0.4,0-0.7-0.2-0.8-0.6c-0.2-0.5,0.1-1,0.5-1.1
					c2.3-0.8,4.6-1.5,6.9-2.1c0.5-0.1,0.9,0.2,1.1,0.6c0.1,0.5-0.2,0.9-0.6,1.1c-2.3,0.6-4.6,1.3-6.8,2
					C1126.8,446.3,1126.7,446.3,1126.6,446.3z M1189.1,444.3c-0.1,0-0.2,0-0.2,0c-2.3-0.6-4.6-1.1-6.9-1.6c-0.5-0.1-0.8-0.6-0.7-1
					c0.1-0.5,0.6-0.8,1-0.7c2.3,0.5,4.7,1,7,1.6c0.5,0.1,0.7,0.6,0.6,1.1C1189.9,444.1,1189.5,444.3,1189.1,444.3z M1144.8,441.9
					c-0.4,0-0.8-0.3-0.9-0.7c-0.1-0.5,0.3-0.9,0.7-1c2.4-0.4,4.8-0.7,7.2-0.9c0.5-0.1,0.9,0.3,0.9,0.8c0,0.5-0.3,0.9-0.8,0.9
					c-2.3,0.2-4.7,0.5-7,0.8C1144.9,441.9,1144.9,441.9,1144.8,441.9z M1170.7,441C1170.6,441,1170.6,441,1170.7,441
					c-2.4-0.2-4.8-0.3-7.2-0.4c-0.5,0-0.9-0.4-0.9-0.9c0-0.5,0.4-0.8,0.9-0.9c2.4,0.1,4.8,0.2,7.2,0.4c0.5,0,0.8,0.5,0.8,0.9
					C1171.5,440.7,1171.1,441,1170.7,441z"/>
				<path class="st3" d="M1266.9,572.1c-0.1,0-0.1,0-0.2,0c-0.5-0.1-0.8-0.6-0.7-1c0.2-1.1,0.5-2.3,0.7-3.4c0.1-0.5,0.5-0.8,1-0.7
					c0.5,0.1,0.8,0.5,0.7,1c-0.2,1.2-0.4,2.3-0.7,3.4C1267.7,571.8,1267.3,572.1,1266.9,572.1z"/>
			</g>
			<g>
				<g>
					<path class="st4" d="M1239.5,575.9c0.2-0.5,0.1-1.1-0.3-1.5l-11.2-11.1c1.6-7.2,2.1-14.7,1.3-22.3l12.4-9.8
						c0.4-0.3,0.6-0.9,0.4-1.4l-6.3-17.9c-0.2-0.5-0.7-0.9-1.2-0.9l-15.8,0.1c-4.1-6.4-9.1-12-14.9-16.6l1.8-15.7
						c0.1-0.6-0.2-1.1-0.7-1.3l-17.1-8.2c-0.5-0.2-1.1-0.1-1.5,0.3l-11.1,11.2c-7.2-1.6-14.7-2.1-22.3-1.3l-9.8-12.4
						c-0.3-0.4-0.9-0.6-1.4-0.4l-17.9,6.3c-0.5,0.2-0.9,0.7-0.9,1.2l0.1,15.8c-6.4,4.1-12,9.1-16.6,14.9l-15.7-1.8
						c-0.5-0.1-1.1,0.2-1.3,0.7l-8.2,17.1c-0.2,0.5-0.1,1.1,0.3,1.5l11.2,11.1c-1.6,7.2-2.1,14.7-1.3,22.3l-12.4,9.8
						c-0.4,0.3-0.6,0.9-0.4,1.4l6.3,17.9c0.2,0.5,0.7,0.9,1.2,0.9l15.8-0.1c4.1,6.4,9.1,12,14.9,16.6l-1.8,15.7
						c-0.1,0.6,0.2,1.1,0.7,1.3l17.1,8.2c0.5,0.2,1.1,0.1,1.5-0.3l11.1-11.2c7.2,1.6,14.7,2.1,22.3,1.3l9.8,12.4
						c0.3,0.4,0.9,0.6,1.4,0.4l17.9-6.3c0.5-0.2,0.9-0.7,0.9-1.2l-0.1-15.8c6.4-4.1,12-9.1,16.6-14.9l15.7,1.8
						c0.6,0.1,1.1-0.2,1.3-0.7L1239.5,575.9z"/>
				</g>
				<g>
					<path class="st3" d="M1160.4,566c-5.8,0-11.4-2.8-14.8-7.9c-2.6-3.9-3.5-8.7-2.6-13.3c0.9-4.6,3.6-8.6,7.6-11.2
						c3.9-2.6,8.7-3.5,13.3-2.6c4.6,0.9,8.6,3.6,11.2,7.6c5.4,8.1,3.1,19.2-5,24.5C1167.2,565,1163.8,566,1160.4,566z M1160.4,532.3
						c-3.1,0-6.1,0.9-8.8,2.6c-3.6,2.3-6,5.9-6.8,10.1c-0.9,4.2,0,8.4,2.3,12c4.8,7.3,14.8,9.4,22.1,4.5c7.3-4.8,9.4-14.8,4.5-22.1
						c-2.3-3.6-5.9-6-10.1-6.8C1162.5,532.4,1161.4,532.3,1160.4,532.3z"/>
				</g>
				<path class="st3" d="M1160.1,594.8c-19.3,0-37.4-12.1-44.1-31.3c-1.8-5.1-2.6-10.2-2.6-15.3c0-19.3,12.1-37.3,31.3-44.1
					c11.8-4.1,24.4-3.4,35.6,2c11.2,5.4,19.7,14.9,23.8,26.6c1,2.9,1.7,5.8,2.2,8.8c0,0.3,0.1,0.6,0.1,0.8c0,0,0,0.1,0,0.1
					c0,0.4-0.3,0.8-0.8,0.9c-0.5,0.1-0.9-0.3-1-0.8c-0.4-3.2-1.1-6.3-2.2-9.3c-4-11.3-12.1-20.4-22.9-25.6
					c-10.8-5.2-23-5.9-34.3-1.9c-18.5,6.5-30.1,23.9-30.1,42.4c0,4.9,0.8,9.9,2.5,14.8c8.2,23.4,33.8,35.7,57.2,27.6
					c7.7-2.7,14.5-7.4,19.7-13.6c0.3-0.4,0.9-0.4,1.2-0.1c0.2,0.2,0.3,0.4,0.3,0.7c0,0.2-0.1,0.4-0.2,0.6
					c-5.4,6.5-12.4,11.3-20.4,14.1C1170.3,593.9,1165.2,594.8,1160.1,594.8z"/>
			</g>
		</g>
		<g>
			<path class="st4" d="M-21.7,423c-2-1.7-0.6-4.9,2-4.7c26.1,2.2,95.5,15.7,144.9,96.4c62,101.2,107.9,119.6,148.2,121.2
				c0,0-40.5,16.4-88.3-1.3C67.6,590.9,13.4,452.5-21.7,423z"/>
			<path class="st5" d="M13.3,441.6c5.1,2.4,9.7,5.4,14.3,8.6l1.7,1.2l1.7,1.2l3.4,2.5c2.2,1.7,4.4,3.4,6.5,5.1
				c8.6,7,16.6,14.7,24.2,22.8c7.8,7.9,14.8,16.5,21.8,25.1l5,6.6l2.5,3.3l1.3,1.7l1.2,1.7l9.6,13.5c12.5,18,26.8,34.6,42.5,49.8
				c7.8,7.6,16,14.9,24.5,21.8c2.1,1.7,4.3,3.4,6.4,5.1c2.2,1.7,4.3,3.3,6.5,5c2.2,1.6,4.4,3.2,6.6,4.8c2.2,1.6,4.5,3.1,6.7,4.5
				l0.1,0c1.2,0.8,1.5,2.4,0.8,3.6c-0.8,1.2-2.3,1.5-3.5,0.8c-4.8-3-9.4-6.1-13.9-9.4c-2.2-1.6-4.5-3.3-6.7-5
				c-2.2-1.7-4.4-3.4-6.6-5.1c-8.7-7-17-14.4-24.9-22.1c-4-3.8-7.9-7.9-11.7-11.9c-1.9-2-3.7-4.1-5.6-6.2l-2.8-3.1
				c-0.9-1-1.8-2.1-2.7-3.2l-5.3-6.4c-1.8-2.2-3.4-4.4-5.1-6.6l-2.5-3.3c-0.4-0.6-0.9-1.1-1.3-1.7l-1.2-1.7l-4.8-6.8
				c-1.6-2.3-3.1-4.5-4.7-6.8l-4.6-6.8l-1.2-1.7l-1.2-1.7l-2.4-3.3l-4.9-6.6l-5.1-6.5c-1.7-2.1-3.4-4.3-5.1-6.4l-5.3-6.3
				c-0.9-1.1-1.8-2.1-2.7-3.1l-2.7-3.1c-7.3-8.1-15-16-23.3-23.2c-2.1-1.8-4.2-3.6-6.2-5.3l-3.2-2.6l-1.6-1.3l-1.6-1.2
				c-1.1-0.8-2.2-1.7-3.3-2.4l-3.4-2.3c-2.3-1.5-4.6-3-7-4.3l0,0c-0.3-0.2-0.5-0.6-0.3-0.9C12.5,441.6,12.9,441.4,13.3,441.6z"/>
		</g>
		<g>
			<path class="st3" d="M51,332.8c11.2,40,85.6,284.5,241.6,307.2c4.7,0.7,8.5-3.9,7-8.4C290,602.8,254.1,513.4,158.9,430
				c-68.6-60.2-96.5-88.6-105.6-98.5C52.3,330.5,50.6,331.5,51,332.8z"/>
			<path class="st5" d="M299.7,633.1c-0.3,0-0.7-0.1-1-0.3C240,585.6,189.4,528.2,157.2,488.4c-34.5-42.8-57.5-77.5-57.7-80
				c-0.1-0.8,0.5-1.5,1.3-1.6c0.8-0.1,1.4,0.4,1.6,1.2c2,5.3,86.6,132.9,198.1,222.5c0.6,0.5,0.7,1.5,0.2,2.1
				C300.5,632.9,300.1,633.1,299.7,633.1z M102.5,408.1C102.5,408.1,102.5,408.1,102.5,408.1C102.5,408.1,102.5,408.1,102.5,408.1z"
				/>
		</g>
		<g>
			<path class="st3" d="M987,237.7c0,0,70.2-10.4,107.9-86.8c36.7-74.3,69.9-183.8,167.4-189.3c3.3-0.2,5.2,3.6,3.1,6.2
				c-12.4,14.9-43.1,54.5-60.9,101.4C1181.7,129,1097.1,261.3,987,237.7z"/>
			<path class="st5" d="M1235.6-12.7l-0.2,0.1l-0.3,0.1c-0.2,0.1-0.4,0.1-0.5,0.2c-0.4,0.1-0.7,0.3-1.1,0.5c-0.7,0.3-1.5,0.7-2.2,1
				c-1.5,0.7-2.9,1.5-4.3,2.3c-2.9,1.6-5.6,3.4-8.3,5.3c-2.7,1.9-5.3,4-7.7,6.1c-2.5,2.1-4.9,4.4-7.2,6.8
				c-9.2,9.5-16.8,20.5-22.8,32.3c-3,5.9-5.6,12-7.9,18.3l-1.7,4.7l-1.5,4.8l-1.5,4.8c-0.5,1.6-1,3.2-1.6,4.8
				c-4.3,12.9-9.5,25.4-15.4,37.5l-2.3,4.5l-2.3,4.5c-0.8,1.5-1.6,3-2.4,4.5c-0.8,1.5-1.6,3-2.5,4.4c-3.3,5.9-6.9,11.6-10.6,17.3
				c-3.7,5.6-7.7,11.1-11.8,16.5c-4.1,5.3-8.4,10.5-12.9,15.6c-4.5,5-9.2,9.9-14.1,14.5c-4.9,4.6-10.1,9-15.4,13.1
				c-5.3,4.1-10.9,7.9-16.7,11.3c-5.8,3.4-11.8,6.5-18,9.1c6.1-2.7,12.1-6,17.8-9.5c5.7-3.6,11.2-7.5,16.4-11.7
				c5.2-4.2,10.2-8.7,15-13.4c4.8-4.7,9.4-9.6,13.7-14.7c4.4-5.1,8.5-10.3,12.5-15.7c4-5.4,7.8-10.9,11.4-16.6
				c3.6-5.7,7-11.4,10.3-17.3c0.8-1.5,1.6-2.9,2.4-4.4c0.8-1.5,1.6-3,2.3-4.5l2.3-4.5l2.2-4.5c5.7-12.1,10.6-24.6,14.7-37.3
				c0.5-1.6,1-3.2,1.5-4.8c0.5-1.6,0.9-3.2,1.4-4.8l1.5-4.9l1.7-4.8c2.3-6.4,4.9-12.7,8-18.8c3.1-6.1,6.5-12,10.4-17.6
				c3.9-5.6,8.3-10.9,13-15.8c4.8-4.9,10-9.4,15.6-13.4c2.8-2,5.7-3.8,8.7-5.5c0.7-0.4,1.5-0.8,2.3-1.2c0.8-0.4,1.5-0.8,2.3-1.1
				c0.8-0.4,1.6-0.7,2.4-1c0.4-0.2,0.8-0.3,1.2-0.5c0.2-0.1,0.4-0.2,0.6-0.2l0.3-0.1l0.4-0.1c1.1-0.3,2.2,0.3,2.5,1.3
				c0.3,1-0.3,2.1-1.3,2.5L1235.6-12.7z"/>
		</g>
		<g>
			<path class="st4" d="M1261.5,139.7c1.7-1,1.1-3.6-0.9-3.8c-20.2-1.8-74.8-0.7-123.2,54.1c-60.7,68.8-98.1,76.8-129,72.6
				c0,0,28.7,17.9,67.5,10.7C1171.1,255.7,1230.8,157.5,1261.5,139.7z"/>
			<path class="st5" d="M1232.7,150.2c-2,0.6-3.9,1.5-5.9,2.3l-2.9,1.3c-1,0.5-1.9,0.9-2.8,1.4l-1.4,0.7l-1.4,0.8l-2.8,1.5
				c-1.8,1.1-3.7,2.1-5.5,3.2c-7.2,4.4-14.1,9.4-20.8,14.6l-2.5,2c-0.8,0.7-1.7,1.3-2.5,2l-4.9,4.1c-1.6,1.3-3.2,2.8-4.8,4.2
				l-4.7,4.3l-4.6,4.4l-2.3,2.2l-1.1,1.1l-1.1,1.1l-4.4,4.6c-1.5,1.5-2.9,3-4.5,4.6l-4.5,4.6l-1.1,1.1c-0.4,0.4-0.8,0.7-1.2,1.1
				l-2.4,2.2c-1.6,1.4-3.1,2.9-4.8,4.4l-4.9,4.2c-0.8,0.7-1.6,1.4-2.5,2.1l-2.5,2c-1.7,1.3-3.4,2.7-5.1,4c-3.5,2.5-6.9,5.1-10.5,7.5
				c-7.1,4.8-14.4,9.4-21.9,13.5c-1.9,1-3.8,2-5.7,3c-1.9,1-3.8,1.9-5.8,2.9c-3.9,1.9-7.8,3.7-11.8,5.3c-1,0.4-2.2-0.1-2.6-1.1
				c-0.4-1,0.1-2.1,1.1-2.6l0.1,0c1.9-0.8,3.8-1.7,5.7-2.6c1.9-0.9,3.8-1.8,5.7-2.8c1.9-1,3.8-1.9,5.6-2.9c1.9-1,3.7-2,5.6-3.1
				c7.4-4.1,14.6-8.6,21.6-13.4c14-9.5,27.1-20.3,39-32.3l9.1-9l1.1-1.1l1.2-1.1l2.4-2.2l4.7-4.4c6.5-5.6,13-11.2,19.9-16.3
				c6.9-5.1,14-9.9,21.5-14.1c1.9-1,3.8-2,5.7-3l2.9-1.4l1.4-0.7l1.5-0.7c3.9-1.8,7.9-3.4,12-4.6c0.3-0.1,0.6,0.1,0.7,0.4
				C1233.1,149.8,1233,150.1,1232.7,150.2L1232.7,150.2z"/>
		</g>
		<g>
			<g>
				<linearGradient id="SVGID_2_" gradientUnits="userSpaceOnUse" x1="621.2742" y1="675.3309" x2="642.318" y2="37.0065">
					<stop  offset="0" style="stop-color:#09005D"/>
					<stop  offset="1" style="stop-color:#1A0F91"/>
				</linearGradient>
				<path class="st6" d="M1031,609.2c0,7.8-6.4,14.2-14.2,14.2h-766c-7.8,0-14.2-6.4-14.2-14.2L230.4,169c0-7.8,9.2-23,26-21.8
					l748.6-19.4c9.8-0.3,19.2,3.5,26.1,10.4c6.9,6.9,10.7,16.3,10.5,26.1L1031,609.2z"/>
				<linearGradient id="SVGID_3_" gradientUnits="userSpaceOnUse" x1="967.3421" y1="11.0876" x2="-30.5069" y2="1150.8009">
					<stop  offset="0" style="stop-color:#FE7062"/>
					<stop  offset="1" style="stop-color:#FF928E"/>
				</linearGradient>
				<path class="st7" d="M1017.1,595.6c0,7.4-6,13.4-13.4,13.4H269.4c-7.4,0-13.4-6-13.4-13.4L250,196c0.7-24,21.8-32.7,34.6-32.2
					c0,0,585.1-15.7,717.4-19.2c6.9-0.2,13.5,2.5,18.4,7.3c4.9,4.9,7.5,11.5,7.4,18.4L1017.1,595.6z"/>
				<g>
					<path class="st8" d="M263.9,404.8c-0.6,0-1-0.4-1-1l-0.5-32.4c0-0.6,0.4-1,1-1c0,0,0,0,0,0c0.6,0,1,0.4,1,1l0.5,32.4
						C264.9,404.4,264.5,404.8,263.9,404.8C263.9,404.8,263.9,404.8,263.9,404.8z"/>
					<path class="st9" d="M262.8,325.4c-0.6,0-1-0.4-1-1l-1.8-124.1c0-8.3,2.6-14.9,7.6-19.6c9.1-8.7,23.3-8.3,23.9-8.2l229.1-6.1
						c0.6,0,1,0.4,1,1c0,0.6-0.4,1-1,1l-229.2,6.1c-0.6,0-14-0.4-22.5,7.7c-4.6,4.4-6.9,10.5-6.9,18.2l1.8,124.1
						C263.8,324.9,263.3,325.4,262.8,325.4C262.8,325.4,262.8,325.4,262.8,325.4z"/>
				</g>
				<path class="st8" d="M288.3,573.4c0.8-33,0.5-325.5-1.4-350.7c-1.9-25.3,37.4-30,97.8-32.8c60.4-2.8,570-14.1,583.1-15.2
					c29.5-2.4,35.6,41.7,32.6,137.4c-2.2,71.9-5.9,190.3-7.6,244.8c-0.5,16.2-13.8,29.1-30,29.1c-122.6,0.3-592.6,1.7-623.9,2.6
					C303,589.7,288,586.5,288.3,573.4z"/>
			</g>
			<linearGradient id="SVGID_4_" gradientUnits="userSpaceOnUse" x1="641.6603" y1="195.0736" x2="641.6603" y2="620.6223">
				<stop  offset="0" style="stop-color:#09005D"/>
				<stop  offset="1" style="stop-color:#1A0F91"/>
			</linearGradient>
			<path class="st10" d="M1082.9,659.9H200.4c-5.6,0-10.3-4.6-10.3-10.3v-18.1c0-5.6,4.6-10.3,10.3-10.3h882.5
				c5.6,0,10.3,4.6,10.3,10.3v18.1C1093.2,655.3,1088.6,659.9,1082.9,659.9z"/>
		</g>
		<g>
			<g>
				<linearGradient id="SVGID_5_" gradientUnits="userSpaceOnUse" x1="386.2186" y1="-186.0349" x2="-46.9969" y2="840.6495">
					<stop  offset="0" style="stop-color:#4042E2"/>
					<stop  offset="1" style="stop-color:#4F52FF"/>
				</linearGradient>
				<path class="st11" d="M389.3,291.8H131.2c-24,0-43.4-19.4-43.4-43.4V-23.3c0-24,19.4-43.4,43.4-43.4h258.1
					c24,0,43.4,19.4,43.4,43.4v271.7C432.7,272.4,413.2,291.8,389.3,291.8z"/>
				<path class="st4" d="M390.8,282.3H130.2c-14.3,0-25.8-11.6-25.8-25.8V-30.3c0-14.3,11.6-25.8,25.8-25.8h260.6
					c14.3,0,25.8,11.6,25.8,25.8v286.8C416.6,270.8,405.1,282.3,390.8,282.3z"/>
			</g>
			<linearGradient id="SVGID_6_" gradientUnits="userSpaceOnUse" x1="114.8937" y1="-35.9086" x2="320.9519" y2="-35.9086">
				<stop  offset="0" style="stop-color:#DAE3FE"/>
				<stop  offset="1" style="stop-color:#E9EFFD"/>
			</linearGradient>
			<path class="st12" d="M310.2-25.2H125.6c-5.9,0-10.7-4.8-10.7-10.7v0c0-5.9,4.8-10.7,10.7-10.7h184.6c5.9,0,10.7,4.8,10.7,10.7v0
				C321-30,316.1-25.2,310.2-25.2z"/>
			<g>
				<linearGradient id="SVGID_7_" gradientUnits="userSpaceOnUse" x1="331.1104" y1="-35.6141" x2="348.6901" y2="-35.6141">
					<stop  offset="0" style="stop-color:#DAE3FE"/>
					<stop  offset="1" style="stop-color:#E9EFFD"/>
				</linearGradient>
				<path class="st13" d="M339.9-27.3c-4.8,0-8.8-3.7-8.8-8.3s3.9-8.3,8.8-8.3c4.8,0,8.8,3.7,8.8,8.3S344.7-27.3,339.9-27.3z
					 M339.9-41.6c-3.6,0-6.5,2.7-6.5,6s2.9,6,6.5,6c3.6,0,6.5-2.7,6.5-6S343.5-41.6,339.9-41.6z"/>
				<linearGradient id="SVGID_8_" gradientUnits="userSpaceOnUse" x1="360.8607" y1="-35.6141" x2="378.4402" y2="-35.6141">
					<stop  offset="0" style="stop-color:#DAE3FE"/>
					<stop  offset="1" style="stop-color:#E9EFFD"/>
				</linearGradient>
				<path class="st14" d="M369.7-27.3c-4.8,0-8.8-3.7-8.8-8.3s3.9-8.3,8.8-8.3c4.8,0,8.8,3.7,8.8,8.3S374.5-27.3,369.7-27.3z
					 M369.7-41.6c-3.6,0-6.5,2.7-6.5,6s2.9,6,6.5,6s6.5-2.7,6.5-6S373.2-41.6,369.7-41.6z"/>
				<linearGradient id="SVGID_9_" gradientUnits="userSpaceOnUse" x1="390.6108" y1="-35.6141" x2="408.1904" y2="-35.6141">
					<stop  offset="0" style="stop-color:#DAE3FE"/>
					<stop  offset="1" style="stop-color:#E9EFFD"/>
				</linearGradient>
				<path class="st15" d="M399.4-27.3c-4.8,0-8.8-3.7-8.8-8.3s3.9-8.3,8.8-8.3c4.8,0,8.8,3.7,8.8,8.3S404.2-27.3,399.4-27.3z
					 M399.4-41.6c-3.6,0-6.5,2.7-6.5,6s2.9,6,6.5,6c3.6,0,6.5-2.7,6.5-6S403-41.6,399.4-41.6z"/>
			</g>
			<path class="st16" d="M309.5-31.2H126.6c-2.5,0-4.5-2-4.5-4.5c0-2.5,2-4.5,4.5-4.5h182.9c2.5,0,4.5,2,4.5,4.5
				C314-33.2,312-31.2,309.5-31.2z"/>
			<g>
				<linearGradient id="SVGID_10_" gradientUnits="userSpaceOnUse" x1="149.3908" y1="-94.8671" x2="93.5709" y2="41.042">
					<stop  offset="0" style="stop-color:#4042E2"/>
					<stop  offset="1" style="stop-color:#4F52FF"/>
				</linearGradient>
				<path class="st17" d="M125.7-24.6L105-3.5c-0.9,0.9-0.8,2.3,0.1,3.1l0.2,0.1c0.8,0.7,2.1,0.6,2.8-0.3L127-23.4L125.7-24.6z"/>
				
					<linearGradient id="SVGID_11_" gradientUnits="userSpaceOnUse" x1="1608.1058" y1="739.2323" x2="1635.4723" y2="739.2323" gradientTransform="matrix(0.9025 -0.4307 0.4307 0.9025 -1647.4766 -4.1752)">
					<stop  offset="0" style="stop-color:#53D8FF"/>
					<stop  offset="1" style="stop-color:#3840F7"/>
				</linearGradient>
				<path class="st18" d="M146.9-41.4c3.2,6.7,0.3,14.8-6.6,18c-6.8,3.3-14.9,0.5-18.1-6.2c-3.2-6.7-0.3-14.8,6.6-18
					C135.6-50.9,143.7-48.1,146.9-41.4z"/>
				<linearGradient id="SVGID_12_" gradientUnits="userSpaceOnUse" x1="157.5695" y1="-91.508" x2="101.7496" y2="44.401">
					<stop  offset="0" style="stop-color:#4042E2"/>
					<stop  offset="1" style="stop-color:#4F52FF"/>
				</linearGradient>
				<path class="st19" d="M128.1-49c-7.6,3.6-10.9,12.6-7.3,20.1c3.6,7.5,12.6,10.6,20.2,6.9c7.6-3.6,10.9-12.6,7.3-20.1
					C144.8-49.5,135.7-52.6,128.1-49z M140.1-24c-6.5,3.1-14.2,0.4-17.2-5.9c-3-6.4-0.2-14,6.2-17.1c6.5-3.1,14.2-0.4,17.2,5.9
					C149.3-34.8,146.5-27.1,140.1-24z"/>
			</g>
			<linearGradient id="SVGID_13_" gradientUnits="userSpaceOnUse" x1="128.8686" y1="25.9102" x2="393.3585" y2="25.9102">
				<stop  offset="0" style="stop-color:#4042E2"/>
				<stop  offset="1" style="stop-color:#4F52FF"/>
			</linearGradient>
			<path class="st20" d="M388.1,31.2H134.1c-2.9,0-5.3-2.4-5.3-5.3c0-2.9,2.4-5.3,5.3-5.3h253.9c2.9,0,5.3,2.4,5.3,5.3
				S391,31.2,388.1,31.2z"/>
			<linearGradient id="SVGID_14_" gradientUnits="userSpaceOnUse" x1="165.6945" y1="5.0669" x2="352.9703" y2="5.0669">
				<stop  offset="0" style="stop-color:#4042E2"/>
				<stop  offset="1" style="stop-color:#4F52FF"/>
			</linearGradient>
			<path class="st21" d="M347.7,10.3H171c-2.9,0-5.3-2.4-5.3-5.3s2.4-5.3,5.3-5.3h176.7c2.9,0,5.3,2.4,5.3,5.3
				S350.6,10.3,347.7,10.3z"/>
			<g>
				<path class="st3" d="M373.7,260.2h-224c-8.3,0-15-6.7-15-15v-182c0-8.3,6.7-15,15-15h224c8.3,0,15,6.7,15,15v182
					C388.6,253.5,381.9,260.2,373.7,260.2z"/>
				<g>
					<path class="st22" d="M366.1,68.7H156.6c-2.9,0-5.3-2.4-5.3-5.3c0-2.9,2.4-5.3,5.3-5.3h209.5c2.9,0,5.3,2.4,5.3,5.3
						C371.4,66.4,369,68.7,366.1,68.7z"/>
					<path class="st22" d="M365.9,88.9H156.4c-2.9,0-5.3-2.4-5.3-5.3c0-2.9,2.4-5.3,5.3-5.3h209.5c2.9,0,5.3,2.4,5.3,5.3
						C371.2,86.5,368.8,88.9,365.9,88.9z"/>
					<path class="st22" d="M366.5,110.3H157c-2.9,0-5.3-2.4-5.3-5.3c0-2.9,2.4-5.3,5.3-5.3h209.5c2.9,0,5.3,2.4,5.3,5.3
						C371.8,107.9,369.4,110.3,366.5,110.3z"/>
					<path class="st22" d="M366.3,130.4H156.8c-2.9,0-5.3-2.4-5.3-5.3s2.4-5.3,5.3-5.3h209.5c2.9,0,5.3,2.4,5.3,5.3
						S369.2,130.4,366.3,130.4z"/>
					<path class="st22" d="M366,148.9H156.5c-2.9,0-5.3-2.4-5.3-5.3s2.4-5.3,5.3-5.3H366c2.9,0,5.3,2.4,5.3,5.3
						S368.9,148.9,366,148.9z"/>
					<path class="st22" d="M365.8,169H156.3c-2.9,0-5.3-2.4-5.3-5.3s2.4-5.3,5.3-5.3h209.5c2.9,0,5.3,2.4,5.3,5.3
						C371.1,166.7,368.7,169,365.8,169z"/>
					<path class="st22" d="M366.4,190.4H156.9c-2.9,0-5.3-2.4-5.3-5.3c0-2.9,2.4-5.3,5.3-5.3h209.5c2.9,0,5.3,2.4,5.3,5.3
						C371.7,188.1,369.3,190.4,366.4,190.4z"/>
					<path class="st22" d="M366.2,210.6H156.7c-2.9,0-5.3-2.4-5.3-5.3s2.4-5.3,5.3-5.3h209.5c2.9,0,5.3,2.4,5.3,5.3
						S369.1,210.6,366.2,210.6z"/>
					<path class="st22" d="M365.8,229.6H156.3c-2.9,0-5.3-2.4-5.3-5.3s2.4-5.3,5.3-5.3h209.5c2.9,0,5.3,2.4,5.3,5.3
						S368.7,229.6,365.8,229.6z"/>
					<path class="st22" d="M366.4,251H156.9c-2.9,0-5.3-2.4-5.3-5.3c0-2.9,2.4-5.3,5.3-5.3h209.5c2.9,0,5.3,2.4,5.3,5.3
						C371.7,248.7,369.3,251,366.4,251z"/>
				</g>
			</g>
		</g>
		<g>
			<g>
				<path class="st23" d="M1023.1,203.1c-0.8,0-1.4-0.6-1.4-1.4c0-0.8,0.6-1.4,1.4-1.5c1.3,0,2.7,0,4-0.1c0.8,0,1.5,0.6,1.5,1.4
					c0,0.8-0.6,1.5-1.4,1.5C1025.8,203,1024.4,203,1023.1,203.1C1023.1,203.1,1023.1,203.1,1023.1,203.1z M1019.1,203
					C1019,203,1019,203,1019.1,203c-1.4,0-2.8-0.1-4.1-0.1c-0.8,0-1.4-0.7-1.4-1.5c0-0.8,0.7-1.4,1.5-1.4c1.3,0.1,2.7,0.1,4,0.1
					c0.8,0,1.4,0.7,1.4,1.5C1020.5,202.4,1019.8,203,1019.1,203z M1031.1,202.8c-0.8,0-1.4-0.6-1.4-1.3c-0.1-0.8,0.6-1.5,1.3-1.5
					c1.3-0.1,2.7-0.2,4-0.3c0.8-0.1,1.5,0.5,1.6,1.3c0.1,0.8-0.5,1.5-1.3,1.6C1033.9,202.6,1032.6,202.7,1031.1,202.8
					C1031.2,202.8,1031.2,202.8,1031.1,202.8z M1011,202.7c0,0-0.1,0-0.1,0c-1.4-0.1-2.7-0.2-4.1-0.3c-0.8-0.1-1.4-0.8-1.3-1.6
					c0.1-0.8,0.8-1.4,1.6-1.3c1.3,0.1,2.6,0.2,4,0.3c0.8,0.1,1.4,0.7,1.3,1.5C1012.4,202.1,1011.8,202.7,1011,202.7z M1039.2,202
					c-0.7,0-1.3-0.5-1.4-1.3c-0.1-0.8,0.5-1.5,1.3-1.6c1.3-0.2,2.7-0.3,4-0.5c0.8-0.1,1.5,0.4,1.6,1.2c0.1,0.8-0.4,1.5-1.2,1.6
					c-1.3,0.2-2.7,0.4-4,0.5C1039.3,202,1039.2,202,1039.2,202z M1003,201.9c-0.1,0-0.1,0-0.2,0c-1.3-0.2-2.7-0.4-4-0.6
					c-0.8-0.1-1.3-0.9-1.2-1.6c0.1-0.8,0.9-1.3,1.6-1.2c1.3,0.2,2.6,0.4,3.9,0.6c0.8,0.1,1.3,0.8,1.2,1.6
					C1004.3,201.4,1003.7,201.9,1003,201.9z M1047.1,200.9c-0.7,0-1.3-0.5-1.4-1.2c-0.1-0.8,0.4-1.5,1.2-1.7
					c1.3-0.2,2.6-0.5,3.9-0.7c0.8-0.2,1.5,0.3,1.7,1.1c0.2,0.8-0.3,1.5-1.1,1.7c-1.3,0.3-2.7,0.5-4,0.8
					C1047.3,200.9,1047.2,200.9,1047.1,200.9z M995,200.7c-0.1,0-0.2,0-0.3,0c-1.3-0.2-2.7-0.5-4-0.8c-0.8-0.2-1.3-0.9-1.1-1.7
					c0.2-0.8,0.9-1.3,1.7-1.1c1.3,0.3,2.6,0.5,3.9,0.8c0.8,0.1,1.3,0.9,1.2,1.7C996.3,200.2,995.7,200.7,995,200.7z M1055,199.3
					c-0.7,0-1.2-0.4-1.4-1.1c-0.2-0.8,0.3-1.5,1.1-1.7c1.3-0.3,2.6-0.6,3.9-1c0.8-0.2,1.6,0.3,1.8,1s-0.3,1.6-1,1.8
					c-1.3,0.3-2.6,0.7-3.9,1C1055.2,199.3,1055.1,199.3,1055,199.3z M987.2,199c-0.1,0-0.2,0-0.3,0c-1.3-0.3-2.6-0.7-3.9-1
					c-0.8-0.2-1.2-1-1-1.8c0.2-0.8,1-1.2,1.8-1c1.3,0.3,2.6,0.7,3.9,1c0.8,0.2,1.2,1,1.1,1.7C988.4,198.5,987.8,199,987.2,199z
					 M1062.8,197.2c-0.6,0-1.2-0.4-1.4-1c-0.2-0.8,0.2-1.6,1-1.8c1.3-0.4,2.6-0.8,3.8-1.2c0.8-0.2,1.6,0.2,1.8,0.9
					c0.2,0.8-0.2,1.6-0.9,1.8c-1.3,0.4-2.6,0.8-3.9,1.2C1063.1,197.2,1062.9,197.2,1062.8,197.2z M979.4,196.9c-0.1,0-0.3,0-0.4-0.1
					c-1.3-0.4-2.6-0.8-3.9-1.2c-0.8-0.2-1.2-1.1-0.9-1.8c0.2-0.8,1.1-1.2,1.8-0.9c1.3,0.4,2.5,0.8,3.8,1.2c0.8,0.2,1.2,1,1,1.8
					C980.6,196.5,980,196.9,979.4,196.9z M1070.5,194.8c-0.6,0-1.1-0.4-1.4-1c-0.3-0.7,0.1-1.6,0.9-1.8c1.2-0.4,2.5-0.9,3.7-1.4
					c0.7-0.3,1.6,0.1,1.9,0.8c0.3,0.7-0.1,1.6-0.8,1.9c-1.3,0.5-2.5,1-3.8,1.4C1070.8,194.7,1070.6,194.8,1070.5,194.8z
					 M971.7,194.4c-0.2,0-0.3,0-0.5-0.1c-1.3-0.5-2.6-0.9-3.8-1.4c-0.7-0.3-1.1-1.1-0.8-1.9c0.3-0.7,1.1-1.1,1.9-0.8
					c1.2,0.5,2.5,1,3.7,1.4c0.7,0.3,1.1,1.1,0.9,1.8C972.9,194,972.3,194.4,971.7,194.4z M1078,191.9c-0.6,0-1.1-0.3-1.3-0.9
					c-0.3-0.7,0-1.6,0.8-1.9c1.2-0.5,2.4-1,3.7-1.6c0.7-0.3,1.6,0,1.9,0.7c0.3,0.7,0,1.6-0.7,1.9c-1.2,0.6-2.5,1.1-3.7,1.6
					C1078.4,191.9,1078.2,191.9,1078,191.9z M964.2,191.4c-0.2,0-0.4,0-0.6-0.1c-1.3-0.5-2.5-1.1-3.7-1.6c-0.7-0.3-1-1.2-0.7-1.9
					c0.3-0.7,1.2-1,1.9-0.7c1.2,0.5,2.4,1.1,3.7,1.6c0.7,0.3,1.1,1.2,0.8,1.9C965.3,191.1,964.7,191.4,964.2,191.4z M1085.3,188.6
					c-0.5,0-1.1-0.3-1.3-0.8c-0.3-0.7,0-1.6,0.7-1.9c1.2-0.6,2.4-1.2,3.6-1.8c0.7-0.4,1.6-0.1,1.9,0.6c0.4,0.7,0.1,1.6-0.6,1.9
					c-1.2,0.6-2.4,1.2-3.6,1.8C1085.8,188.6,1085.5,188.6,1085.3,188.6z M956.8,188c-0.2,0-0.4,0-0.6-0.1c-1.2-0.6-2.4-1.2-3.6-1.9
					c-0.7-0.4-1-1.2-0.6-1.9c0.4-0.7,1.2-1,1.9-0.6c1.2,0.6,2.4,1.2,3.6,1.8c0.7,0.4,1,1.2,0.7,1.9C957.9,187.7,957.4,188,956.8,188
					z M1092.5,184.9c-0.5,0-1-0.3-1.3-0.7c-0.4-0.7-0.1-1.6,0.6-2c1.2-0.6,2.3-1.3,3.5-2c0.7-0.4,1.6-0.2,2,0.5
					c0.4,0.7,0.2,1.6-0.5,2c-1.2,0.7-2.4,1.4-3.5,2C1092.9,184.9,1092.7,184.9,1092.5,184.9z M949.7,184.3c-0.2,0-0.5-0.1-0.7-0.2
					c-1.2-0.7-2.4-1.4-3.5-2c-0.7-0.4-0.9-1.3-0.5-2c0.4-0.7,1.3-0.9,2-0.5c1.1,0.7,2.3,1.4,3.5,2c0.7,0.4,0.9,1.3,0.5,2
					C950.7,184,950.2,184.3,949.7,184.3z M1099.4,180.9c-0.5,0-0.9-0.2-1.2-0.7c-0.4-0.7-0.2-1.6,0.5-2c1.1-0.7,2.2-1.4,3.4-2.2
					c0.7-0.4,1.6-0.3,2,0.4c0.4,0.7,0.3,1.6-0.4,2c-1.1,0.7-2.3,1.5-3.4,2.2C1099.9,180.8,1099.7,180.9,1099.4,180.9z M942.8,180.1
					c-0.3,0-0.5-0.1-0.8-0.2c-1.1-0.7-2.3-1.5-3.4-2.2c-0.7-0.4-0.8-1.3-0.4-2c0.4-0.7,1.3-0.8,2-0.4c1.1,0.7,2.2,1.5,3.3,2.2
					c0.7,0.4,0.9,1.3,0.4,2C943.7,179.9,943.3,180.1,942.8,180.1z M1106.1,176.4c-0.5,0-0.9-0.2-1.2-0.6c-0.5-0.7-0.3-1.5,0.4-2
					c1.1-0.8,2.2-1.5,3.2-2.3c0.6-0.5,1.5-0.3,2,0.3c0.5,0.6,0.3,1.5-0.3,2c-1.1,0.8-2.2,1.6-3.3,2.4
					C1106.7,176.3,1106.4,176.4,1106.1,176.4z M936.1,175.6c-0.3,0-0.6-0.1-0.8-0.3c-1.1-0.8-2.2-1.6-3.3-2.4
					c-0.6-0.5-0.8-1.4-0.3-2c0.5-0.6,1.4-0.8,2-0.3c1.1,0.8,2.1,1.6,3.2,2.4c0.6,0.5,0.8,1.4,0.3,2
					C937,175.4,936.5,175.6,936.1,175.6z M1112.6,171.6c-0.4,0-0.8-0.2-1.1-0.5c-0.5-0.6-0.4-1.5,0.2-2c1-0.8,2.1-1.7,3.1-2.5
					c0.6-0.5,1.5-0.4,2,0.2c0.5,0.6,0.4,1.5-0.2,2c-1,0.9-2.1,1.7-3.2,2.6C1113.2,171.5,1112.9,171.6,1112.6,171.6z M929.7,170.7
					c-0.3,0-0.6-0.1-0.9-0.3c-1-0.8-2.1-1.7-3.1-2.6c-0.6-0.5-0.7-1.4-0.2-2c0.5-0.6,1.4-0.7,2-0.2c1,0.9,2.1,1.7,3.1,2.5
					c0.6,0.5,0.7,1.4,0.2,2C930.5,170.6,930.1,170.7,929.7,170.7z M1118.8,166.5c-0.4,0-0.8-0.2-1.1-0.5c-0.5-0.6-0.5-1.5,0.1-2
					c1-0.9,2-1.8,3-2.7c0.6-0.5,1.5-0.5,2,0.1c0.5,0.6,0.5,1.5-0.1,2c-1,0.9-2,1.8-3,2.7C1119.4,166.4,1119.1,166.5,1118.8,166.5z
					 M923.5,165.5c-0.3,0-0.7-0.1-1-0.4c-1-0.9-2-1.8-3-2.8c-0.6-0.5-0.6-1.5-0.1-2c0.5-0.6,1.5-0.6,2-0.1c1,0.9,1.9,1.8,2.9,2.7
					c0.6,0.5,0.6,1.4,0.1,2C924.3,165.4,923.9,165.5,923.5,165.5z M1124.7,161c-0.4,0-0.7-0.1-1-0.4c-0.6-0.6-0.5-1.5,0-2
					c0.9-0.9,1.9-1.9,2.8-2.8c0.6-0.6,1.5-0.6,2,0c0.6,0.6,0.6,1.5,0,2c-0.9,1-1.9,1.9-2.9,2.9C1125.4,160.9,1125,161,1124.7,161z
					 M917.7,160c-0.4,0-0.7-0.1-1-0.4c-1-1-1.9-1.9-2.8-2.9c-0.5-0.6-0.5-1.5,0.1-2c0.6-0.5,1.5-0.5,2,0.1c0.9,1,1.8,1.9,2.8,2.9
					c0.6,0.6,0.6,1.5,0,2C918.4,159.8,918.1,160,917.7,160z M1130.3,155.2c-0.3,0-0.7-0.1-1-0.4c-0.6-0.5-0.6-1.4-0.1-2
					c0.9-1,1.8-2,2.7-3c0.5-0.6,1.4-0.7,2-0.1c0.6,0.5,0.7,1.4,0.1,2c-0.9,1-1.8,2.1-2.7,3C1131,155,1130.6,155.2,1130.3,155.2z
					 M912.1,154.1c-0.4,0-0.8-0.2-1.1-0.5c-0.9-1-1.8-2-2.7-3.1c-0.5-0.6-0.4-1.5,0.2-2c0.6-0.5,1.5-0.4,2,0.2c0.9,1,1.7,2,2.6,3
					c0.5,0.6,0.5,1.5-0.1,2C912.8,154,912.5,154.1,912.1,154.1z M1135.5,149.1c-0.3,0-0.6-0.1-0.9-0.3c-0.6-0.5-0.7-1.4-0.2-2
					c0.8-1,1.7-2.1,2.5-3.1c0.5-0.6,1.4-0.7,2-0.3c0.6,0.5,0.7,1.4,0.3,2c-0.8,1.1-1.7,2.1-2.5,3.2
					C1136.4,148.9,1135.9,149.1,1135.5,149.1z M906.9,148c-0.4,0-0.8-0.2-1.1-0.5c-0.8-1-1.7-2.1-2.5-3.2c-0.5-0.6-0.4-1.5,0.3-2
					c0.6-0.5,1.5-0.4,2,0.3c0.8,1.1,1.6,2.1,2.5,3.1c0.5,0.6,0.4,1.5-0.2,2C907.6,147.9,907.3,148,906.9,148z M1140.5,142.7
					c-0.3,0-0.6-0.1-0.8-0.3c-0.6-0.5-0.8-1.4-0.3-2c0.8-1.1,1.6-2.2,2.3-3.3c0.5-0.7,1.3-0.8,2-0.4c0.7,0.5,0.8,1.3,0.4,2
					c-0.8,1.1-1.6,2.2-2.4,3.3C1141.3,142.5,1140.9,142.7,1140.5,142.7z M902.1,141.6c-0.4,0-0.9-0.2-1.2-0.6
					c-0.8-1.1-1.6-2.2-2.3-3.3c-0.4-0.7-0.3-1.6,0.4-2c0.7-0.4,1.6-0.3,2,0.4c0.7,1.1,1.5,2.2,2.3,3.3c0.5,0.6,0.3,1.5-0.3,2
					C902.7,141.5,902.4,141.6,902.1,141.6z M1145,136.1c-0.3,0-0.5-0.1-0.8-0.2c-0.7-0.4-0.9-1.3-0.4-2c0.7-1.1,1.4-2.2,2.1-3.4
					c0.4-0.7,1.3-0.9,2-0.5c0.7,0.4,0.9,1.3,0.5,2c-0.7,1.2-1.4,2.3-2.2,3.4C1146,135.9,1145.5,136.1,1145,136.1z M897.6,134.9
					c-0.5,0-0.9-0.2-1.2-0.7c-0.7-1.1-1.4-2.3-2.1-3.5c-0.4-0.7-0.2-1.6,0.5-2c0.7-0.4,1.6-0.2,2,0.5c0.7,1.1,1.4,2.3,2.1,3.4
					c0.4,0.7,0.2,1.6-0.4,2C898.1,134.8,897.8,134.9,897.6,134.9z M1149.3,129.2c-0.2,0-0.5-0.1-0.7-0.2c-0.7-0.4-0.9-1.3-0.5-2
					c0.7-1.1,1.3-2.3,1.9-3.5c0.4-0.7,1.3-1,1.9-0.6c0.7,0.4,1,1.2,0.6,1.9c-0.6,1.2-1.3,2.4-2,3.6
					C1150.2,128.9,1149.8,129.2,1149.3,129.2z M893.4,128c-0.5,0-1-0.3-1.3-0.7c-0.7-1.2-1.3-2.4-1.9-3.6c-0.4-0.7-0.1-1.6,0.6-1.9
					c0.7-0.4,1.6-0.1,1.9,0.6c0.6,1.2,1.3,2.3,1.9,3.5c0.4,0.7,0.1,1.6-0.5,2C893.9,128,893.7,128,893.4,128z M1153.1,122.1
					c-0.2,0-0.4-0.1-0.6-0.2c-0.7-0.4-1-1.2-0.6-1.9c0.6-1.2,1.2-2.4,1.7-3.6c0.3-0.7,1.2-1,1.9-0.7c0.7,0.3,1,1.2,0.7,1.9
					c-0.6,1.2-1.2,2.5-1.8,3.7C1154.1,121.8,1153.6,122.1,1153.1,122.1z M889.7,120.9c-0.5,0-1-0.3-1.3-0.8
					c-0.6-1.2-1.2-2.4-1.7-3.7c-0.3-0.7,0-1.6,0.7-1.9c0.7-0.3,1.6,0,1.9,0.7c0.5,1.2,1.1,2.4,1.7,3.6c0.4,0.7,0.1,1.6-0.7,1.9
					C890.1,120.9,889.9,120.9,889.7,120.9z M1156.5,114.8c-0.2,0-0.4,0-0.6-0.1c-0.7-0.3-1.1-1.2-0.7-1.9c0.5-1.2,1.1-2.5,1.5-3.7
					c0.3-0.7,1.1-1.1,1.9-0.8c0.7,0.3,1.1,1.1,0.8,1.9c-0.5,1.3-1,2.5-1.6,3.8C1157.6,114.5,1157.1,114.8,1156.5,114.8z
					 M886.3,113.6c-0.6,0-1.1-0.3-1.3-0.9c-0.5-1.2-1-2.5-1.5-3.8c-0.3-0.7,0.1-1.6,0.8-1.9c0.7-0.3,1.6,0.1,1.9,0.8
					c0.5,1.2,1,2.5,1.5,3.7c0.3,0.7,0,1.6-0.8,1.9C886.7,113.6,886.5,113.6,886.3,113.6z M1159.5,107.3c-0.2,0-0.3,0-0.5-0.1
					c-0.7-0.3-1.1-1.1-0.8-1.9c0.5-1.3,0.9-2.5,1.3-3.8c0.3-0.8,1.1-1.2,1.8-0.9c0.8,0.3,1.2,1.1,0.9,1.8c-0.4,1.3-0.9,2.6-1.4,3.8
					C1160.7,106.9,1160.1,107.3,1159.5,107.3z M883.4,106.1c-0.6,0-1.1-0.4-1.4-0.9c-0.5-1.3-0.9-2.6-1.3-3.8
					c-0.3-0.8,0.2-1.6,0.9-1.8c0.8-0.3,1.6,0.2,1.8,0.9c0.4,1.3,0.9,2.5,1.3,3.8c0.3,0.7-0.1,1.6-0.9,1.8
					C883.7,106.1,883.5,106.1,883.4,106.1z M1162.2,99.7c-0.1,0-0.3,0-0.4-0.1c-0.8-0.2-1.2-1-0.9-1.8c0.4-1.3,0.8-2.5,1.1-3.8
					c0.2-0.8,1-1.2,1.8-1c0.8,0.2,1.2,1,1,1.8c-0.4,1.3-0.8,2.6-1.2,3.9C1163.3,99.3,1162.8,99.7,1162.2,99.7z M880.8,98.5
					c-0.6,0-1.2-0.4-1.4-1c-0.4-1.3-0.8-2.6-1.1-3.9c-0.2-0.8,0.2-1.6,1-1.8c0.8-0.2,1.6,0.2,1.8,1c0.3,1.3,0.7,2.6,1.1,3.8
					c0.2,0.8-0.2,1.6-1,1.8C881.1,98.5,881,98.5,880.8,98.5z M1164.3,91.9c-0.1,0-0.2,0-0.4,0c-0.8-0.2-1.2-1-1-1.7
					c0.3-1.3,0.6-2.6,0.9-3.9c0.2-0.8,0.9-1.3,1.7-1.1c0.8,0.2,1.3,0.9,1.1,1.7c-0.3,1.3-0.6,2.6-0.9,4
					C1165.6,91.5,1165,91.9,1164.3,91.9z M878.7,90.7c-0.6,0-1.2-0.4-1.4-1.1c-0.3-1.3-0.6-2.6-0.9-4c-0.2-0.8,0.3-1.5,1.1-1.7
					c0.8-0.2,1.5,0.3,1.7,1.1c0.3,1.3,0.6,2.6,0.9,3.9c0.2,0.8-0.3,1.5-1.1,1.7C879,90.7,878.8,90.7,878.7,90.7z M1166.1,84
					c-0.1,0-0.2,0-0.3,0c-0.8-0.2-1.3-0.9-1.1-1.7c0.3-1.3,0.5-2.6,0.7-3.9c0.1-0.8,0.9-1.3,1.7-1.2c0.8,0.1,1.3,0.9,1.2,1.7
					c-0.2,1.3-0.5,2.7-0.7,4C1167.4,83.5,1166.8,84,1166.1,84z M877.1,82.8c-0.7,0-1.3-0.5-1.4-1.2c-0.2-1.3-0.5-2.7-0.7-4
					c-0.1-0.8,0.4-1.5,1.2-1.6c0.8-0.1,1.5,0.4,1.6,1.2c0.2,1.3,0.4,2.6,0.7,3.9c0.1,0.8-0.4,1.5-1.2,1.7
					C877.2,82.8,877.1,82.8,877.1,82.8z M1167.4,76.1c-0.1,0-0.1,0-0.2,0c-0.8-0.1-1.3-0.8-1.2-1.6c0.2-1.3,0.3-2.6,0.5-4
					c0.1-0.8,0.8-1.4,1.6-1.3c0.8,0.1,1.4,0.8,1.3,1.6c-0.1,1.3-0.3,2.7-0.5,4C1168.7,75.6,1168.1,76.1,1167.4,76.1z M875.8,74.9
					c-0.7,0-1.3-0.5-1.4-1.3c-0.2-1.3-0.3-2.7-0.5-4c-0.1-0.8,0.5-1.5,1.3-1.6c0.8-0.1,1.5,0.5,1.6,1.3c0.1,1.3,0.3,2.6,0.5,4
					c0.1,0.8-0.5,1.5-1.2,1.6C875.9,74.9,875.9,74.9,875.8,74.9z M1168.3,68.1c0,0-0.1,0-0.1,0c-0.8-0.1-1.4-0.8-1.3-1.6
					c0.1-1.3,0.2-2.7,0.3-4c0-0.8,0.7-1.4,1.5-1.4c0.8,0,1.4,0.7,1.4,1.5c-0.1,1.4-0.2,2.7-0.3,4.1
					C1169.6,67.5,1169,68.1,1168.3,68.1z M875,66.9c-0.7,0-1.4-0.6-1.4-1.3c-0.1-1.3-0.2-2.7-0.2-4.1c0-0.8,0.6-1.5,1.4-1.5
					c0.8,0,1.5,0.6,1.5,1.4c0.1,1.3,0.1,2.7,0.2,4c0.1,0.8-0.5,1.5-1.3,1.5C875.1,66.9,875,66.9,875,66.9z M1168.7,60
					C1168.7,60,1168.7,60,1168.7,60c-0.8,0-1.5-0.7-1.4-1.5c0-1.3,0.1-2.7,0.1-4c0-0.3,0.1-0.6,0.2-0.8c-0.1-0.2-0.2-0.5-0.2-0.8
					c0-1.3,0-2.7-0.1-4c0-0.8,0.6-1.5,1.4-1.5c0.8,0,1.5,0.6,1.5,1.4c0.1,1.3,0.1,2.7,0.1,4.1c0,0.3-0.1,0.6-0.2,0.8
					c0.2,0.2,0.2,0.5,0.2,0.8c0,1.4,0,2.7-0.1,4.1C1170.1,59.4,1169.5,60,1168.7,60z M874.6,58.8c-0.8,0-1.4-0.6-1.4-1.4
					c0-0.9,0-1.9,0-2.8c0-0.4,0-0.8,0-1.2c0-0.8,0.7-1.5,1.5-1.4c0.8,0,1.4,0.7,1.4,1.5c0,0.4,0,0.8,0,1.2c0,0.9,0,1.9,0,2.8
					C876.1,58.1,875.5,58.8,874.6,58.8C874.7,58.8,874.6,58.8,874.6,58.8z M874.7,50.8C874.7,50.8,874.7,50.8,874.7,50.8
					c-0.8,0-1.5-0.7-1.4-1.5c0-1.3,0.1-2.7,0.2-4.1c0-0.8,0.7-1.4,1.5-1.3c0.8,0,1.4,0.7,1.3,1.5c-0.1,1.3-0.1,2.7-0.2,4
					C876.1,50.1,875.5,50.8,874.7,50.8z M1168.4,46.4c-0.8,0-1.4-0.6-1.4-1.3c-0.1-1.3-0.2-2.7-0.3-4c-0.1-0.8,0.5-1.5,1.3-1.6
					c0.8-0.1,1.5,0.5,1.6,1.3c0.1,1.3,0.2,2.7,0.3,4.1C1169.9,45.6,1169.3,46.3,1168.4,46.4C1168.5,46.4,1168.5,46.4,1168.4,46.4z
					 M875.2,42.7c0,0-0.1,0-0.1,0c-0.8-0.1-1.4-0.8-1.3-1.6c0.1-1.3,0.3-2.7,0.4-4c0.1-0.8,0.8-1.3,1.6-1.3c0.8,0.1,1.4,0.8,1.3,1.6
					c-0.2,1.3-0.3,2.6-0.4,4C876.6,42.2,875.9,42.7,875.2,42.7z M1167.7,38.3c-0.7,0-1.3-0.5-1.4-1.3c-0.2-1.3-0.3-2.6-0.5-4
					c-0.1-0.8,0.4-1.5,1.2-1.6c0.8-0.1,1.5,0.4,1.6,1.2c0.2,1.3,0.4,2.7,0.5,4c0.1,0.8-0.5,1.5-1.3,1.6
					C1167.8,38.3,1167.8,38.3,1167.7,38.3z M876.1,34.7c-0.1,0-0.1,0-0.2,0c-0.8-0.1-1.3-0.8-1.2-1.6c0.2-1.3,0.4-2.7,0.6-4
					c0.1-0.8,0.9-1.3,1.7-1.2c0.8,0.1,1.3,0.9,1.2,1.7c-0.2,1.3-0.4,2.6-0.6,3.9C877.5,34.2,876.8,34.7,876.1,34.7z M1166.5,30.4
					c-0.7,0-1.3-0.5-1.4-1.2c-0.2-1.3-0.5-2.6-0.7-3.9c-0.2-0.8,0.3-1.5,1.1-1.7c0.8-0.2,1.5,0.3,1.7,1.1c0.3,1.3,0.5,2.7,0.8,4
					c0.1,0.8-0.4,1.5-1.2,1.7C1166.7,30.4,1166.6,30.4,1166.5,30.4z M877.5,26.8c-0.1,0-0.2,0-0.3,0c-0.8-0.2-1.3-0.9-1.1-1.7
					c0.3-1.3,0.6-2.7,0.9-4c0.2-0.8,0.9-1.3,1.7-1.1c0.8,0.2,1.3,1,1.1,1.7c-0.3,1.3-0.6,2.6-0.8,3.9
					C878.8,26.3,878.2,26.8,877.5,26.8z M1164.9,22.5c-0.7,0-1.2-0.4-1.4-1.1c-0.3-1.3-0.6-2.6-1-3.9c-0.2-0.8,0.3-1.6,1-1.8
					c0.8-0.2,1.6,0.3,1.8,1c0.3,1.3,0.7,2.6,1,3.9c0.2,0.8-0.3,1.5-1.1,1.7C1165.1,22.5,1165,22.5,1164.9,22.5z M879.3,18.9
					c-0.1,0-0.2,0-0.4,0c-0.8-0.2-1.2-1-1-1.8c0.3-1.3,0.7-2.6,1.1-3.9c0.2-0.8,1-1.2,1.8-1c0.8,0.2,1.2,1,1,1.8
					c-0.4,1.3-0.7,2.6-1.1,3.8C880.6,18.5,880,18.9,879.3,18.9z M1162.9,14.7c-0.6,0-1.2-0.4-1.4-1c-0.4-1.3-0.8-2.6-1.2-3.8
					c-0.2-0.8,0.2-1.6,0.9-1.8c0.8-0.2,1.6,0.2,1.8,0.9c0.4,1.3,0.8,2.6,1.2,3.9c0.2,0.8-0.2,1.6-1,1.8
					C1163.1,14.7,1163,14.7,1162.9,14.7z M881.6,11.2c-0.1,0-0.3,0-0.4-0.1c-0.8-0.2-1.2-1.1-0.9-1.8c0.4-1.3,0.8-2.6,1.3-3.9
					c0.3-0.8,1.1-1.1,1.8-0.9c0.8,0.3,1.1,1.1,0.9,1.8c-0.4,1.3-0.9,2.5-1.3,3.8C882.7,10.8,882.2,11.2,881.6,11.2z M1160.4,7
					c-0.6,0-1.1-0.4-1.4-1c-0.4-1.2-0.9-2.5-1.4-3.7c-0.3-0.7,0.1-1.6,0.8-1.9c0.7-0.3,1.6,0.1,1.9,0.8c0.5,1.3,1,2.5,1.4,3.8
					c0.3,0.7-0.1,1.6-0.9,1.8C1160.7,7,1160.6,7,1160.4,7z M884.2,3.6c-0.2,0-0.3,0-0.5-0.1c-0.7-0.3-1.1-1.1-0.8-1.9
					c0.5-1.3,1-2.5,1.5-3.8c0.3-0.7,1.1-1.1,1.9-0.8c0.7,0.3,1.1,1.1,0.8,1.9c-0.5,1.2-1,2.5-1.5,3.7C885.4,3.2,884.8,3.6,884.2,3.6
					z M1157.5-0.5c-0.6,0-1.1-0.3-1.3-0.9c-0.5-1.2-1-2.4-1.6-3.7c-0.3-0.7,0-1.6,0.7-1.9c0.7-0.3,1.6,0,1.9,0.7
					c0.6,1.2,1.1,2.5,1.6,3.7c0.3,0.7,0,1.6-0.8,1.9C1157.9-0.5,1157.7-0.5,1157.5-0.5z M887.3-3.9c-0.2,0-0.4,0-0.6-0.1
					c-0.7-0.3-1.1-1.2-0.7-1.9c0.6-1.2,1.1-2.5,1.7-3.7c0.3-0.7,1.2-1,1.9-0.7c0.7,0.3,1,1.2,0.7,1.9c-0.6,1.2-1.1,2.4-1.7,3.6
					C888.4-4.2,887.9-3.9,887.3-3.9z M1154.2-7.8c-0.5,0-1-0.3-1.3-0.8c-0.6-1.2-1.2-2.4-1.8-3.6c-0.4-0.7-0.1-1.6,0.6-1.9
					c0.7-0.4,1.6-0.1,1.9,0.6c0.6,1.2,1.2,2.4,1.8,3.6c0.3,0.7,0,1.6-0.7,1.9C1154.6-7.9,1154.4-7.8,1154.2-7.8z M890.8-11.2
					c-0.2,0-0.4-0.1-0.7-0.2c-0.7-0.4-1-1.2-0.6-1.9c0.6-1.2,1.3-2.4,1.9-3.6c0.4-0.7,1.3-0.9,2-0.6c0.7,0.4,1,1.3,0.6,2
					c-0.6,1.2-1.3,2.3-1.9,3.5C891.8-11.5,891.3-11.2,890.8-11.2z M1150.5-15c-0.5,0-1-0.3-1.3-0.7c-0.6-1.1-1.3-2.3-2-3.5
					c-0.4-0.7-0.2-1.6,0.5-2c0.7-0.4,1.6-0.2,2,0.5c0.7,1.2,1.4,2.4,2,3.5c0.4,0.7,0.1,1.6-0.6,2C1151-15,1150.8-15,1150.5-15z
					 M894.7-18.3c-0.2,0-0.5-0.1-0.7-0.2c-0.7-0.4-0.9-1.3-0.5-2c0.7-1.2,1.4-2.3,2.1-3.5c0.4-0.7,1.3-0.9,2-0.5
					c0.7,0.4,0.9,1.3,0.5,2c-0.7,1.1-1.4,2.3-2.1,3.4C895.7-18.5,895.2-18.3,894.7-18.3z M1146.5-21.9c-0.5,0-0.9-0.2-1.2-0.7
					c-0.7-1.1-1.4-2.3-2.2-3.3c-0.4-0.7-0.3-1.6,0.4-2c0.7-0.4,1.6-0.3,2,0.4c0.7,1.1,1.5,2.3,2.2,3.4c0.4,0.7,0.2,1.6-0.5,2
					C1147-22,1146.7-21.9,1146.5-21.9z M899-25.1c-0.3,0-0.5-0.1-0.8-0.2c-0.7-0.4-0.8-1.3-0.4-2c0.7-1.1,1.5-2.3,2.3-3.4
					c0.5-0.7,1.4-0.8,2-0.3c0.7,0.5,0.8,1.4,0.3,2c-0.8,1.1-1.5,2.2-2.3,3.3C899.9-25.3,899.4-25.1,899-25.1z M1142-28.6
					c-0.5,0-0.9-0.2-1.2-0.6c-0.8-1.1-1.6-2.2-2.3-3.2c-0.5-0.6-0.3-1.5,0.3-2c0.6-0.5,1.5-0.3,2,0.3c0.8,1.1,1.6,2.2,2.4,3.3
					c0.5,0.6,0.3,1.5-0.3,2C1142.6-28.7,1142.3-28.6,1142-28.6z M903.6-31.7c-0.3,0-0.6-0.1-0.9-0.3c-0.6-0.5-0.8-1.4-0.3-2
					c0.8-1.1,1.6-2.2,2.5-3.2c0.5-0.6,1.4-0.7,2-0.2c0.6,0.5,0.7,1.4,0.2,2c-0.8,1-1.6,2.1-2.4,3.2
					C904.5-31.9,904.1-31.7,903.6-31.7z M1137.2-35c-0.4,0-0.8-0.2-1.1-0.5c-0.8-1-1.7-2.1-2.5-3.1c-0.5-0.6-0.4-1.5,0.2-2
					c0.6-0.5,1.5-0.4,2,0.2c0.9,1,1.7,2.1,2.6,3.2c0.5,0.6,0.4,1.5-0.2,2C1137.8-35.1,1137.5-35,1137.2-35z M908.6-38
					c-0.3,0-0.7-0.1-0.9-0.3c-0.6-0.5-0.7-1.4-0.2-2c0.9-1,1.8-2.1,2.6-3.1c0.5-0.6,1.4-0.7,2-0.1c0.6,0.5,0.7,1.4,0.1,2
					c-0.9,1-1.7,2-2.6,3C909.4-38.2,909-38,908.6-38z M1132-41.2c-0.4,0-0.8-0.2-1.1-0.5c-0.9-1-1.8-2-2.7-3c-0.5-0.6-0.5-1.5,0.1-2
					c0.6-0.5,1.5-0.5,2,0.1c0.9,1,1.8,2,2.7,3c0.5,0.6,0.5,1.5-0.1,2C1132.7-41.3,1132.4-41.2,1132-41.2z M913.9-44.1
					c-0.4,0-0.7-0.1-1-0.4c-0.6-0.5-0.6-1.5-0.1-2c0.9-1,1.9-2,2.8-2.9c0.6-0.6,1.5-0.6,2,0c0.6,0.6,0.6,1.5,0,2
					c-0.9,0.9-1.8,1.9-2.8,2.9C914.7-44.2,914.3-44.1,913.9-44.1z M1126.5-47.1c-0.4,0-0.7-0.1-1-0.4c-0.9-0.9-1.9-1.9-2.8-2.8
					c-0.6-0.6-0.6-1.5,0-2c0.6-0.6,1.5-0.6,2,0c1,0.9,1.9,1.9,2.9,2.9c0.6,0.6,0.5,1.5,0,2C1127.3-47.2,1126.9-47.1,1126.5-47.1z
					 M919.6-49.8c-0.4,0-0.8-0.1-1-0.4c-0.6-0.6-0.5-1.5,0-2c1-0.9,2-1.9,3-2.8c0.6-0.5,1.5-0.5,2,0.1c0.5,0.6,0.5,1.5-0.1,2
					c-1,0.9-2,1.8-2.9,2.7C920.3-50,919.9-49.8,919.6-49.8z M1120.7-52.7c-0.3,0-0.7-0.1-1-0.4c-1-0.9-2-1.8-3-2.6
					c-0.6-0.5-0.7-1.4-0.1-2c0.5-0.6,1.4-0.7,2-0.1c1,0.9,2,1.8,3,2.7c0.6,0.5,0.6,1.4,0.1,2C1121.5-52.9,1121.1-52.7,1120.7-52.7z
					 M925.5-55.3c-0.4,0-0.8-0.2-1.1-0.5c-0.5-0.6-0.5-1.5,0.1-2c1-0.9,2.1-1.8,3.1-2.6c0.6-0.5,1.5-0.4,2,0.2
					c0.5,0.6,0.4,1.5-0.2,2c-1,0.8-2,1.7-3.1,2.6C926.2-55.4,925.8-55.3,925.5-55.3z M1114.6-58c-0.3,0-0.6-0.1-0.9-0.3
					c-1-0.8-2.1-1.7-3.1-2.5c-0.6-0.5-0.7-1.4-0.3-2c0.5-0.6,1.4-0.7,2-0.3c1.1,0.8,2.1,1.7,3.2,2.5c0.6,0.5,0.7,1.4,0.2,2
					C1115.5-58.1,1115.1-58,1114.6-58z M931.7-60.4c-0.4,0-0.9-0.2-1.1-0.6c-0.5-0.6-0.4-1.5,0.3-2c1.1-0.8,2.2-1.7,3.2-2.4
					c0.6-0.5,1.5-0.3,2,0.3c0.5,0.6,0.3,1.5-0.3,2c-1.1,0.8-2.1,1.6-3.2,2.4C932.4-60.5,932.1-60.4,931.7-60.4z M1108.3-62.9
					c-0.3,0-0.6-0.1-0.8-0.3c-1.1-0.8-2.2-1.6-3.3-2.3c-0.7-0.5-0.8-1.3-0.4-2c0.5-0.7,1.3-0.8,2-0.4c1.1,0.8,2.2,1.6,3.3,2.4
					c0.6,0.5,0.8,1.4,0.3,2C1109.1-63.1,1108.7-62.9,1108.3-62.9z M938.2-65.1c-0.5,0-0.9-0.2-1.2-0.6c-0.5-0.7-0.3-1.6,0.4-2
					c1.1-0.8,2.2-1.5,3.4-2.3c0.7-0.4,1.6-0.2,2,0.4c0.4,0.7,0.2,1.6-0.4,2c-1.1,0.7-2.2,1.5-3.3,2.2
					C938.8-65.2,938.5-65.1,938.2-65.1z M1101.6-67.5c-0.3,0-0.5-0.1-0.8-0.2c-1.1-0.7-2.2-1.4-3.4-2.1c-0.7-0.4-0.9-1.3-0.5-2
					c0.4-0.7,1.3-0.9,2-0.5c1.2,0.7,2.3,1.4,3.4,2.2c0.7,0.4,0.9,1.3,0.4,2C1102.5-67.7,1102.1-67.5,1101.6-67.5z M945-69.5
					c-0.5,0-1-0.2-1.2-0.7c-0.4-0.7-0.2-1.6,0.5-2c1.1-0.7,2.3-1.4,3.5-2.1c0.7-0.4,1.6-0.2,2,0.5c0.4,0.7,0.2,1.6-0.5,2
					c-1.2,0.7-2.3,1.3-3.4,2C945.5-69.6,945.2-69.5,945-69.5z M1094.7-71.7c-0.2,0-0.5-0.1-0.7-0.2c-1.2-0.7-2.3-1.3-3.5-1.9
					c-0.7-0.4-1-1.2-0.6-1.9c0.4-0.7,1.2-1,1.9-0.6c1.2,0.6,2.4,1.3,3.6,2c0.7,0.4,0.9,1.3,0.5,2
					C1095.7-71.9,1095.2-71.7,1094.7-71.7z M951.9-73.5c-0.5,0-1-0.3-1.3-0.8c-0.4-0.7-0.1-1.6,0.6-2c1.2-0.6,2.4-1.3,3.6-1.9
					c0.7-0.4,1.6-0.1,1.9,0.6c0.4,0.7,0.1,1.6-0.6,1.9c-1.2,0.6-2.4,1.2-3.5,1.8C952.4-73.6,952.2-73.5,951.9-73.5z M1087.6-75.5
					c-0.2,0-0.4,0-0.6-0.2c-1.2-0.6-2.4-1.2-3.6-1.7c-0.7-0.3-1-1.2-0.7-1.9c0.3-0.7,1.2-1,1.9-0.7c1.2,0.6,2.5,1.2,3.7,1.8
					c0.7,0.4,1,1.2,0.6,1.9C1088.7-75.8,1088.1-75.5,1087.6-75.5z M959.1-77.1c-0.5,0-1.1-0.3-1.3-0.8c-0.3-0.7,0-1.6,0.7-1.9
					c1.2-0.6,2.5-1.1,3.7-1.7c0.7-0.3,1.6,0,1.9,0.7c0.3,0.7,0,1.6-0.7,1.9c-1.2,0.5-2.4,1.1-3.6,1.6
					C959.5-77.2,959.3-77.1,959.1-77.1z M1080.3-78.9c-0.2,0-0.4,0-0.6-0.1c-1.2-0.5-2.4-1-3.7-1.5c-0.7-0.3-1.1-1.1-0.8-1.9
					s1.1-1.1,1.9-0.8c1.3,0.5,2.5,1,3.8,1.6c0.7,0.3,1.1,1.2,0.7,1.9C1081.4-79.2,1080.9-78.9,1080.3-78.9z M966.5-80.4
					c-0.6,0-1.1-0.3-1.3-0.9c-0.3-0.7,0.1-1.6,0.8-1.9c1.3-0.5,2.5-1,3.8-1.5c0.7-0.3,1.6,0.1,1.9,0.8c0.3,0.7-0.1,1.6-0.8,1.9
					c-1.2,0.5-2.5,1-3.7,1.4C966.8-80.4,966.7-80.4,966.5-80.4z M1072.8-81.9c-0.2,0-0.3,0-0.5-0.1c-1.2-0.5-2.5-0.9-3.8-1.3
					c-0.8-0.3-1.2-1.1-0.9-1.8c0.3-0.8,1.1-1.2,1.8-0.9c1.3,0.4,2.6,0.9,3.8,1.4c0.7,0.3,1.1,1.1,0.8,1.9
					C1073.9-82.3,1073.4-81.9,1072.8-81.9z M974-83.2c-0.6,0-1.2-0.4-1.4-1c-0.3-0.8,0.1-1.6,0.9-1.8c1.3-0.4,2.6-0.9,3.9-1.3
					c0.8-0.2,1.6,0.2,1.8,0.9c0.2,0.8-0.2,1.6-0.9,1.8c-1.3,0.4-2.5,0.8-3.8,1.2C974.3-83.2,974.2-83.2,974-83.2z M1065.2-84.5
					c-0.1,0-0.3,0-0.4-0.1c-1.3-0.4-2.6-0.8-3.8-1.1c-0.8-0.2-1.2-1-1-1.8c0.2-0.8,1-1.2,1.8-1c1.3,0.4,2.6,0.7,3.9,1.1
					c0.8,0.2,1.2,1,1,1.8C1066.3-84.9,1065.8-84.5,1065.2-84.5z M981.7-85.6c-0.6,0-1.2-0.4-1.4-1c-0.2-0.8,0.2-1.6,1-1.8
					c1.3-0.4,2.6-0.7,3.9-1c0.8-0.2,1.6,0.3,1.7,1c0.2,0.8-0.3,1.6-1,1.7c-1.3,0.3-2.6,0.7-3.9,1C982-85.6,981.8-85.6,981.7-85.6z
					 M1057.4-86.7c-0.1,0-0.2,0-0.4,0c-1.3-0.3-2.6-0.6-3.9-0.9c-0.8-0.2-1.3-0.9-1.1-1.7c0.2-0.8,0.9-1.3,1.7-1.1
					c1.3,0.3,2.7,0.6,4,0.9c0.8,0.2,1.2,1,1,1.7C1058.6-87.1,1058-86.7,1057.4-86.7z M989.5-87.5c-0.7,0-1.3-0.5-1.4-1.1
					c-0.2-0.8,0.3-1.5,1.1-1.7c1.3-0.3,2.7-0.6,4-0.8c0.8-0.2,1.5,0.4,1.7,1.1c0.2,0.8-0.4,1.5-1.1,1.7c-1.3,0.3-2.6,0.5-3.9,0.8
					C989.7-87.6,989.6-87.5,989.5-87.5z M1049.5-88.4c-0.1,0-0.2,0-0.3,0c-1.3-0.3-2.6-0.5-3.9-0.7c-0.8-0.1-1.3-0.9-1.2-1.7
					c0.1-0.8,0.9-1.3,1.7-1.2c1.3,0.2,2.7,0.5,4,0.7c0.8,0.1,1.3,0.9,1.1,1.7C1050.8-88.9,1050.2-88.4,1049.5-88.4z M997.4-89.1
					c-0.7,0-1.3-0.5-1.4-1.2c-0.1-0.8,0.4-1.5,1.2-1.7c1.3-0.2,2.7-0.4,4-0.6c0.8-0.1,1.5,0.4,1.6,1.2c0.1,0.8-0.4,1.5-1.2,1.6
					c-1.3,0.2-2.6,0.4-3.9,0.6C997.6-89.1,997.5-89.1,997.4-89.1z M1041.6-89.7c-0.1,0-0.1,0-0.2,0c-1.3-0.2-2.6-0.3-4-0.5
					c-0.8-0.1-1.4-0.8-1.3-1.6c0.1-0.8,0.8-1.4,1.6-1.3c1.3,0.1,2.7,0.3,4,0.5c0.8,0.1,1.3,0.8,1.2,1.6
					C1042.9-90.3,1042.3-89.7,1041.6-89.7z M1005.4-90.2c-0.7,0-1.3-0.5-1.4-1.3c-0.1-0.8,0.5-1.5,1.3-1.6c1.3-0.1,2.7-0.3,4-0.4
					c0.8-0.1,1.5,0.5,1.6,1.3c0.1,0.8-0.5,1.5-1.3,1.6c-1.3,0.1-2.7,0.2-4,0.4C1005.5-90.2,1005.5-90.2,1005.4-90.2z M1033.6-90.6
					c0,0-0.1,0-0.1,0c-1.3-0.1-2.6-0.2-4-0.3c-0.8,0-1.4-0.7-1.4-1.5c0-0.8,0.7-1.4,1.5-1.4c1.4,0.1,2.7,0.2,4.1,0.3
					c0.8,0.1,1.4,0.8,1.3,1.5C1034.9-91.2,1034.3-90.6,1033.6-90.6z M1013.4-90.8c-0.8,0-1.4-0.6-1.4-1.4c0-0.8,0.6-1.5,1.4-1.5
					c1.3-0.1,2.7-0.1,4.1-0.2c0.8,0,1.5,0.6,1.5,1.4c0,0.8-0.6,1.5-1.4,1.5C1016.2-91,1014.8-90.9,1013.4-90.8
					C1013.5-90.8,1013.5-90.8,1013.4-90.8z M1025.5-91C1025.5-91,1025.5-91,1025.5-91c-1.3,0-2.6,0-3.8,0l-0.2,0
					c-0.8,0-1.4-0.6-1.4-1.4s0.6-1.4,1.4-1.4l0.2,0c0,0,0,0,0,0c1.3,0,2.6,0,3.9,0.1c0.8,0,1.4,0.7,1.4,1.5
					C1026.9-91.6,1026.3-91,1025.5-91z"/>
				<g>
					<linearGradient id="SVGID_15_" gradientUnits="userSpaceOnUse" x1="1131.0255" y1="-90.6164" x2="848.4144" y2="284.5956">
						<stop  offset="0" style="stop-color:#FE7062"/>
						<stop  offset="1" style="stop-color:#FF928E"/>
					</linearGradient>
					<circle class="st24" cx="1021.7" cy="54.6" r="125.5"/>
					<path class="st25" d="M1021.7,183c-34.3,0-66.5-13.4-90.8-37.6c-24.3-24.3-37.6-56.5-37.6-90.8c0-34.3,13.4-66.5,37.6-90.8
						c24.3-24.3,56.5-37.6,90.8-37.6c34.3,0,66.5,13.4,90.8,37.6c24.3,24.3,37.6,56.5,37.6,90.8c0,34.3-13.4,66.5-37.6,90.8
						C1088.2,169.6,1056,183,1021.7,183z M1021.7-68.1c-67.6,0-122.6,55-122.6,122.6c0,67.6,55,122.6,122.6,122.6
						c67.6,0,122.6-55,122.6-122.6C1144.3-13.1,1089.3-68.1,1021.7-68.1z"/>
				</g>
				<g>
					<linearGradient id="SVGID_16_" gradientUnits="userSpaceOnUse" x1="1131.0255" y1="-90.6164" x2="848.4148" y2="284.595">
						<stop  offset="0" style="stop-color:#FE7062"/>
						<stop  offset="1" style="stop-color:#FF928E"/>
					</linearGradient>
					<circle class="st26" cx="1021.7" cy="54.6" r="76.5"/>
					<path class="st25" d="M1021.7,134c-43.8,0-79.4-35.6-79.4-79.4c0-43.8,35.6-79.4,79.4-79.4c43.8,0,79.4,35.6,79.4,79.4
						C1101.1,98.3,1065.5,134,1021.7,134z M1021.7-19.1c-40.6,0-73.6,33-73.6,73.6c0,40.6,33,73.6,73.6,73.6
						c40.6,0,73.6-33,73.6-73.6C1095.3,14,1062.3-19.1,1021.7-19.1z"/>
				</g>
				<g>
					<linearGradient id="SVGID_17_" gradientUnits="userSpaceOnUse" x1="958.3071" y1="138.6952" x2="675.6967" y2="513.9062">
						<stop  offset="0" style="stop-color:#E1473D"/>
						<stop  offset="1" style="stop-color:#E9605A"/>
					</linearGradient>
					<circle class="st27" cx="1021.7" cy="54.6" r="29.6"/>
					<path class="st25" d="M1021.7,87.1c-17.9,0-32.5-14.6-32.5-32.5s14.6-32.5,32.5-32.5c17.9,0,32.5,14.6,32.5,32.5
						S1039.6,87.1,1021.7,87.1z M1021.7,27.8c-14.8,0-26.8,12-26.8,26.8s12,26.8,26.8,26.8c14.8,0,26.8-12,26.8-26.8
						S1036.4,27.8,1021.7,27.8z"/>
				</g>
			</g>
			<g>
				
					<linearGradient id="SVGID_18_" gradientUnits="userSpaceOnUse" x1="-810.5512" y1="3016.4756" x2="-855.3945" y2="3198.6511" gradientTransform="matrix(-0.7071 -0.7071 0.7071 -0.7071 -1726.6365 1601.8431)">
					<stop  offset="0" style="stop-color:#09005D"/>
					<stop  offset="1" style="stop-color:#1A0F91"/>
				</linearGradient>
				<polygon class="st28" points="1200,-124.2 1203.9,-120.2 1053.8,29.9 1049.9,25.9 				"/>
				<linearGradient id="SVGID_19_" gradientUnits="userSpaceOnUse" x1="1021.069" y1="37.3465" x2="1063.7164" y2="37.3465">
					<stop  offset="0" style="stop-color:#4042E2"/>
					<stop  offset="1" style="stop-color:#4F52FF"/>
				</linearGradient>
				<path class="st29" d="M1052.7,16.3c2.3-2.3,13,8.4,10.7,10.7l-39.8,31.3c-1.5,1.2-3.4-0.7-2.2-2.2L1052.7,16.3z"/>
				
					<linearGradient id="SVGID_20_" gradientUnits="userSpaceOnUse" x1="-860.6163" y1="3256.5964" x2="-879.2984" y2="3457.0063" gradientTransform="matrix(-0.7071 -0.7071 0.7071 -0.7071 -1726.6365 1601.8431)">
					<stop  offset="0" style="stop-color:#4042E2"/>
					<stop  offset="1" style="stop-color:#4F52FF"/>
				</linearGradient>
				<path class="st30" d="M1203.8-120.1l20.2,2l-27.7,27.7c-9.1,9.1-21.8,13.6-34.5,12.3L1203.8-120.1z"/>
				
					<linearGradient id="SVGID_21_" gradientUnits="userSpaceOnUse" x1="-254.3768" y1="3256.5964" x2="-273.059" y2="3457.0061" gradientTransform="matrix(0.7071 0.7071 0.7071 -0.7071 -950.7759 2377.7039)">
					<stop  offset="0" style="stop-color:#4042E2"/>
					<stop  offset="1" style="stop-color:#4F52FF"/>
				</linearGradient>
				<path class="st31" d="M1199.9-124.1l-2-20.2l-27.7,27.7c-9.1,9.1-13.6,21.8-12.3,34.5L1199.9-124.1z"/>
			</g>
		</g>
		<g>
			<path class="st32" d="M255,256l-12.2,1.8c-3.8-4.4-8.2-8.2-13.4-11.2l-0.3-12.3c0-0.4-0.3-0.8-0.7-0.9l-14.1-4.4
				c-0.4-0.1-0.9,0-1.1,0.4l-7.3,9.9c-5.9-0.4-11.8,0.1-17.4,1.5l-9-8.5c-0.3-0.3-0.8-0.4-1.2-0.2l-13.1,6.8c-0.4,0.2-0.6,0.6-0.5,1
				l1.8,12.2c-4.4,3.8-8.2,8.2-11.2,13.4l-12.3,0.3c-0.4,0-0.8,0.3-0.9,0.7l-4.4,14.1c-0.1,0.4,0,0.9,0.4,1.1l9.9,7.3
				c-0.4,5.9,0.1,11.8,1.5,17.4l-8.5,9c-0.3,0.3-0.4,0.8-0.2,1.2l6.8,13.1c0.2,0.4,0.6,0.6,1,0.5l12.2-1.8
				c3.8,4.4,8.2,8.2,13.4,11.2l0.3,12.3c0,0.4,0.3,0.8,0.7,0.9l14.1,4.4c0.4,0.1,0.9,0,1.1-0.4l7.3-9.9c5.9,0.4,11.8-0.1,17.4-1.5
				l9,8.5c0.3,0.3,0.8,0.4,1.2,0.2l13.1-6.8c0.4-0.2,0.6-0.6,0.5-1l-1.8-12.2c4.4-3.8,8.2-8.2,11.2-13.4l12.3-0.3
				c0.4,0,0.8-0.3,0.9-0.7l4.4-14.1c0.1-0.4,0-0.9-0.4-1.1l-9.9-7.3c0.4-5.9-0.1-11.8-1.5-17.4l8.5-9c0.3-0.3,0.4-0.8,0.2-1.2
				l-6.8-13.1C255.8,256.1,255.4,255.9,255,256z"/>
			<g>
				<path class="st3" d="M212.6,302.6c-2.8,3.2-7,5.1-11.6,4.9c-7.9-0.5-14-7.3-13.5-15.2c0.5-7.9,7.3-14,15.2-13.5
					c7.9,0.5,14,7.3,13.5,15.2C216,297.3,214.6,300.3,212.6,302.6z M192.8,285.3c-1.7,2-2.8,4.5-2.9,7.2
					c-0.4,6.6,4.7,12.2,11.2,12.6c6.6,0.4,12.2-4.7,12.6-11.2c0.2-3.2-0.9-6.2-3-8.6c-2.1-2.4-5-3.8-8.2-4c-3.2-0.2-6.2,0.9-8.6,3
					C193.5,284.6,193.1,284.9,192.8,285.3z"/>
			</g>
			<g>
				<path class="st32" d="M279.9,275.4c-0.2,0.2-0.4,0.3-0.6,0.4c-0.7,0.2-1.3-0.2-1.5-0.9c-0.4-1.5-0.8-3.1-1.3-4.6
					c-0.2-0.6,0.2-1.3,0.8-1.5c0.6-0.2,1.3,0.2,1.5,0.8c0.5,1.6,0.9,3.2,1.3,4.8C280.3,274.7,280.2,275.1,279.9,275.4z"/>
				<path class="st32" d="M264.1,344.2c-0.4,0.5-1.2,0.6-1.7,0.1c-0.5-0.4-0.6-1.2-0.2-1.7c1.9-2.4,3.7-4.8,5.4-7.4
					c0.4-0.6,1.1-0.7,1.7-0.4c0.6,0.4,0.7,1.1,0.4,1.7C268,339.2,266.2,341.8,264.1,344.2C264.2,344.2,264.2,344.2,264.1,344.2z
					 M253.5,354.9c0,0-0.1,0.1-0.1,0.1c-2.4,2-5,3.9-7.6,5.6c-0.6,0.4-1.3,0.2-1.7-0.4c-0.4-0.6-0.2-1.3,0.4-1.7
					c2.5-1.7,5-3.5,7.4-5.4c0.5-0.4,1.3-0.4,1.7,0.2C253.9,353.8,253.9,354.5,253.5,354.9z M276.5,323.3c-0.3,0.4-0.9,0.5-1.4,0.3
					c-0.6-0.2-0.9-1-0.7-1.6c1.1-2.8,2.1-5.7,2.9-8.7c0.2-0.6,0.8-1,1.5-0.9c0.6,0.2,1,0.8,0.9,1.5c-0.8,3-1.8,6-3,8.9
					C276.7,323.1,276.6,323.2,276.5,323.3z M232.7,367.5c-0.1,0.1-0.3,0.2-0.5,0.3c-2.9,1.2-5.9,2.2-8.9,3.1
					c-0.6,0.2-1.3-0.2-1.5-0.8c-0.2-0.6,0.2-1.3,0.8-1.5c2.9-0.8,5.8-1.8,8.6-3c0.6-0.3,1.3,0,1.6,0.7
					C233.1,366.6,233,367.1,232.7,367.5z M281.9,299.6c-0.2,0.3-0.6,0.4-1,0.4c-0.7,0-1.2-0.6-1.1-1.3c0-0.4,0-0.7,0.1-1.1
					c0.2-2.7,0.2-5.4,0.1-8.1c0-0.7,0.5-1.2,1.2-1.3c0.7,0,1.2,0.5,1.3,1.2c0.1,2.7,0.1,5.5-0.1,8.3c0,0.4,0,0.7-0.1,1.1
					C282.2,299.2,282.1,299.4,281.9,299.6z M209.1,373.1c-0.2,0.2-0.5,0.4-0.8,0.4c-3.1,0.2-6.3,0.3-9.4,0.2c-0.7,0-1.2-0.6-1.2-1.3
					c0-0.7,0.6-1.2,1.3-1.2c3,0.1,6.1,0,9.1-0.2c0.7-0.1,1.3,0.4,1.3,1.1C209.4,372.5,209.3,372.8,209.1,373.1z M184.9,371.3
					c-0.3,0.3-0.7,0.5-1.2,0.4c-3.1-0.7-6.1-1.6-9.1-2.6c-0.6-0.2-1-0.9-0.7-1.6c0.2-0.6,0.9-1,1.6-0.7c2.9,1,5.8,1.9,8.8,2.6
					c0.7,0.1,1.1,0.8,0.9,1.5C185.1,371,185,371.2,184.9,371.3z"/>
				<path class="st32" d="M162.3,362.3c-0.4,0.4-1,0.5-1.5,0.2c-1.4-0.8-2.8-1.7-4.2-2.6c-0.6-0.4-0.7-1.1-0.3-1.7
					c0.4-0.6,1.1-0.7,1.7-0.3c1.3,0.9,2.7,1.8,4,2.6c0.6,0.3,0.8,1.1,0.4,1.7C162.4,362.2,162.3,362.2,162.3,362.3z"/>
			</g>
			<g>
				<path class="st32" d="M125.1,310.7c-0.2,0.2-0.4,0.3-0.7,0.4c-0.7,0.1-1.3-0.3-1.4-0.9c-0.3-1.6-0.6-3.2-0.9-4.9
					c-0.1-0.7,0.4-1.3,1-1.4c0.7-0.1,1.3,0.4,1.4,1c0.2,1.6,0.5,3.2,0.9,4.7C125.4,310,125.3,310.4,125.1,310.7z"/>
				<path class="st32" d="M233.1,220.6c-0.3,0.4-0.9,0.5-1.4,0.3c-2.8-1.1-5.6-2.1-8.5-3c-0.6-0.2-1-0.9-0.8-1.5
					c0.2-0.6,0.9-1,1.5-0.8c3,0.8,5.9,1.9,8.8,3c0.6,0.3,0.9,1,0.7,1.6C233.3,220.4,233.2,220.5,233.1,220.6z M209.9,214.9
					c-0.2,0.3-0.6,0.4-1,0.4c-0.9-0.1-1.7-0.1-2.6-0.2c-2.1-0.1-4.3-0.2-6.4-0.1c-0.7,0-1.2-0.5-1.2-1.2c0-0.7,0.5-1.2,1.2-1.2
					c2.2-0.1,4.4,0,6.6,0.1c0.9,0.1,1.8,0.1,2.7,0.2c0.7,0.1,1.2,0.7,1.1,1.3C210.2,214.5,210.1,214.7,209.9,214.9z M123.4,291.1
					c-0.2,0.3-0.6,0.4-1,0.4c-0.7,0-1.2-0.6-1.2-1.3c0-0.6,0-1.2,0.1-1.7c0.1-2.5,0.4-5,0.8-7.5c0.1-0.7,0.7-1.1,1.4-1
					c0.7,0.1,1.1,0.7,1,1.4c-0.4,2.4-0.6,4.8-0.8,7.3c0,0.6-0.1,1.1-0.1,1.7C123.7,290.6,123.5,290.9,123.4,291.1z M186,216.3
					c-0.2,0.2-0.4,0.3-0.7,0.4c-2.9,0.6-5.8,1.4-8.7,2.4c-0.6,0.2-1.3-0.1-1.5-0.8c-0.2-0.6,0.1-1.3,0.8-1.5c2.9-1,5.9-1.8,8.9-2.5
					c0.7-0.1,1.3,0.3,1.4,0.9C186.4,215.6,186.3,216,186,216.3z M127.8,267.6c-0.3,0.4-0.8,0.5-1.3,0.3c-0.6-0.2-1-0.9-0.7-1.6
					c1-2.9,2.2-5.8,3.6-8.6c0.3-0.6,1-0.9,1.6-0.6c0.6,0.3,0.9,1,0.6,1.6c-1.3,2.7-2.5,5.5-3.5,8.3
					C128,267.4,127.9,267.5,127.8,267.6z M163.7,224.8c-0.1,0.1-0.2,0.2-0.3,0.3c-2.6,1.5-5.1,3.1-7.6,4.9c-0.5,0.4-1.3,0.3-1.7-0.3
					c-0.4-0.5-0.3-1.3,0.3-1.7c2.5-1.8,5.1-3.5,7.8-5c0.6-0.3,1.3-0.1,1.7,0.5C164.1,223.8,164,224.4,163.7,224.8z M139,246.5
					c-0.4,0.5-1.1,0.6-1.6,0.2c-0.5-0.4-0.6-1.2-0.2-1.7c1.3-1.7,2.6-3.4,4-5c0,0,0,0,0,0c0.6-0.7,1.3-1.4,1.9-2.1
					c0.5-0.5,1.2-0.5,1.7,0c0.5,0.5,0.5,1.3,0.1,1.7c-0.6,0.7-1.3,1.4-1.9,2.1C141.6,243.2,140.3,244.8,139,246.5
					C139.1,246.5,139,246.5,139,246.5z"/>
				<path class="st32" d="M250.2,230.3c-0.4,0.5-1.1,0.6-1.6,0.2c-1.3-1-2.6-1.9-3.9-2.8c-0.6-0.4-0.7-1.1-0.3-1.7
					c0.4-0.6,1.1-0.7,1.7-0.3c1.4,0.9,2.7,1.9,4,2.8C250.6,229,250.7,229.7,250.2,230.3C250.3,230.3,250.2,230.3,250.2,230.3z"/>
			</g>
			<path class="st3" d="M229.3,317.6c-9.4,10.7-24.5,15.4-38.9,10.9c-5-1.6-9.5-4.2-13.2-7.4c-10.7-9.4-15.4-24.5-10.9-38.9
				c6.1-19.4,26.9-30.3,46.3-24.2c0.8,0.3,1.7,0.6,2.5,0.9c1.4,0.6,2.8,1.2,4.2,1.9c0.2,0.1,0.4,0.2,0.5,0.3c0.1,0,0.1,0.1,0.2,0.1
				c0.4,0.4,0.5,1,0.3,1.5c-0.3,0.6-1.1,0.8-1.7,0.5c-2.1-1.2-4.4-2.2-6.7-2.9c-15-4.7-30.9,1.4-39.2,14c-1.6,2.4-2.9,5.1-3.9,7.9
				c0,0.1-0.1,0.2-0.1,0.4c0,0.1-0.1,0.2-0.1,0.3c-4.2,13.4,0.2,27.6,10.2,36.3c3.5,3.1,7.7,5.5,12.4,6.9
				c18.2,5.7,37.6-4.4,43.3-22.6c1.9-6,2.1-12.3,0.7-18.4c-0.2-0.7,0.2-1.3,0.9-1.5c0.4-0.1,0.8,0,1.1,0.3c0.2,0.2,0.3,0.4,0.4,0.6
				c1.6,6.5,1.3,13.3-0.7,19.7C235.2,309.4,232.6,313.9,229.3,317.6z"/>
		</g>
		<g>
			<g>
				<linearGradient id="SVGID_22_" gradientUnits="userSpaceOnUse" x1="537.037" y1="-108.323" x2="103.8216" y2="918.3612">
					<stop  offset="0" style="stop-color:#4042E2"/>
					<stop  offset="1" style="stop-color:#4F52FF"/>
				</linearGradient>
				<path class="st33" d="M540.1,369.5H282c-24,0-43.4-19.4-43.4-43.4V54.4c0-24,19.4-43.4,43.4-43.4h258.1
					c24,0,43.4,19.4,43.4,43.4v271.7C583.5,350.1,564,369.5,540.1,369.5z"/>
				<path class="st3" d="M541.6,360H281c-14.3,0-25.8-11.6-25.8-25.8V47.4c0-14.3,11.6-25.8,25.8-25.8h260.6
					c14.3,0,25.8,11.6,25.8,25.8v286.8C567.5,348.5,555.9,360,541.6,360z"/>
			</g>
			<path class="st4" d="M461.9,52.5H275.6c-5.4,0-9.8-4.4-9.8-9.8v-1.8c0-5.4,4.4-9.8,9.8-9.8h186.4c5.4,0,9.8,4.4,9.8,9.8v1.8
				C471.8,48.1,467.4,52.5,461.9,52.5z"/>
			<g>
				<linearGradient id="SVGID_23_" gradientUnits="userSpaceOnUse" x1="481.9289" y1="42.0977" x2="499.5085" y2="42.0977">
					<stop  offset="0" style="stop-color:#DAE3FE"/>
					<stop  offset="1" style="stop-color:#E9EFFD"/>
				</linearGradient>
				<path class="st34" d="M490.7,50.4c-4.8,0-8.8-3.7-8.8-8.3s3.9-8.3,8.8-8.3c4.8,0,8.8,3.7,8.8,8.3S495.6,50.4,490.7,50.4z
					 M490.7,36.1c-3.6,0-6.5,2.7-6.5,6c0,3.3,2.9,6,6.5,6c3.6,0,6.5-2.7,6.5-6C497.2,38.8,494.3,36.1,490.7,36.1z"/>
				<linearGradient id="SVGID_24_" gradientUnits="userSpaceOnUse" x1="511.6791" y1="42.0977" x2="529.2587" y2="42.0977">
					<stop  offset="0" style="stop-color:#DAE3FE"/>
					<stop  offset="1" style="stop-color:#E9EFFD"/>
				</linearGradient>
				<path class="st35" d="M520.5,50.4c-4.8,0-8.8-3.7-8.8-8.3s3.9-8.3,8.8-8.3c4.8,0,8.8,3.7,8.8,8.3S525.3,50.4,520.5,50.4z
					 M520.5,36.1c-3.6,0-6.5,2.7-6.5,6c0,3.3,2.9,6,6.5,6s6.5-2.7,6.5-6C527,38.8,524,36.1,520.5,36.1z"/>
				<linearGradient id="SVGID_25_" gradientUnits="userSpaceOnUse" x1="541.4293" y1="42.0977" x2="559.0089" y2="42.0977">
					<stop  offset="0" style="stop-color:#DAE3FE"/>
					<stop  offset="1" style="stop-color:#E9EFFD"/>
				</linearGradient>
				<path class="st36" d="M550.2,50.4c-4.8,0-8.8-3.7-8.8-8.3s3.9-8.3,8.8-8.3s8.8,3.7,8.8,8.3S555.1,50.4,550.2,50.4z M550.2,36.1
					c-3.6,0-6.5,2.7-6.5,6c0,3.3,2.9,6,6.5,6s6.5-2.7,6.5-6C556.7,38.8,553.8,36.1,550.2,36.1z"/>
			</g>
			<path class="st16" d="M460.3,46.5H277.5c-2.5,0-4.5-2-4.5-4.5c0-2.5,2-4.5,4.5-4.5h182.9c2.5,0,4.5,2,4.5,4.5
				C464.9,44.5,462.8,46.5,460.3,46.5z"/>
			<g>
				<linearGradient id="SVGID_26_" gradientUnits="userSpaceOnUse" x1="300.2093" y1="-17.1554" x2="244.3893" y2="118.7538">
					<stop  offset="0" style="stop-color:#4042E2"/>
					<stop  offset="1" style="stop-color:#4F52FF"/>
				</linearGradient>
				<path class="st37" d="M276.5,53.2l-20.7,21c-0.9,0.9-0.8,2.3,0.1,3.1l0.2,0.1c0.8,0.7,2.1,0.6,2.8-0.3l18.9-22.8L276.5,53.2z"/>
				
					<linearGradient id="SVGID_27_" gradientUnits="userSpaceOnUse" x1="1710.7482" y1="874.3235" x2="1738.1145" y2="874.3235" gradientTransform="matrix(0.9025 -0.4307 0.4307 0.9025 -1647.4766 -4.1752)">
					<stop  offset="0" style="stop-color:#53D8FF"/>
					<stop  offset="1" style="stop-color:#3840F7"/>
				</linearGradient>
				<path class="st38" d="M297.7,36.3c3.2,6.7,0.3,14.8-6.6,18c-6.8,3.3-14.9,0.5-18.1-6.2c-3.2-6.7-0.3-14.8,6.6-18
					C286.4,26.8,294.5,29.6,297.7,36.3z"/>
				<linearGradient id="SVGID_28_" gradientUnits="userSpaceOnUse" x1="308.3879" y1="-13.7962" x2="252.568" y2="122.1129">
					<stop  offset="0" style="stop-color:#4042E2"/>
					<stop  offset="1" style="stop-color:#4F52FF"/>
				</linearGradient>
				<path class="st39" d="M279,28.7c-7.6,3.6-10.9,12.6-7.3,20.1c3.6,7.5,12.6,10.6,20.2,6.9c7.6-3.6,10.9-12.6,7.3-20.1
					C295.6,28.2,286.5,25.1,279,28.7z M290.9,53.7c-6.5,3.1-14.2,0.4-17.2-5.9c-3-6.4-0.2-14,6.2-17.1c6.5-3.1,14.2-0.4,17.2,5.9
					C300.2,43,297.4,50.6,290.9,53.7z"/>
			</g>
			<path class="st32" d="M453.1,347.7H287.1c-8.3,0-15-6.7-15-15V251c0-8.3,6.7-15,15-15h166.1c8.3,0,15,6.7,15,15v81.8
				C468.1,341,461.4,347.7,453.1,347.7z"/>
			<g>
				<linearGradient id="SVGID_29_" gradientUnits="userSpaceOnUse" x1="283.4448" y1="251.3333" x2="463.05" y2="251.3333">
					<stop  offset="0" style="stop-color:#DAE3FE"/>
					<stop  offset="1" style="stop-color:#E9EFFD"/>
				</linearGradient>
				<path class="st40" d="M457.8,256.6H288.7c-2.9,0-5.3-2.4-5.3-5.3c0-2.9,2.4-5.3,5.3-5.3h169.1c2.9,0,5.3,2.4,5.3,5.3
					S460.7,256.6,457.8,256.6z"/>
				<linearGradient id="SVGID_30_" gradientUnits="userSpaceOnUse" x1="283.2889" y1="271.4808" x2="462.894" y2="271.4808">
					<stop  offset="0" style="stop-color:#DAE3FE"/>
					<stop  offset="1" style="stop-color:#E9EFFD"/>
				</linearGradient>
				<path class="st41" d="M457.6,276.8H288.6c-2.9,0-5.3-2.4-5.3-5.3c0-2.9,2.4-5.3,5.3-5.3h169.1c2.9,0,5.3,2.4,5.3,5.3
					C462.9,274.4,460.5,276.8,457.6,276.8z"/>
				<linearGradient id="SVGID_31_" gradientUnits="userSpaceOnUse" x1="283.7802" y1="292.8998" x2="463.3853" y2="292.8998">
					<stop  offset="0" style="stop-color:#DAE3FE"/>
					<stop  offset="1" style="stop-color:#E9EFFD"/>
				</linearGradient>
				<path class="st42" d="M458.1,298.2H289.1c-2.9,0-5.3-2.4-5.3-5.3s2.4-5.3,5.3-5.3h169.1c2.9,0,5.3,2.4,5.3,5.3
					C463.4,295.8,461,298.2,458.1,298.2z"/>
				<linearGradient id="SVGID_32_" gradientUnits="userSpaceOnUse" x1="283.6242" y1="313.0472" x2="463.2294" y2="313.0472">
					<stop  offset="0" style="stop-color:#DAE3FE"/>
					<stop  offset="1" style="stop-color:#E9EFFD"/>
				</linearGradient>
				<path class="st43" d="M458,318.3H288.9c-2.9,0-5.3-2.4-5.3-5.3c0-2.9,2.4-5.3,5.3-5.3H458c2.9,0,5.3,2.4,5.3,5.3
					C463.2,316,460.9,318.3,458,318.3z"/>
				<linearGradient id="SVGID_33_" gradientUnits="userSpaceOnUse" x1="283.3605" y1="331.4678" x2="462.9657" y2="331.4678">
					<stop  offset="0" style="stop-color:#DAE3FE"/>
					<stop  offset="1" style="stop-color:#E9EFFD"/>
				</linearGradient>
				<path class="st44" d="M457.7,336.7H288.6c-2.9,0-5.3-2.4-5.3-5.3c0-2.9,2.4-5.3,5.3-5.3h169.1c2.9,0,5.3,2.4,5.3,5.3
					C463,334.4,460.6,336.7,457.7,336.7z"/>
			</g>
			<path class="st4" d="M545.4,180.4h-58.6c-6.6,0-12-5.4-12-12V80.3c0-6.6,5.4-12,12-12h58.6c6.6,0,12,5.4,12,12v88.1
				C557.3,175,552,180.4,545.4,180.4z"/>
			<path class="st4" d="M545.4,347.7h-58.6c-6.6,0-12-5.4-12-12V202.3c0-6.6,5.4-12,12-12h58.6c6.6,0,12,5.4,12,12v133.4
				C557.3,342.3,552,347.7,545.4,347.7z"/>
			<linearGradient id="SVGID_34_" gradientUnits="userSpaceOnUse" x1="282.5157" y1="223.7121" x2="461.0828" y2="223.7121">
				<stop  offset="0" style="stop-color:#4042E2"/>
				<stop  offset="1" style="stop-color:#4F52FF"/>
			</linearGradient>
			<path class="st45" d="M455.8,229h-168c-2.9,0-5.3-2.4-5.3-5.3s2.4-5.3,5.3-5.3h168c2.9,0,5.3,2.4,5.3,5.3
				C461.1,226.6,458.7,229,455.8,229z"/>
			<g>
				<linearGradient id="SVGID_35_" gradientUnits="userSpaceOnUse" x1="279.6374" y1="138.8763" x2="461.0828" y2="138.8763">
					<stop  offset="0" style="stop-color:#4042E2"/>
					<stop  offset="1" style="stop-color:#4F52FF"/>
				</linearGradient>
				<path class="st46" d="M435.7,209.4H305.1c-14,0-25.4-11.4-25.4-25.4V93.8c0-14,11.4-25.4,25.4-25.4h130.6
					c14,0,25.4,11.4,25.4,25.4V184C461.1,198,449.7,209.4,435.7,209.4z"/>
				<linearGradient id="SVGID_36_" gradientUnits="userSpaceOnUse" x1="304.0437" y1="145.6028" x2="426.4943" y2="145.6028">
					<stop  offset="0" style="stop-color:#DAE3FE"/>
					<stop  offset="1" style="stop-color:#E9EFFD"/>
				</linearGradient>
				<path class="st47" d="M308.6,188.3h113.3c3.5,0,5.7-3.8,3.9-6.9L381,105.2c-1.9-3.2-6.5-2.9-8.1,0.4L351.3,153
					c-1.3,2.8-4.9,3.6-7.2,1.5l-8.8-8c-2-1.9-5.2-1.5-6.8,0.8l-23.6,33.9C302.8,184.2,304.9,188.3,308.6,188.3z"/>
				<linearGradient id="SVGID_37_" gradientUnits="userSpaceOnUse" x1="404.0976" y1="102.8562" x2="436.6765" y2="102.8562">
					<stop  offset="0" style="stop-color:#DAE3FE"/>
					<stop  offset="1" style="stop-color:#E9EFFD"/>
				</linearGradient>
				<circle class="st48" cx="420.4" cy="102.9" r="16.3"/>
			</g>
		</g>
		<g>
			<g>
				<linearGradient id="SVGID_38_" gradientUnits="userSpaceOnUse" x1="683.2504" y1="8.5325" x2="250.0349" y2="1035.2168">
					<stop  offset="0" style="stop-color:#4042E2"/>
					<stop  offset="1" style="stop-color:#4F52FF"/>
				</linearGradient>
				<path class="st49" d="M686.3,486.4H428.2c-24,0-43.4-19.4-43.4-43.4V171.3c0-24,19.4-43.4,43.4-43.4h258.1
					c24,0,43.4,19.4,43.4,43.4V443C729.7,467,710.3,486.4,686.3,486.4z"/>
				<path class="st4" d="M687.8,476.9H427.3c-14.3,0-25.8-11.6-25.8-25.8V164.2c0-14.3,11.6-25.8,25.8-25.8h260.6
					c14.3,0,25.8,11.6,25.8,25.8v286.8C713.7,465.3,702.1,476.9,687.8,476.9z"/>
			</g>
			<path class="st16" d="M607.2,169.4H422.7c-5.9,0-10.7-4.8-10.7-10.7v0c0-5.9,4.8-10.7,10.7-10.7h184.6c5.9,0,10.7,4.8,10.7,10.7
				v0C618,164.6,613.2,169.4,607.2,169.4z"/>
			<g>
				<linearGradient id="SVGID_39_" gradientUnits="userSpaceOnUse" x1="628.1422" y1="158.9532" x2="645.7218" y2="158.9532">
					<stop  offset="0" style="stop-color:#DAE3FE"/>
					<stop  offset="1" style="stop-color:#E9EFFD"/>
				</linearGradient>
				<path class="st50" d="M636.9,167.2c-4.8,0-8.8-3.7-8.8-8.3s3.9-8.3,8.8-8.3s8.8,3.7,8.8,8.3S641.8,167.2,636.9,167.2z
					 M636.9,153c-3.6,0-6.5,2.7-6.5,6c0,3.3,2.9,6,6.5,6s6.5-2.7,6.5-6C643.4,155.7,640.5,153,636.9,153z"/>
				<linearGradient id="SVGID_40_" gradientUnits="userSpaceOnUse" x1="657.8924" y1="158.9532" x2="675.472" y2="158.9532">
					<stop  offset="0" style="stop-color:#DAE3FE"/>
					<stop  offset="1" style="stop-color:#E9EFFD"/>
				</linearGradient>
				<path class="st51" d="M666.7,167.2c-4.8,0-8.8-3.7-8.8-8.3s3.9-8.3,8.8-8.3c4.8,0,8.8,3.7,8.8,8.3S671.5,167.2,666.7,167.2z
					 M666.7,153c-3.6,0-6.5,2.7-6.5,6c0,3.3,2.9,6,6.5,6c3.6,0,6.5-2.7,6.5-6C673.2,155.7,670.3,153,666.7,153z"/>
				<linearGradient id="SVGID_41_" gradientUnits="userSpaceOnUse" x1="687.6425" y1="158.9532" x2="705.2222" y2="158.9532">
					<stop  offset="0" style="stop-color:#DAE3FE"/>
					<stop  offset="1" style="stop-color:#E9EFFD"/>
				</linearGradient>
				<path class="st52" d="M696.4,167.2c-4.8,0-8.8-3.7-8.8-8.3s3.9-8.3,8.8-8.3c4.8,0,8.8,3.7,8.8,8.3S701.3,167.2,696.4,167.2z
					 M696.4,153c-3.6,0-6.5,2.7-6.5,6c0,3.3,2.9,6,6.5,6c3.6,0,6.5-2.7,6.5-6C702.9,155.7,700,153,696.4,153z"/>
			</g>
			<path class="st16" d="M606.6,163.4H423.7c-2.5,0-4.5-2-4.5-4.5c0-2.5,2-4.5,4.5-4.5h182.9c2.5,0,4.5,2,4.5,4.5
				C611.1,161.4,609,163.4,606.6,163.4z"/>
			<g>
				<linearGradient id="SVGID_42_" gradientUnits="userSpaceOnUse" x1="446.4226" y1="99.7002" x2="390.6026" y2="235.6093">
					<stop  offset="0" style="stop-color:#4042E2"/>
					<stop  offset="1" style="stop-color:#4F52FF"/>
				</linearGradient>
				<path class="st53" d="M422.7,170l-20.7,21c-0.9,0.9-0.8,2.3,0.1,3.1l0.2,0.1c0.8,0.7,2.1,0.6,2.8-0.3l18.9-22.8L422.7,170z"/>
				
					<linearGradient id="SVGID_43_" gradientUnits="userSpaceOnUse" x1="1792.3752" y1="1042.7582" x2="1819.7417" y2="1042.7582" gradientTransform="matrix(0.9025 -0.4307 0.4307 0.9025 -1647.4766 -4.1752)">
					<stop  offset="0" style="stop-color:#53D8FF"/>
					<stop  offset="1" style="stop-color:#3840F7"/>
				</linearGradient>
				<path class="st54" d="M444,153.2c3.2,6.7,0.3,14.8-6.6,18c-6.8,3.3-14.9,0.5-18.1-6.2c-3.2-6.7-0.3-14.8,6.6-18
					C432.6,143.7,440.8,146.5,444,153.2z"/>
				<linearGradient id="SVGID_44_" gradientUnits="userSpaceOnUse" x1="454.6012" y1="103.0593" x2="398.7813" y2="238.9684">
					<stop  offset="0" style="stop-color:#4042E2"/>
					<stop  offset="1" style="stop-color:#4F52FF"/>
				</linearGradient>
				<path class="st55" d="M425.2,145.6c-7.6,3.6-10.9,12.6-7.3,20.1c3.6,7.5,12.6,10.6,20.2,6.9c7.6-3.6,10.9-12.6,7.3-20.1
					C441.8,145,432.8,141.9,425.2,145.6z M437.1,170.6c-6.5,3.1-14.2,0.4-17.2-5.9c-3-6.4-0.2-14,6.2-17.1
					c6.5-3.1,14.2-0.4,17.2,5.9C446.4,159.8,443.6,167.5,437.1,170.6z"/>
			</g>
			<path class="st32" d="M670.6,229H444.5c-2.9,0-5.3-2.4-5.3-5.3s2.4-5.3,5.3-5.3h226.2c2.9,0,5.3,2.4,5.3,5.3S673.5,229,670.6,229
				z"/>
			<path class="st32" d="M643.8,208.8H467.1c-2.9,0-5.3-2.4-5.3-5.3s2.4-5.3,5.3-5.3h176.7c2.9,0,5.3,2.4,5.3,5.3
				C649.1,206.4,646.7,208.8,643.8,208.8z"/>
			<g>
				<path class="st3" d="M536.6,454.7H432.9c-8.3,0-15-6.7-15-15v-182c0-8.3,6.7-15,15-15h103.7c8.3,0,15,6.7,15,15v182
					C551.6,448,544.9,454.7,536.6,454.7z"/>
				<g>
					<path class="st22" d="M538.6,263.3H430.2c-2.9,0-5.3-2.4-5.3-5.3c0-2.9,2.4-5.3,5.3-5.3h108.4c2.9,0,5.3,2.4,5.3,5.3
						C543.9,260.9,541.5,263.3,538.6,263.3z"/>
					<path class="st22" d="M538.5,283.4H430.1c-2.9,0-5.3-2.4-5.3-5.3c0-2.9,2.4-5.3,5.3-5.3h108.4c2.9,0,5.3,2.4,5.3,5.3
						C543.8,281.1,541.4,283.4,538.5,283.4z"/>
					<path class="st22" d="M538.8,304.9H430.5c-2.9,0-5.3-2.4-5.3-5.3c0-2.9,2.4-5.3,5.3-5.3h108.4c2.9,0,5.3,2.4,5.3,5.3
						C544.1,302.5,541.7,304.9,538.8,304.9z"/>
					<path class="st22" d="M538.7,325H430.3c-2.9,0-5.3-2.4-5.3-5.3c0-2.9,2.4-5.3,5.3-5.3h108.4c2.9,0,5.3,2.4,5.3,5.3
						C544,322.7,541.6,325,538.7,325z"/>
					<path class="st22" d="M538.5,343.4H430.2c-2.9,0-5.3-2.4-5.3-5.3c0-2.9,2.4-5.3,5.3-5.3h108.4c2.9,0,5.3,2.4,5.3,5.3
						C543.8,341.1,541.4,343.4,538.5,343.4z"/>
					<path class="st22" d="M538.4,363.6H430.1c-2.9,0-5.3-2.4-5.3-5.3c0-2.9,2.4-5.3,5.3-5.3h108.4c2.9,0,5.3,2.4,5.3,5.3
						C543.7,361.2,541.3,363.6,538.4,363.6z"/>
					<path class="st22" d="M538.8,385H430.4c-2.9,0-5.3-2.4-5.3-5.3c0-2.9,2.4-5.3,5.3-5.3h108.4c2.9,0,5.3,2.4,5.3,5.3
						C544,382.6,541.7,385,538.8,385z"/>
					<path class="st22" d="M538.7,405.2H430.3c-2.9,0-5.3-2.4-5.3-5.3c0-2.9,2.4-5.3,5.3-5.3h108.4c2.9,0,5.3,2.4,5.3,5.3
						C543.9,402.8,541.6,405.2,538.7,405.2z"/>
					<path class="st22" d="M538.4,424.2H430.1c-2.9,0-5.3-2.4-5.3-5.3c0-2.9,2.4-5.3,5.3-5.3h108.4c2.9,0,5.3,2.4,5.3,5.3
						C543.7,421.8,541.3,424.2,538.4,424.2z"/>
					<path class="st22" d="M538.8,445.6H430.4c-2.9,0-5.3-2.4-5.3-5.3c0-2.9,2.4-5.3,5.3-5.3h108.4c2.9,0,5.3,2.4,5.3,5.3
						C544,443.2,541.7,445.6,538.8,445.6z"/>
				</g>
			</g>
			<g>
				<path class="st3" d="M681.7,453.6H578c-8.3,0-15-6.7-15-15v-182c0-8.3,6.7-15,15-15h103.7c8.3,0,15,6.7,15,15v182
					C696.6,446.9,689.9,453.6,681.7,453.6z"/>
				<g class="st56">
					<path class="st22" d="M683.7,262.2H575.3c-2.9,0-5.3-2.4-5.3-5.3c0-2.9,2.4-5.3,5.3-5.3h108.4c2.9,0,5.3,2.4,5.3,5.3
						C688.9,259.8,686.6,262.2,683.7,262.2z"/>
					<path class="st22" d="M683.5,282.3H575.2c-2.9,0-5.3-2.4-5.3-5.3c0-2.9,2.4-5.3,5.3-5.3h108.4c2.9,0,5.3,2.4,5.3,5.3
						C688.8,279.9,686.5,282.3,683.5,282.3z"/>
					<path class="st22" d="M683.9,303.7H575.5c-2.9,0-5.3-2.4-5.3-5.3s2.4-5.3,5.3-5.3h108.4c2.9,0,5.3,2.4,5.3,5.3
						S686.8,303.7,683.9,303.7z"/>
					<path class="st22" d="M683.8,323.9H575.4c-2.9,0-5.3-2.4-5.3-5.3c0-2.9,2.4-5.3,5.3-5.3h108.4c2.9,0,5.3,2.4,5.3,5.3
						C689,321.5,686.7,323.9,683.8,323.9z"/>
					<path class="st22" d="M683.6,342.3H575.2c-2.9,0-5.3-2.4-5.3-5.3c0-2.9,2.4-5.3,5.3-5.3h108.4c2.9,0,5.3,2.4,5.3,5.3
						C688.9,339.9,686.5,342.3,683.6,342.3z"/>
					<path class="st22" d="M683.5,362.4H575.1c-2.9,0-5.3-2.4-5.3-5.3c0-2.9,2.4-5.3,5.3-5.3h108.4c2.9,0,5.3,2.4,5.3,5.3
						C688.8,360.1,686.4,362.4,683.5,362.4z"/>
					<path class="st22" d="M683.8,383.9H575.5c-2.9,0-5.3-2.4-5.3-5.3c0-2.9,2.4-5.3,5.3-5.3h108.4c2.9,0,5.3,2.4,5.3,5.3
						C689.1,381.5,686.7,383.9,683.8,383.9z"/>
					<path class="st22" d="M683.7,404H575.4c-2.9,0-5.3-2.4-5.3-5.3c0-2.9,2.4-5.3,5.3-5.3h108.4c2.9,0,5.3,2.4,5.3,5.3
						C689,401.6,686.6,404,683.7,404z"/>
					<path class="st22" d="M683.5,423H575.1c-2.9,0-5.3-2.4-5.3-5.3c0-2.9,2.4-5.3,5.3-5.3h108.4c2.9,0,5.3,2.4,5.3,5.3
						C688.8,420.7,686.4,423,683.5,423z"/>
					<path class="st22" d="M683.8,444.5H575.5c-2.9,0-5.3-2.4-5.3-5.3c0-2.9,2.4-5.3,5.3-5.3h108.4c2.9,0,5.3,2.4,5.3,5.3
						C689.1,442.1,686.7,444.5,683.8,444.5z"/>
				</g>
			</g>
		</g>
		<g>
			<g>
				<linearGradient id="SVGID_45_" gradientUnits="userSpaceOnUse" x1="879.8506" y1="97.6249" x2="441.6248" y2="1136.183">
					<stop  offset="0" style="stop-color:#4042E2"/>
					<stop  offset="1" style="stop-color:#4F52FF"/>
				</linearGradient>
				<path class="st57" d="M881.5,581.7H623.3c-24,0-43.4-19.4-43.4-43.4V261.1c0-24,19.4-43.4,43.4-43.4h258.1
					c24,0,43.4,19.4,43.4,43.4v277.2C924.8,562.3,905.4,581.7,881.5,581.7z"/>
				<path class="st3" d="M883,572H622.4c-14.3,0-25.8-11.6-25.8-25.8v-292c0-14.3,11.6-25.8,25.8-25.8H883
					c14.3,0,25.8,11.6,25.8,25.8v292C908.8,560.5,897.2,572,883,572z"/>
			</g>
			<g>
				<g>
					<linearGradient id="SVGID_46_" gradientUnits="userSpaceOnUse" x1="619.5323" y1="358.1963" x2="800.9777" y2="358.1963">
						<stop  offset="0" style="stop-color:#4042E2"/>
						<stop  offset="1" style="stop-color:#4F52FF"/>
					</linearGradient>
					<path class="st58" d="M775.6,428.7H645c-14,0-25.4-11.4-25.4-25.4v-90.2c0-14,11.4-25.4,25.4-25.4h130.6
						c14,0,25.4,11.4,25.4,25.4v90.2C801,417.3,789.6,428.7,775.6,428.7z"/>
					<linearGradient id="SVGID_47_" gradientUnits="userSpaceOnUse" x1="643.9386" y1="364.9228" x2="766.3892" y2="364.9228">
						<stop  offset="0" style="stop-color:#DAE3FE"/>
						<stop  offset="1" style="stop-color:#E9EFFD"/>
					</linearGradient>
					<path class="st59" d="M648.5,407.6h113.3c3.5,0,5.7-3.8,3.9-6.9l-44.9-76.3c-1.9-3.2-6.5-2.9-8.1,0.4l-21.7,47.5
						c-1.3,2.8-4.9,3.6-7.2,1.5l-8.8-8c-2-1.9-5.2-1.5-6.8,0.8l-23.6,33.9C642.7,403.5,644.8,407.6,648.5,407.6z"/>
					<linearGradient id="SVGID_48_" gradientUnits="userSpaceOnUse" x1="743.9926" y1="322.1761" x2="776.5714" y2="322.1761">
						<stop  offset="0" style="stop-color:#DAE3FE"/>
						<stop  offset="1" style="stop-color:#E9EFFD"/>
					</linearGradient>
					<circle class="st60" cx="760.3" cy="322.2" r="16.3"/>
				</g>
				<path class="st16" d="M802.4,259.2H617.8c-5.9,0-10.7-4.8-10.7-10.7v0c0-5.9,4.8-10.7,10.7-10.7h184.6c5.9,0,10.7,4.8,10.7,10.7
					v0C813.1,254.4,808.3,259.2,802.4,259.2z"/>
				<g>
					<linearGradient id="SVGID_49_" gradientUnits="userSpaceOnUse" x1="823.2852" y1="248.7535" x2="840.8647" y2="248.7535">
						<stop  offset="0" style="stop-color:#DAE3FE"/>
						<stop  offset="1" style="stop-color:#E9EFFD"/>
					</linearGradient>
					<path class="st61" d="M832.1,257c-4.8,0-8.8-3.7-8.8-8.3s3.9-8.3,8.8-8.3s8.8,3.7,8.8,8.3S836.9,257,832.1,257z M832.1,242.8
						c-3.6,0-6.5,2.7-6.5,6c0,3.3,2.9,6,6.5,6s6.5-2.7,6.5-6C838.6,245.5,835.7,242.8,832.1,242.8z"/>
					<linearGradient id="SVGID_50_" gradientUnits="userSpaceOnUse" x1="853.0353" y1="248.7535" x2="870.6149" y2="248.7535">
						<stop  offset="0" style="stop-color:#DAE3FE"/>
						<stop  offset="1" style="stop-color:#E9EFFD"/>
					</linearGradient>
					<path class="st62" d="M861.8,257c-4.8,0-8.8-3.7-8.8-8.3s3.9-8.3,8.8-8.3c4.8,0,8.8,3.7,8.8,8.3S866.7,257,861.8,257z
						 M861.8,242.8c-3.6,0-6.5,2.7-6.5,6c0,3.3,2.9,6,6.5,6s6.5-2.7,6.5-6C868.3,245.5,865.4,242.8,861.8,242.8z"/>
					<linearGradient id="SVGID_51_" gradientUnits="userSpaceOnUse" x1="882.7855" y1="248.7535" x2="900.3651" y2="248.7535">
						<stop  offset="0" style="stop-color:#DAE3FE"/>
						<stop  offset="1" style="stop-color:#E9EFFD"/>
					</linearGradient>
					<path class="st63" d="M891.6,257c-4.8,0-8.8-3.7-8.8-8.3s3.9-8.3,8.8-8.3c4.8,0,8.8,3.7,8.8,8.3S896.4,257,891.6,257z
						 M891.6,242.8c-3.6,0-6.5,2.7-6.5,6c0,3.3,2.9,6,6.5,6c3.6,0,6.5-2.7,6.5-6C898.1,245.5,895.2,242.8,891.6,242.8z"/>
				</g>
				<path class="st16" d="M801.7,253.2H618.8c-2.5,0-4.5-2-4.5-4.5c0-2.5,2-4.5,4.5-4.5h182.9c2.5,0,4.5,2,4.5,4.5
					C806.2,251.2,804.2,253.2,801.7,253.2z"/>
				<g>
					<linearGradient id="SVGID_52_" gradientUnits="userSpaceOnUse" x1="641.5655" y1="189.5005" x2="585.7455" y2="325.4096">
						<stop  offset="0" style="stop-color:#4042E2"/>
						<stop  offset="1" style="stop-color:#4F52FF"/>
					</linearGradient>
					<path class="st64" d="M617.9,259.8l-20.7,21c-0.9,0.9-0.8,2.3,0.1,3.1l0.2,0.1c0.8,0.7,2.1,0.6,2.8-0.3l18.9-22.8L617.9,259.8z
						"/>
					
						<linearGradient id="SVGID_53_" gradientUnits="userSpaceOnUse" x1="1929.8135" y1="1207.8496" x2="1957.1799" y2="1207.8496" gradientTransform="matrix(0.9025 -0.4307 0.4307 0.9025 -1647.4766 -4.1752)">
						<stop  offset="0" style="stop-color:#53D8FF"/>
						<stop  offset="1" style="stop-color:#3840F7"/>
					</linearGradient>
					<path class="st65" d="M639.1,243c3.2,6.7,0.3,14.8-6.6,18c-6.8,3.3-14.9,0.5-18.1-6.2c-3.2-6.7-0.3-14.8,6.6-18
						C627.8,233.5,635.9,236.3,639.1,243z"/>
					<linearGradient id="SVGID_54_" gradientUnits="userSpaceOnUse" x1="649.7442" y1="192.8596" x2="593.9243" y2="328.7686">
						<stop  offset="0" style="stop-color:#4042E2"/>
						<stop  offset="1" style="stop-color:#4F52FF"/>
					</linearGradient>
					<path class="st66" d="M620.3,235.4c-7.6,3.6-10.9,12.6-7.3,20.1c3.6,7.5,12.6,10.6,20.2,6.9c7.6-3.6,10.9-12.6,7.3-20.1
						C636.9,234.8,627.9,231.7,620.3,235.4z M632.2,260.4c-6.5,3.1-14.2,0.4-17.2-5.9c-3-6.4-0.2-14,6.2-17.1
						c6.5-3.1,14.2-0.4,17.2,5.9C641.5,249.6,638.7,257.3,632.2,260.4z"/>
				</g>
				<path class="st32" d="M795.7,453.6H624.8c-2.9,0-5.3-2.4-5.3-5.3c0-2.9,2.4-5.3,5.3-5.3h170.9c2.9,0,5.3,2.4,5.3,5.3
					C801,451.2,798.6,453.6,795.7,453.6z"/>
				<path class="st32" d="M795.5,473.7H624.7c-2.9,0-5.3-2.4-5.3-5.3c0-2.9,2.4-5.3,5.3-5.3h170.9c2.9,0,5.3,2.4,5.3,5.3
					C800.8,471.4,798.5,473.7,795.5,473.7z"/>
				<path class="st4" d="M788.8,561.8H631.3c-6.6,0-12-5.4-12-12v-53.2c0-6.6,5.4-12,12-12h157.5c6.6,0,12,5.4,12,12v53.2
					C800.8,556.4,795.5,561.8,788.8,561.8z"/>
				<path class="st16" d="M879.1,380.5h-46.6c-11.1,0-20.1-9-20.1-20.1v-52.6c0-11.1,9-20.1,20.1-20.1h46.6c11.1,0,20.1,9,20.1,20.1
					v52.6C899.2,371.5,890.2,380.5,879.1,380.5z"/>
				<path class="st16" d="M879.1,494.4h-46.6c-11.1,0-20.1-9-20.1-20.1v-52.6c0-11.1,9-20.1,20.1-20.1h46.6c11.1,0,20.1,9,20.1,20.1
					v52.6C899.2,485.4,890.2,494.4,879.1,494.4z"/>
				<path class="st16" d="M879.1,561.8h-46.6c-11.1,0-20.1-9-20.1-20.1v-20.2c0-11.1,9-20.1,20.1-20.1h46.6c11.1,0,20.1,9,20.1,20.1
					v20.2C899.2,552.8,890.2,561.8,879.1,561.8z"/>
				<path class="st16" d="M894.7,395.2h-77.9c-2.5,0-4.5-2-4.5-4.5c0-2.5,2-4.5,4.5-4.5h77.9c2.5,0,4.5,2,4.5,4.5
					C899.2,393.2,897.2,395.2,894.7,395.2z"/>
			</g>
		</g>
		<g>
			<g>
				<linearGradient id="SVGID_55_" gradientUnits="userSpaceOnUse" x1="1102.0487" y1="208.724" x2="663.8231" y2="1247.282">
					<stop  offset="0" style="stop-color:#4042E2"/>
					<stop  offset="1" style="stop-color:#4F52FF"/>
				</linearGradient>
				<path class="st67" d="M1103.7,692.8H845.5c-24,0-43.4-19.4-43.4-43.4V372.2c0-24,19.4-43.4,43.4-43.4h258.1
					c24,0,43.4,19.4,43.4,43.4v277.2C1147,673.4,1127.6,692.8,1103.7,692.8z"/>
				<path class="st4" d="M1105.2,683.1H844.6c-14.3,0-25.8-11.6-25.8-25.8v-292c0-14.3,11.6-25.8,25.8-25.8h260.6
					c14.3,0,25.8,11.6,25.8,25.8v292C1131,671.6,1119.4,683.1,1105.2,683.1z"/>
			</g>
			<linearGradient id="SVGID_56_" gradientUnits="userSpaceOnUse" x1="851.5164" y1="469.2953" x2="1101.4478" y2="469.2953">
				<stop  offset="0" style="stop-color:#4042E2"/>
				<stop  offset="1" style="stop-color:#4F52FF"/>
			</linearGradient>
			<path class="st68" d="M1076,539.8H876.9c-14,0-25.4-11.4-25.4-25.4v-90.2c0-14,11.4-25.4,25.4-25.4H1076
				c14,0,25.4,11.4,25.4,25.4v90.2C1101.4,528.4,1090.1,539.8,1076,539.8z"/>
			<linearGradient id="SVGID_57_" gradientUnits="userSpaceOnUse" x1="829.2665" y1="359.558" x2="1035.3247" y2="359.558">
				<stop  offset="0" style="stop-color:#DAE3FE"/>
				<stop  offset="1" style="stop-color:#E9EFFD"/>
			</linearGradient>
			<path class="st69" d="M1024.6,370.3H840c-5.9,0-10.7-4.8-10.7-10.7l0,0c0-5.9,4.8-10.7,10.7-10.7h184.6c5.9,0,10.7,4.8,10.7,10.7
				l0,0C1035.3,365.5,1030.5,370.3,1024.6,370.3z"/>
			<g>
				<linearGradient id="SVGID_58_" gradientUnits="userSpaceOnUse" x1="1045.4833" y1="359.8526" x2="1063.0629" y2="359.8526">
					<stop  offset="0" style="stop-color:#DAE3FE"/>
					<stop  offset="1" style="stop-color:#E9EFFD"/>
				</linearGradient>
				<path class="st70" d="M1054.3,368.1c-4.8,0-8.8-3.7-8.8-8.3c0-4.6,3.9-8.3,8.8-8.3c4.8,0,8.8,3.7,8.8,8.3
					C1063.1,364.4,1059.1,368.1,1054.3,368.1z M1054.3,353.9c-3.6,0-6.5,2.7-6.5,6c0,3.3,2.9,6,6.5,6c3.6,0,6.5-2.7,6.5-6
					C1060.8,356.6,1057.9,353.9,1054.3,353.9z"/>
				<linearGradient id="SVGID_59_" gradientUnits="userSpaceOnUse" x1="1075.2335" y1="359.8526" x2="1092.8131" y2="359.8526">
					<stop  offset="0" style="stop-color:#DAE3FE"/>
					<stop  offset="1" style="stop-color:#E9EFFD"/>
				</linearGradient>
				<path class="st71" d="M1084,368.1c-4.8,0-8.8-3.7-8.8-8.3c0-4.6,3.9-8.3,8.8-8.3c4.8,0,8.8,3.7,8.8,8.3
					C1092.8,364.4,1088.9,368.1,1084,368.1z M1084,353.9c-3.6,0-6.5,2.7-6.5,6c0,3.3,2.9,6,6.5,6c3.6,0,6.5-2.7,6.5-6
					C1090.5,356.6,1087.6,353.9,1084,353.9z"/>
				<linearGradient id="SVGID_60_" gradientUnits="userSpaceOnUse" x1="1104.9836" y1="359.8526" x2="1122.5632" y2="359.8526">
					<stop  offset="0" style="stop-color:#DAE3FE"/>
					<stop  offset="1" style="stop-color:#E9EFFD"/>
				</linearGradient>
				<path class="st72" d="M1113.8,368.1c-4.8,0-8.8-3.7-8.8-8.3c0-4.6,3.9-8.3,8.8-8.3s8.8,3.7,8.8,8.3
					C1122.6,364.4,1118.6,368.1,1113.8,368.1z M1113.8,353.9c-3.6,0-6.5,2.7-6.5,6c0,3.3,2.9,6,6.5,6c3.6,0,6.5-2.7,6.5-6
					C1120.3,356.6,1117.4,353.9,1113.8,353.9z"/>
			</g>
			<path class="st16" d="M1023.9,364.3H841c-2.5,0-4.5-2-4.5-4.5c0-2.5,2-4.5,4.5-4.5h182.9c2.5,0,4.5,2,4.5,4.5
				C1028.4,362.3,1026.4,364.3,1023.9,364.3z"/>
			<g>
				<linearGradient id="SVGID_61_" gradientUnits="userSpaceOnUse" x1="863.7637" y1="300.5994" x2="807.9437" y2="436.5087">
					<stop  offset="0" style="stop-color:#53D8FF"/>
					<stop  offset="1" style="stop-color:#3840F7"/>
				</linearGradient>
				<path class="st73" d="M840.1,370.9l-20.7,21c-0.9,0.9-0.8,2.3,0.1,3.1l0.2,0.1c0.8,0.7,2.1,0.6,2.8-0.3l18.9-22.8L840.1,370.9z"
					/>
				
					<linearGradient id="SVGID_62_" gradientUnits="userSpaceOnUse" x1="2082.4956" y1="1403.8156" x2="2109.8621" y2="1403.8156" gradientTransform="matrix(0.9025 -0.4307 0.4307 0.9025 -1647.4766 -4.1752)">
					<stop  offset="0" style="stop-color:#53D8FF"/>
					<stop  offset="1" style="stop-color:#3840F7"/>
				</linearGradient>
				<path class="st74" d="M861.3,354.1c3.2,6.7,0.3,14.8-6.6,18c-6.8,3.3-14.9,0.5-18.1-6.2c-3.2-6.7-0.3-14.8,6.6-18
					C850,344.6,858.1,347.4,861.3,354.1z"/>
				<linearGradient id="SVGID_63_" gradientUnits="userSpaceOnUse" x1="871.9423" y1="303.9586" x2="816.1224" y2="439.8678">
					<stop  offset="0" style="stop-color:#53D8FF"/>
					<stop  offset="1" style="stop-color:#3840F7"/>
				</linearGradient>
				<path class="st75" d="M842.5,346.5c-7.6,3.6-10.9,12.6-7.3,20.1c3.6,7.5,12.6,10.6,20.2,6.9c7.6-3.6,10.9-12.6,7.3-20.1
					C859.1,345.9,850.1,342.8,842.5,346.5z M854.4,371.5c-6.5,3.1-14.2,0.4-17.2-5.9c-3-6.4-0.2-14,6.2-17.1
					c6.5-3.1,14.2-0.4,17.2,5.9C863.7,360.7,860.9,368.4,854.4,371.5z"/>
			</g>
			<path class="st32" d="M1102.7,564.7H848.8c-2.9,0-5.3-2.4-5.3-5.3s2.4-5.3,5.3-5.3h253.9c2.9,0,5.3,2.4,5.3,5.3
				S1105.7,564.7,1102.7,564.7z"/>
			<path class="st32" d="M1102.5,584.8H848.6c-2.9,0-5.3-2.4-5.3-5.3c0-2.9,2.4-5.3,5.3-5.3h253.9c2.9,0,5.3,2.4,5.3,5.3
				C1107.8,582.5,1105.4,584.8,1102.5,584.8z"/>
			<linearGradient id="SVGID_64_" gradientUnits="userSpaceOnUse" x1="834.6652" y1="634.3373" x2="1016.1105" y2="634.3373">
				<stop  offset="0" style="stop-color:#DAE3FE"/>
				<stop  offset="1" style="stop-color:#E9EFFD"/>
			</linearGradient>
			<path class="st76" d="M996,672.9H854.8c-11.1,0-20.1-9-20.1-20.1v-36.9c0-11.1,9-20.1,20.1-20.1H996c11.1,0,20.1,9,20.1,20.1
				v36.9C1016.1,663.9,1007.1,672.9,996,672.9z"/>
			<linearGradient id="SVGID_65_" gradientUnits="userSpaceOnUse" x1="1027.6702" y1="634.3373" x2="1114.5043" y2="634.3373">
				<stop  offset="0" style="stop-color:#DAE3FE"/>
				<stop  offset="1" style="stop-color:#E9EFFD"/>
			</linearGradient>
			<path class="st77" d="M1094.4,672.9h-46.6c-11.1,0-20.1-9-20.1-20.1v-36.9c0-11.1,9-20.1,20.1-20.1h46.6c11.1,0,20.1,9,20.1,20.1
				v36.9C1114.5,663.9,1105.5,672.9,1094.4,672.9z"/>
			<g>
				<g>
					<linearGradient id="SVGID_66_" gradientUnits="userSpaceOnUse" x1="948.6478" y1="469.2953" x2="1008.1918" y2="469.2953">
						<stop  offset="0" style="stop-color:#DAE3FE"/>
						<stop  offset="1" style="stop-color:#E9EFFD"/>
					</linearGradient>
					<path class="st78" d="M1008.2,469.3c0,16.4-13.3,29.8-29.8,29.8s-29.8-13.3-29.8-29.8c0-16.4,13.3-29.8,29.8-29.8
						S1008.2,452.9,1008.2,469.3z M1006.4,469.3c0-15.4-12.5-28-28-28c-15.4,0-28,12.5-28,28c0,15.4,12.5,28,28,28
						C993.9,497.3,1006.4,484.7,1006.4,469.3z"/>
				</g>
				<g>
					<linearGradient id="SVGID_67_" gradientUnits="userSpaceOnUse" x1="967.7261" y1="469.4252" x2="998.7452" y2="469.4252">
						<stop  offset="0" style="stop-color:#DAE3FE"/>
						<stop  offset="1" style="stop-color:#E9EFFD"/>
					</linearGradient>
					<path class="st79" d="M970,484.6c-0.8,0-1.5-0.7-1.5-1.5l-0.7-26.4c0-0.9,0.4-1.7,1.1-2.1c0.7-0.5,1.6-0.5,2.4-0.2l26,12.2
						c0.9,0.4,1.4,1.2,1.4,2.2c0,0.9-0.5,1.8-1.3,2.3l-23,12.3c-0.8,0.4-1.7,0.1-2.1-0.6c-0.4-0.8-0.1-1.7,0.6-2.1l21.9-11.7
						l-24.1-11.3l0.7,25.4C971.5,483.9,970.9,484.6,970,484.6C970,484.6,970,484.6,970,484.6z"/>
				</g>
			</g>
		</g>
		<g>
			<linearGradient id="SVGID_68_" gradientUnits="userSpaceOnUse" x1="449.4161" y1="370.6895" x2="465.7837" y2="19.9605">
				<stop  offset="0" style="stop-color:#09005D"/>
				<stop  offset="1" style="stop-color:#1A0F91"/>
			</linearGradient>
			<path class="st80" d="M572.6,431.3l-274.5,263c-11.5,11-11.2,29.5,0.7,40.1l2,1.7c10.5,9.4,26.7,8.4,36-2.1l252.7-286.7
				L572.6,431.3z"/>
			
				<ellipse transform="matrix(0.9151 -0.4032 0.4032 0.9151 -59.669 303.644)" class="st81" cx="691.4" cy="293.5" rx="176.3" ry="173.2"/>
			<linearGradient id="SVGID_69_" gradientUnits="userSpaceOnUse" x1="787.5444" y1="30.4358" x2="584.1223" y2="586.9236">
				<stop  offset="0" style="stop-color:#09005D"/>
				<stop  offset="1" style="stop-color:#1A0F91"/>
			</linearGradient>
			<path class="st82" d="M613.7,117.2c-99.2,43.7-144.8,158.1-101.9,255.4C554.7,470,669.9,513.6,769,469.9
				c99.2-43.7,144.8-158,101.9-255.4C828,117.1,712.9,73.5,613.7,117.2z M757.6,444c-84.6,37.3-182.9,0.1-219.5-82.9
				c-36.6-83.1,2.3-180.6,86.9-217.9c84.6-37.3,182.9-0.1,219.5,82.9C881.2,309.1,842.2,406.7,757.6,444z"/>
			<g>
				<path class="st4" d="M534.7,388c-0.3,0.1-0.6-0.1-0.7-0.3c-2.4-3.9-4.6-8-6.7-12.1c-0.2-0.3,0-0.8,0.3-0.9
					c0.4-0.2,0.8,0,0.9,0.3c2,4.1,4.3,8.1,6.6,12c0.2,0.3,0.1,0.8-0.2,1C534.8,387.9,534.8,388,534.7,388z M514.2,338.1
					c-0.4,0.1-0.7-0.2-0.8-0.5c-3-12.2-4.6-24.7-4.9-37.3c-0.9-35.5,8.9-70.5,28.1-100.9c19.7-31.2,48.1-55.7,82.2-70.7
					c32.1-14.1,67.2-18.9,101.5-14c0.4,0.1,0.7,0.4,0.6,0.8c-0.1,0.4-0.4,0.7-0.8,0.6c-34.1-5-68.9-0.2-100.7,13.8
					c-68.2,30.1-111.2,96.9-109.4,170.3c0.3,12.5,1.9,24.9,4.9,37C514.8,337.6,514.6,338,514.2,338.1
					C514.2,338.1,514.2,338.1,514.2,338.1z"/>
			</g>
			<path class="st4" d="M323.1,733.9C323.1,733.9,323.1,733.9,323.1,733.9c-11.6,1-19.4-2.4-23.2-10.1c-3.8-7.7-2.1-17.2,4.3-23.6
				l32.5-32.6c0.3-0.3,0.7-0.3,1,0c0.3,0.3,0.3,0.7,0,1l-32.5,32.6c-6,6-7.6,14.8-4,22c3.5,7.1,10.8,10.2,21.7,9.4
				c0.4,0,0.7,0.3,0.8,0.6C323.7,733.5,323.5,733.9,323.1,733.9z"/>
			<path class="st4" d="M347.4,658.7c-0.2,0-0.5,0-0.6-0.2c-0.3-0.3-0.3-0.7,0-1l4.2-4.2c0.3-0.3,0.7-0.3,1,0c0.3,0.3,0.3,0.7,0,1
				l-4.2,4.2C347.7,658.6,347.6,658.7,347.4,658.7z"/>
		</g>
	</g>
</g>
<g id="Layer_3">
	<g>
		<path class="st83" d="M1147.4,324c13.7,101.4,174.6,139.5,284.5,156.9c109.9,17.5,95.4,53.2,198.3,88.1
			c53.9,18.3,77.5,35.8,87.8,48.4h181.4c13.2,0,23.9-8.4,23.9-18.7V-50c0-10.3-10.7-18.7-23.9-18.7h-391.7
			c-18.2,13.6-34.3,28.8-41.3,43.7c-20.6,43.7-80.7,66-191.8,109.3S1133.7,222.6,1147.4,324z"/>
		<path class="st84" d="M1140.3,279.2l434.5-140.4l320.8-207.5h-260.9c-22.1,10.1-47.9,28.3-70.1,61.1
			c-50.5,74.7-76.6,93.9-152.8,108C1335.6,114.6,1137.9,191.5,1140.3,279.2z"/>
		<path class="st84" d="M1162.1,353.7c0,0,92.4,76.4,256.2,81.7c163.8,5.3,210.4,30.9,231.7,77.9c17,37.4,123.8,31.6,164.6,104.1
			h84.8c13.2,0,23.9-8.4,23.9-18.7V343.6C1755.9,333.1,1212.4,303.3,1162.1,353.7z"/>
		<path class="st85" d="M1190.6,226.7c49.9-44.4,353.3-102.9,353.3-102.9s36.2-44.5,86.3-52.4c50-7.9,67.7-14.3,98.8-80
			c14.6-30.9,49.7-49.3,82.6-60.1h87.9c13.2,0,23.9,8.4,23.9,18.7v596.9c-79.5-33-80.7-95.7-138.8-98.8
			c-71.2-3.7-81.5-52.8-110.2-71c-28.7-18.2-67.9-14.9-67.9-14.9c-26,9.8-430.9,19.8-444.4-8.5c-13.5-28.3-21.8-74.5-21.8-74.5
			S1140.7,271,1190.6,226.7z"/>
	</g>
	<g>
		<g>
			<g>
				<path class="st86" d="M1210.6,359.1l3.5,15.3l21.8,94.3c2,8.8,9.8,15,18.9,15h19.4c10.9,0,19.6-9,19.4-19.8l-2.5-101.5
					L1210.6,359.1z"/>
				<path class="st87" d="M1210.6,359.1l3.5,15.3c12.5,2.7,32,9.1,44.1,23.9c14.3,17.5,15.3,63.9,15,85.4h0.9
					c10.9,0,19.6-9,19.4-19.8l-2.5-101.5L1210.6,359.1z"/>
				<path class="st88" d="M1272.9,361.6l19.2,41.2c2.6-0.6,5-1.3,7.2-2.1c29.5-10.7,23.7-37.1,22.6-41.1c-0.1-0.4-0.2-0.5-0.2-0.5
					L1272.9,361.6z"/>
				<polygon class="st89" points="1147.4,260.1 1147.4,260.1 1156.7,319 1157.6,324.6 1163.2,359.9 1167.1,361.1 1171.4,362 
					1527.3,362.4 1525.2,346.9 1520.9,314.9 1491,92.7 1222.5,223.5 1147.6,260 				"/>
				<path class="st90" d="M1272.9,361.6l19.2,41.2c2.6-0.6,5-1.3,7.2-2.1c-4.3-5.8-8.8-15.4-2.5-25.1c5.7-8.7,16.6-13.5,25.1-15.9
					c-0.1-0.4-0.2-0.5-0.2-0.5L1272.9,361.6z"/>
				<path class="st91" d="M1226.9,316.9c3.5,13,7.2,22.7,10.4,29.7c96.3,8,262.3-17.6,262.3-17.6l26.4,23.4l-0.7-5.5l-4.3-32
					c-21-8.1-50.8-15.3-92.6-18.4C1360.9,291.6,1287.1,307,1226.9,316.9z"/>
				<path class="st90" d="M1133,297.4l3.2,19.7l1,6c6.1,1,13,1.5,20.5,1.4c19.4-0.1,43-3.4,69.3-7.7c-0.1-0.5-0.3-1.1-0.4-1.7
					c-1.3-5.2-2.7-10.8-3.9-17.1c-2.1-10.6-3.3-20.1-3.9-28.5c-39.9,11.7-69.4,19.2-71.2,16.1c-4.2-7.4,2.7-13.6,46-31.3
					c5.7-2.4,14.5-5.9,25.3-10.4c1.2-13.6,3.9-20.5,3.9-20.5l-67.5,31.9c-2.7,1.3-5.2,2.8-7.5,4.6c-0.1,0-0.1,0.1-0.2,0.1
					C1136.4,268.9,1130.7,283.1,1133,297.4z"/>
				<path class="st92" d="M1137.1,323.2l1,6c0,0.3,0.1,0.5,0.1,0.8c2.5,14,12.3,25.2,25,30c1.3,0.5,2.6,0.9,3.9,1.2
					c3.2,0.8,6.5,1.3,10,1.3h69.6c0,0-4.1-4.3-9.4-15.8c-3.2-7-6.9-16.7-10.4-29.7c-26.2,4.3-49.9,7.6-69.3,7.7
					C1150.1,324.6,1143.2,324.2,1137.1,323.2z"/>
				<path class="st93" d="M1147.4,285.7c1.7,3.1,31.3-4.4,71.2-16.1c-0.7-10.2-0.5-18.8,0.1-25.6c-10.8,4.5-19.5,8.1-25.3,10.4
					C1150.1,272.1,1143.2,278.3,1147.4,285.7z"/>
				<path class="st94" d="M1218.6,269.6c87.8-25.8,225.6-72.3,225.6-72.3l4-48.9c0,0-159,66.4-229.5,95.5
					C1218.1,250.9,1217.9,259.4,1218.6,269.6z"/>
				<path class="st95" d="M1237.3,346.6c5.3,11.5,9.4,15.8,9.4,15.8h280.6l-1.3-9.9l-26.4-23.4
					C1499.6,329,1333.6,354.5,1237.3,346.6z"/>
				<path class="st96" d="M1138.2,329.9c2.5,14,12.3,25.2,25,30c1.3,0.5,2.6,0.9,3.9,1.2c3.2,0.8,6.5,1.3,10,1.3h69.6
					c0,0-4.1-4.3-9.4-15.8c-6.6-0.5-12.8-1.2-18.6-2.1C1175.1,338,1151.2,333.2,1138.2,329.9z"/>
				
					<ellipse transform="matrix(0.9864 -0.1644 0.1644 0.9864 -16.6194 252.9497)" class="st90" cx="1519.8" cy="226.9" rx="75.8" ry="137.5"/>
				<path class="st92" d="M1462.5,236.4c3.9,23.3,11,44.4,20.2,61.7c0,0,0,0,0,0c16.4,31,39.2,49.5,61.1,45.9
					c10.1-1.7,18.9-7.9,25.9-17.6c10.6-14.5,17.4-36.8,18.9-62.9c0.8-14.9,0-31-2.8-47.7c-2.3-13.6-5.6-26.4-9.9-38.1
					c-6.1-17-14-31.8-22.9-43.3c-14.6-18.8-31.8-29-48.6-26.2c-25.3,4.2-42.1,36.9-44.7,80c-0.1,0.6-0.1,1.3-0.1,1.9
					C1458.9,204.7,1459.8,220.3,1462.5,236.4z"/>
				<path class="st96" d="M1462.5,236.4c3.9,23.3,11,44.4,20.2,61.7c0,0,0,0,0,0c16.4,31,39.2,49.5,61.1,45.9
					c10.1-1.7,18.9-7.9,25.9-17.6c-14.2-3.7-35.5-13-50-35.7c-23.4-36.9-40.2-132.2-3.4-151.4c15.1-7.9,27.4-7.7,36.7-4.8
					c-14.6-18.8-31.8-29-48.6-26.2c-25.3,4.2-42.1,36.9-44.7,80c-0.1,0.6-0.1,1.3-0.1,1.9C1458.9,204.7,1459.8,220.3,1462.5,236.4z"
					/>
				<path class="st86" d="M1462.5,236.4c3.9,23.3,11,44.4,20.2,61.7l31.3-15.1l37.9-18.2l-14-84.4l-29.8,3l-48.3,4.8
					c-0.1,0.6-0.1,1.3-0.1,1.9C1458.9,204.7,1459.8,220.3,1462.5,236.4z"/>
				<path class="st89" d="M1525.1,226c3.9,23.3,15.9,40.7,26.8,38.9c3.8-0.6,6.9-3.5,9.3-8c4.4-8.4,6-22.3,3.4-37.5
					c-2.4-14.7-8.1-27-14.7-33.7c-3.9-3.9-8.1-5.9-12.1-5.2C1527,182.3,1521.3,202.7,1525.1,226z"/>
				<path class="st97" d="M1462.5,236.4c3.9,23.3,11,44.4,20.2,61.7l31.3-15.1c-28.3-11.9-34.9-48.5-25.9-74
					c4.8-13.6,10.2-20.1,20-25.6l-48.3,4.8c-0.1,0.6-0.1,1.3-0.1,1.9C1458.9,204.7,1459.8,220.3,1462.5,236.4z"/>
				<path class="st91" d="M1561.3,256.9c4.4-8.4,6-22.3,3.4-37.5c-2.4-14.7-8.1-27-14.7-33.7c-4.5,3.1-10.3,10.4-11.4,27.6
					C1537.5,231.9,1551.2,248,1561.3,256.9z"/>
			</g>
		</g>
	</g>
</g>
</svg>
