<?xml version="1.0" encoding="utf-8"?>
<!-- Generator: Adobe Illustrator 24.3.0, SVG Export Plug-In . SVG Version: 6.00 Build 0)  -->
<svg version="1.1" xmlns="http://www.w3.org/2000/svg" xmlns:xlink="http://www.w3.org/1999/xlink" x="0px" y="0px"
	 viewBox="0 0 1920 900" style="enable-background:new 0 0 1920 900;" xml:space="preserve">
<style type="text/css">
	.st0{fill:#EC7126;}
	.st1{opacity:0.13;}
	.st2{fill:url(#SVGID_1_);}
	.st3{clip-path:url(#XMLID_3_);}
	.st4{fill:url(#XMLID_4_);}
	.st5{fill:url(#XMLID_5_);}
	.st6{fill:url(#XMLID_6_);}
	.st7{fill:url(#XMLID_7_);}
	.st8{clip-path:url(#XMLID_8_);}
	.st9{fill:url(#XMLID_9_);}
	.st10{fill:url(#XMLID_10_);}
	.st11{fill:url(#XMLID_11_);}
	.st12{fill:url(#XMLID_12_);}
	.st13{fill:#FFFFFF;}
	.st14{fill:#B6C6DD;}
	.st15{opacity:0.25;fill:#33435C;}
	.st16{fill-rule:evenodd;clip-rule:evenodd;fill:#B6C6DD;}
	.st17{opacity:0.5;fill:url(#XMLID_13_);}
	.st18{opacity:0.5;fill:url(#XMLID_14_);}
	.st19{opacity:0.5;fill:url(#XMLID_15_);}
	.st20{opacity:0.5;fill:url(#XMLID_16_);}
	.st21{opacity:0.25;}
	.st22{fill:#33435C;}
	.st23{opacity:0.5;fill:url(#XMLID_17_);}
	.st24{fill-rule:evenodd;clip-rule:evenodd;fill:#00AB9C;}
	.st25{opacity:0.3;fill-rule:evenodd;clip-rule:evenodd;fill:url(#XMLID_18_);}
	.st26{opacity:0.3;fill-rule:evenodd;clip-rule:evenodd;fill:url(#XMLID_19_);}
	.st27{fill-rule:evenodd;clip-rule:evenodd;fill:#162844;}
	.st28{fill-rule:evenodd;clip-rule:evenodd;fill:#B2B3B3;}
	.st29{fill:#162844;}
	.st30{fill:#274663;}
	.st31{fill:#D15030;}
	.st32{fill:#EB7F3D;}
	.st33{fill:#00AB9C;}
	.st34{opacity:0.3;fill:url(#XMLID_20_);}
	.st35{fill:#7BA4BD;}
	.st36{fill:#A2D9FD;}
	.st37{fill:#EBA452;}
	.st38{fill:#FBD5A2;}
	.st39{opacity:0.3;fill:url(#XMLID_21_);}
	.st40{opacity:0.5;fill:url(#XMLID_22_);}
	.st41{opacity:0.6;fill:url(#Lighting_1_);}
	.st42{fill:#E2E7ED;}
	.st43{fill:#60718F;}
	.st44{clip-path:url(#XMLID_23_);}
	.st45{fill:#666666;}
	.st46{fill:#DCE3DB;}
	.st47{fill:#B6B6B8;}
	.st48{fill:#C2C2C4;}
	.st49{fill:#ECF0F1;}
	.st50{fill:#919191;}
	.st51{fill:#828282;}
	.st52{fill:#21D0C3;}
	.st53{fill:#FAD24D;}
	.st54{fill:#FF5B62;}
</style>
<g id="Layer_2">
	<rect x="-0.6" y="-2.9" class="st0" width="1917.3" height="899.6"/>
</g>
<g id="Layer_3">
	<g class="st1">
		<linearGradient id="SVGID_1_" gradientUnits="userSpaceOnUse" x1="956.9423" y1="731.616" x2="956.9423" y2="-688.2584">
			<stop  offset="0" style="stop-color:#DBFBE5"/>
			<stop  offset="0.1823" style="stop-color:#D7F8E4"/>
			<stop  offset="0.3652" style="stop-color:#CBF0E0"/>
			<stop  offset="0.5484" style="stop-color:#B7E2DA"/>
			<stop  offset="0.7319" style="stop-color:#9BCED1"/>
			<stop  offset="0.914" style="stop-color:#77B5C5"/>
			<stop  offset="1" style="stop-color:#63A7BF"/>
		</linearGradient>
		<rect x="-7.3" y="-590.6" class="st2" width="1928.4" height="1285.6"/>
		<g id="XMLID_1313_">
			<g id="XMLID_1808_">
				<defs>
					<path id="XMLID_2404_" d="M1921.1-514.1c-170.4,121.5-340.7,243.1-511.1,364.6c0,199,0,398,0,597
						c170.4,66.7,340.7,133.3,511.1,200C1921.1,260.3,1921.1-126.9,1921.1-514.1z"/>
				</defs>
				<linearGradient id="XMLID_2_" gradientUnits="userSpaceOnUse" x1="1665.618" y1="680.6442" x2="1665.618" y2="-602.3015">
					<stop  offset="0" style="stop-color:#DBFBE5"/>
					<stop  offset="0.1823" style="stop-color:#D7F8E4"/>
					<stop  offset="0.3652" style="stop-color:#CBF0E0"/>
					<stop  offset="0.5484" style="stop-color:#B7E2DA"/>
					<stop  offset="0.7319" style="stop-color:#9BCED1"/>
					<stop  offset="0.914" style="stop-color:#77B5C5"/>
					<stop  offset="1" style="stop-color:#63A7BF"/>
				</linearGradient>
				<use xlink:href="#XMLID_2404_"  style="overflow:visible;fill:url(#XMLID_2_);"/>
				<clipPath id="XMLID_3_">
					<use xlink:href="#XMLID_2404_"  style="overflow:visible;"/>
				</clipPath>
				<g id="XMLID_2866_" class="st3">
					<g id="XMLID_475_">
						
							<linearGradient id="XMLID_4_" gradientUnits="userSpaceOnUse" x1="1540.6183" y1="655.6786" x2="1540.6183" y2="-24.0655" gradientTransform="matrix(1 0 0 1 125.1201 4.5035)">
							<stop  offset="0" style="stop-color:#DBFBE5"/>
							<stop  offset="0.222" style="stop-color:#D7F8E4"/>
							<stop  offset="0.4446" style="stop-color:#CBF0E1"/>
							<stop  offset="0.6676" style="stop-color:#B7E2DD"/>
							<stop  offset="0.8896" style="stop-color:#9BCFD7"/>
							<stop  offset="1" style="stop-color:#8AC4D3"/>
						</linearGradient>
						<polygon id="XMLID_1339_" class="st4" points="1913.9,429 1876.8,429 1876.8,242 1876.8,235 1871.2,235 1840.8,235 
							1840.8,225.3 1831.3,218.6 1794.9,218.6 1785.4,225.3 1785.4,242 1755,242 1755,235 1685.6,235 1637.8,235 1637.8,242 
							1622.7,242 1622.7,235 1617.2,235 1617.2,235 1553,235 1553,242 1553,325.8 1513.6,325.8 1513.6,35.6 1513.6,27.2 
							1410.1,27.2 1410.1,35.6 1410.1,325.8 1410.1,638.2 1410.1,638.2 1431.9,638.2 1431.9,642.7 1451.2,642.7 1451.2,638.2 
							1472.5,638.2 1472.5,642.7 1491.8,642.7 1491.8,638.2 1513.6,638.2 1513.6,638.2 1605,638.2 1605,638.2 1628.7,638.2 
							1641.1,638.2 1661.9,638.2 1690.5,638.2 1730.8,638.2 1743.2,638.2 1764,638.2 1792.7,638.2 1833,638.2 1845.4,638.2 
							1866.1,638.2 1894.8,638.2 1913.9,638.2 1913.9,638.2 1921.4,638.2 1921.4,406 1913.9,406 						"/>
						
							<linearGradient id="XMLID_5_" gradientUnits="userSpaceOnUse" x1="2058.0779" y1="655.6785" x2="2058.0779" y2="-24.0656" gradientTransform="matrix(1 0 0 1 125.1201 4.5035)">
							<stop  offset="0" style="stop-color:#DBFBE5"/>
							<stop  offset="0.222" style="stop-color:#D7F8E4"/>
							<stop  offset="0.4446" style="stop-color:#CBF0E1"/>
							<stop  offset="0.6676" style="stop-color:#B7E2DD"/>
							<stop  offset="0.8896" style="stop-color:#9BCFD7"/>
							<stop  offset="1" style="stop-color:#8AC4D3"/>
						</linearGradient>
						<path id="XMLID_1329_" class="st5" d="M2348.5,274.7h-35.4V80.5h0h-52.4V66.9h-46.9v13.5h-0.1h-0.1V66.9h-46.9v13.5h-52.4l0,0
							v0c-0.2,29-0.3,109.1-0.5,138.1c0.2,0.2,0.3,0.3,0.5,0.5v55.7h-52.3v60.5h-36.7v-15h2.8h4.4v-35.1h-4.4h-26h-53.4v35.1h9.2v15
							h-9.2v13v290.1h47l0,0h35.1v0h26.2v0h45.8v0h26.2v0h45.8v0h26.2v0h45.8v0h26.2v0h45.8v0h26.2v0h27.9h45v-37.2V428.7v-9.8v-0.1
							v-144H2348.5z M1964,320.2h55.3v15h-39.3H1964V320.2z"/>
					</g>
					<g id="XMLID_473_">
						<linearGradient id="XMLID_6_" gradientUnits="userSpaceOnUse" x1="1665.7384" y1="660.1821" x2="1665.7384" y2="-19.562">
							<stop  offset="0" style="stop-color:#DBFBE5"/>
							<stop  offset="0.222" style="stop-color:#D7F8E4"/>
							<stop  offset="0.4446" style="stop-color:#CBF0E1"/>
							<stop  offset="0.6676" style="stop-color:#B7E2DD"/>
							<stop  offset="0.8896" style="stop-color:#9BCFD7"/>
							<stop  offset="1" style="stop-color:#8AC4D3"/>
						</linearGradient>
						<polygon id="XMLID_1090_" class="st6" points="1913.9,429 1876.8,429 1876.8,242 1876.8,235 1871.2,235 1840.8,235 
							1840.8,225.3 1831.3,218.6 1794.9,218.6 1785.4,225.3 1785.4,242 1755,242 1755,235 1685.6,235 1637.8,235 1637.8,242 
							1622.7,242 1622.7,235 1617.2,235 1617.2,235 1553,235 1553,242 1553,325.8 1513.6,325.8 1513.6,35.6 1513.6,27.2 
							1410.1,27.2 1410.1,35.6 1410.1,325.8 1410.1,638.2 1410.1,638.2 1431.9,638.2 1431.9,642.7 1451.2,642.7 1451.2,638.2 
							1472.5,638.2 1472.5,642.7 1491.8,642.7 1491.8,638.2 1513.6,638.2 1513.6,638.2 1605,638.2 1605,638.2 1628.7,638.2 
							1641.1,638.2 1661.9,638.2 1690.5,638.2 1730.8,638.2 1743.2,638.2 1764,638.2 1792.7,638.2 1833,638.2 1845.4,638.2 
							1866.1,638.2 1894.8,638.2 1913.9,638.2 1913.9,638.2 1921.4,638.2 1921.4,406 1913.9,406 						"/>
						<linearGradient id="XMLID_7_" gradientUnits="userSpaceOnUse" x1="2183.198" y1="654.5129" x2="2183.198" y2="23.5358">
							<stop  offset="0" style="stop-color:#DBFBE5"/>
							<stop  offset="0.222" style="stop-color:#D7F8E4"/>
							<stop  offset="0.4446" style="stop-color:#CBF0E1"/>
							<stop  offset="0.6676" style="stop-color:#B7E2DD"/>
							<stop  offset="0.8896" style="stop-color:#9BCFD7"/>
							<stop  offset="1" style="stop-color:#8AC4D3"/>
						</linearGradient>
						<path id="XMLID_657_" class="st7" d="M2348.5,274.7h-35.4V80.5h0h-52.4V66.9h-46.9v13.5h-0.1h-0.1V66.9h-46.9v13.5h-52.4l0,0
							v0c-0.2,29-0.3,109.1-0.5,138.1c0.2,0.2,0.3,0.3,0.5,0.5v55.7h-52.3v60.5h-36.7v-15h2.8h4.4v-35.1h-4.4h-26h-53.4v35.1h9.2v15
							h-9.2v13v290.1h47l0,0h35.1v0h26.2v0h45.8v0h26.2v0h45.8v0h26.2v0h45.8v0h26.2v0h45.8v0h26.2v0h27.9h45v-37.2V428.7v-9.8v-0.1
							v-144H2348.5z M1964,320.2h55.3v15h-39.3H1964V320.2z"/>
					</g>
				</g>
			</g>
			<g id="XMLID_1806_">
				<defs>
					<rect id="XMLID_2857_" x="-7.3" y="-149.5" width="1417.3" height="597"/>
				</defs>
				<clipPath id="XMLID_8_">
					<use xlink:href="#XMLID_2857_"  style="overflow:visible;"/>
				</clipPath>
				<g id="XMLID_2858_" class="st8">
					<g id="XMLID_472_">
						<linearGradient id="XMLID_9_" gradientUnits="userSpaceOnUse" x1="568.2411" y1="608.4637" x2="568.2411" y2="-71.2803">
							<stop  offset="0" style="stop-color:#DBFBE5"/>
							<stop  offset="0.222" style="stop-color:#D7F8E4"/>
							<stop  offset="0.4446" style="stop-color:#CBF0E1"/>
							<stop  offset="0.6676" style="stop-color:#B7E2DD"/>
							<stop  offset="0.8896" style="stop-color:#9BCFD7"/>
							<stop  offset="1" style="stop-color:#8AC4D3"/>
						</linearGradient>
						<polygon id="XMLID_610_" class="st9" points="816.4,377.3 779.3,377.3 779.3,190.3 779.3,183.3 773.7,183.3 743.3,183.3 
							743.3,173.6 733.8,166.9 697.4,166.9 687.9,173.6 687.9,190.3 657.5,190.3 657.5,183.3 588.1,183.3 540.3,183.3 540.3,190.3 
							525.2,190.3 525.2,183.3 519.7,183.3 519.7,183.3 455.5,183.3 455.5,190.3 455.5,274 416.1,274 416.1,-16.1 416.1,-24.5 
							312.6,-24.5 312.6,-16.1 312.6,274 312.6,586.5 312.6,586.5 334.4,586.5 334.4,590.9 353.7,590.9 353.7,586.5 375,586.5 
							375,590.9 394.3,590.9 394.3,586.5 416.1,586.5 416.1,586.5 507.5,586.5 507.5,586.5 531.2,586.5 543.6,586.5 564.4,586.5 
							593,586.5 633.3,586.5 645.7,586.5 666.5,586.5 695.2,586.5 735.5,586.5 747.9,586.5 768.7,586.5 797.3,586.5 816.4,586.5 
							816.4,586.5 823.9,586.5 823.9,354.3 816.4,354.3 						"/>
						<linearGradient id="XMLID_10_" gradientUnits="userSpaceOnUse" x1="1085.7003" y1="608.4636" x2="1085.7003" y2="-71.2804">
							<stop  offset="0" style="stop-color:#DBFBE5"/>
							<stop  offset="0.222" style="stop-color:#D7F8E4"/>
							<stop  offset="0.4446" style="stop-color:#CBF0E1"/>
							<stop  offset="0.6676" style="stop-color:#B7E2DD"/>
							<stop  offset="0.8896" style="stop-color:#9BCFD7"/>
							<stop  offset="1" style="stop-color:#8AC4D3"/>
						</linearGradient>
						<path id="XMLID_592_" class="st10" d="M1251,223h-35.4V28.8h0h-52.4V15.2h-46.9v13.5h-0.1h-0.1V15.2h-46.9v13.5h-52.4h0v0
							c-0.2,29-0.3,109.1-0.5,138.1c0.2,0.2,0.3,0.3,0.5,0.5V223h-52.3v60.5h-36.7v-15h2.8h4.4v-35.1h-4.4h-26h-53.4v35.1h9.2v15
							h-9.2v13v290.1h47c0,0,0,0,0,0h35.1v0h26.2v0h45.8v0h26.2v0h45.8v0h26.2v0h45.8v0h26.2v0h45.8v0h26.2v0h27.9h45v-37.2V376.9
							v-9.8V367V223H1251z M866.5,268.5h55.3v15h-39.3h-15.9V268.5z"/>
					</g>
					<g id="XMLID_435_">
						<linearGradient id="XMLID_11_" gradientUnits="userSpaceOnUse" x1="568.2411" y1="608.4637" x2="568.2411" y2="-71.2803">
							<stop  offset="0" style="stop-color:#DBFBE5"/>
							<stop  offset="0.222" style="stop-color:#D7F8E4"/>
							<stop  offset="0.4446" style="stop-color:#CBF0E1"/>
							<stop  offset="0.6676" style="stop-color:#B7E2DD"/>
							<stop  offset="0.8896" style="stop-color:#9BCFD7"/>
							<stop  offset="1" style="stop-color:#8AC4D3"/>
						</linearGradient>
						<polygon id="XMLID_590_" class="st11" points="816.4,377.3 779.3,377.3 779.3,190.3 779.3,183.3 773.7,183.3 743.3,183.3 
							743.3,173.6 733.8,166.9 697.4,166.9 687.9,173.6 687.9,190.3 657.5,190.3 657.5,183.3 588.1,183.3 540.3,183.3 540.3,190.3 
							525.2,190.3 525.2,183.3 519.7,183.3 519.7,183.3 455.5,183.3 455.5,190.3 455.5,274 416.1,274 416.1,-16.1 416.1,-24.5 
							312.6,-24.5 312.6,-16.1 312.6,274 312.6,586.5 312.6,586.5 334.4,586.5 334.4,590.9 353.7,590.9 353.7,586.5 375,586.5 
							375,590.9 394.3,590.9 394.3,586.5 416.1,586.5 416.1,586.5 507.5,586.5 507.5,586.5 531.2,586.5 543.6,586.5 564.4,586.5 
							593,586.5 633.3,586.5 645.7,586.5 666.5,586.5 695.2,586.5 735.5,586.5 747.9,586.5 768.7,586.5 797.3,586.5 816.4,586.5 
							816.4,586.5 823.9,586.5 823.9,354.3 816.4,354.3 						"/>
						<linearGradient id="XMLID_12_" gradientUnits="userSpaceOnUse" x1="1085.7003" y1="602.7945" x2="1085.7003" y2="-28.1826">
							<stop  offset="0" style="stop-color:#DBFBE5"/>
							<stop  offset="0.222" style="stop-color:#D7F8E4"/>
							<stop  offset="0.4446" style="stop-color:#CBF0E1"/>
							<stop  offset="0.6676" style="stop-color:#B7E2DD"/>
							<stop  offset="0.8896" style="stop-color:#9BCFD7"/>
							<stop  offset="1" style="stop-color:#8AC4D3"/>
						</linearGradient>
						<path id="XMLID_581_" class="st12" d="M1251,223h-35.4V28.8h0h-52.4V15.2h-46.9v13.5h-0.1h-0.1V15.2h-46.9v13.5h-52.4h0v0
							c-0.2,29-0.3,109.1-0.5,138.1c0.2,0.2,0.3,0.3,0.5,0.5V223h-52.3v60.5h-36.7v-15h2.8h4.4v-35.1h-4.4h-26h-53.4v35.1h9.2v15
							h-9.2v13v290.1h47c0,0,0,0,0,0h35.1v0h26.2v0h45.8v0h26.2v0h45.8v0h26.2v0h45.8v0h26.2v0h45.8v0h26.2v0h27.9h45v-37.2V376.9
							v-9.8V367V223H1251z M866.5,268.5h55.3v15h-39.3h-15.9V268.5z"/>
					</g>
				</g>
			</g>
			<g id="XMLID_2789_">
				<polyline id="XMLID_1802_" class="st13" points="1410.1,447.6 1410.1,-172.4 1410.1,488.1 				"/>
				<rect id="XMLID_1799_" x="1403.7" y="-172.4" class="st13" width="12.9" height="660.5"/>
			</g>
			<path id="XMLID_2691_" class="st14" d="M1428.2,454.6l-230.7-77.5H-7.3c0,26.8,0,53.6,0,80.4
				C471.2,456.6,949.7,455.6,1428.2,454.6z"/>
			<path id="XMLID_1796_" class="st15" d="M1165,411.5h-745v-20.9c225.4,0,450.9,0,676.3,0C1119.1,397.5,1142,404.5,1165,411.5z"/>
			<polygon id="XMLID_2400_" class="st16" points="1921.1,647.6 1410.1,447.6 -7.3,447.6 -7.3,695 1921.1,695 			"/>
			<linearGradient id="XMLID_13_" gradientUnits="userSpaceOnUse" x1="1009.1388" y1="588.1559" x2="1919.4326" y2="564.7483">
				<stop  offset="0" style="stop-color:#000000"/>
				<stop  offset="9.024793e-02" style="stop-color:#292821"/>
				<stop  offset="0.2271" style="stop-color:#615E4E"/>
				<stop  offset="0.3648" style="stop-color:#918D74"/>
				<stop  offset="0.5002" style="stop-color:#B9B394"/>
				<stop  offset="0.6329" style="stop-color:#D8D1AC"/>
				<stop  offset="0.7622" style="stop-color:#EDE6BE"/>
				<stop  offset="0.8864" style="stop-color:#FBF3C8"/>
				<stop  offset="1" style="stop-color:#FFF7CC"/>
			</linearGradient>
			<path id="XMLID_2370_" class="st17" d="M1410.1,447.6c-173.1,36.3-346.3,72.6-519.4,109c49.8,46.2,99.6,92.3,149.4,138.5h881.1
				v-47.4C1750.8,580.9,1580.4,514.2,1410.1,447.6z"/>
			<linearGradient id="XMLID_14_" gradientUnits="userSpaceOnUse" x1="1361.4441" y1="620.2288" x2="1920.3297" y2="605.8574">
				<stop  offset="0" style="stop-color:#000000"/>
				<stop  offset="9.024793e-02" style="stop-color:#292821"/>
				<stop  offset="0.2271" style="stop-color:#615E4E"/>
				<stop  offset="0.3648" style="stop-color:#918D74"/>
				<stop  offset="0.5002" style="stop-color:#B9B394"/>
				<stop  offset="0.6329" style="stop-color:#D8D1AC"/>
				<stop  offset="0.7622" style="stop-color:#EDE6BE"/>
				<stop  offset="0.8864" style="stop-color:#FBF3C8"/>
				<stop  offset="1" style="stop-color:#FFF7CC"/>
			</linearGradient>
			<path id="XMLID_2876_" class="st18" d="M1607.4,524.7c-106.3,22.3-212.6,44.6-318.9,66.9c36.4,34.4,72.9,68.9,109.3,103.3
				c174.5,0,348.9,0,523.4,0c0-15.8,0-31.6,0-47.5C1816.6,606.6,1712,565.7,1607.4,524.7z"/>
			<linearGradient id="XMLID_15_" gradientUnits="userSpaceOnUse" x1="1019.4105" y1="352.4837" x2="1536.7356" y2="16.2952">
				<stop  offset="0" style="stop-color:#000000"/>
				<stop  offset="9.024793e-02" style="stop-color:#292821"/>
				<stop  offset="0.2271" style="stop-color:#615E4E"/>
				<stop  offset="0.3648" style="stop-color:#918D74"/>
				<stop  offset="0.5002" style="stop-color:#B9B394"/>
				<stop  offset="0.6329" style="stop-color:#D8D1AC"/>
				<stop  offset="0.7622" style="stop-color:#EDE6BE"/>
				<stop  offset="0.8864" style="stop-color:#FBF3C8"/>
				<stop  offset="1" style="stop-color:#FFF7CC"/>
			</linearGradient>
			<path id="XMLID_2835_" class="st19" d="M1254.8-149.5c-271.3,199-542.6,398-813.8,597c323,0,646.1,0,969.1,0c0-199,0-398,0-597
				C1358.3-149.5,1306.6-149.5,1254.8-149.5z"/>
			<g id="XMLID_2849_">
				<rect id="XMLID_526_" x="1193.6" y="-149.5" class="st13" width="7.7" height="526.6"/>
			</g>
			<linearGradient id="XMLID_16_" gradientUnits="userSpaceOnUse" x1="1416.5177" y1="-167.1116" x2="1921.1465" y2="-167.1116">
				<stop  offset="0" style="stop-color:#000000"/>
				<stop  offset="9.024793e-02" style="stop-color:#292821"/>
				<stop  offset="0.2271" style="stop-color:#615E4E"/>
				<stop  offset="0.3648" style="stop-color:#918D74"/>
				<stop  offset="0.5002" style="stop-color:#B9B394"/>
				<stop  offset="0.6329" style="stop-color:#D8D1AC"/>
				<stop  offset="0.7622" style="stop-color:#EDE6BE"/>
				<stop  offset="0.8864" style="stop-color:#FBF3C8"/>
				<stop  offset="1" style="stop-color:#FFF7CC"/>
			</linearGradient>
			<path id="XMLID_2842_" class="st20" d="M1774.2-409.3C1655-245,1535.8-80.7,1416.5,83.6c0,32.1,0,64.2,0,96.2
				c168.2-231.3,336.4-462.6,504.6-693.9C1872.2-479.1,1823.2-444.2,1774.2-409.3z"/>
			<g id="XMLID_1795_">
				<g id="XMLID_2880_" class="st21">
					
						<rect id="XMLID_525_" x="423.1" y="441" transform="matrix(0.9999 -1.076742e-02 1.076742e-02 0.9999 -4.7078 9.8951)" class="st22" width="987" height="2.3"/>
				</g>
			</g>
			<linearGradient id="XMLID_17_" gradientUnits="userSpaceOnUse" x1="1416.256" y1="-33.3068" x2="1921.1465" y2="-33.3068">
				<stop  offset="0" style="stop-color:#000000"/>
				<stop  offset="9.024793e-02" style="stop-color:#292821"/>
				<stop  offset="0.2271" style="stop-color:#615E4E"/>
				<stop  offset="0.3648" style="stop-color:#918D74"/>
				<stop  offset="0.5002" style="stop-color:#B9B394"/>
				<stop  offset="0.6329" style="stop-color:#D8D1AC"/>
				<stop  offset="0.7622" style="stop-color:#EDE6BE"/>
				<stop  offset="0.8864" style="stop-color:#FBF3C8"/>
				<stop  offset="1" style="stop-color:#FFF7CC"/>
			</linearGradient>
			<path id="XMLID_2884_" class="st23" d="M1416.3-153.9c0.2,200.4,0.3,400.9,0.5,601.3C1584.6,253,1752.5,58.5,1920.3-136
				l0.8-378.1C1752.8-394,1584.6-273.9,1416.3-153.9z"/>
			<g id="XMLID_2371_">
				<path id="XMLID_2395_" class="st24" d="M1373.2,378c0,0-7.5-14-15-38.7c0,0,15.9,17,25,35.9C1392.3,394.1,1373.2,378,1373.2,378
					L1373.2,378z"/>
				<path id="XMLID_2379_" class="st24" d="M1397.2,374.6c0,0-0.8-58.7,31-102.6c0,0-2.7,38.5-6.8,57.9
					c-4.1,19.5-19.9,44.6-19.9,44.6H1397.2z"/>
				<path id="XMLID_2378_" class="st24" d="M1390.5,375.2c0,0-2.7-67.6-17.3-128.4c0,0,15,22.4,22.2,47.9
					c7.3,25.5,1.7,79.9,1.7,79.9L1390.5,375.2z"/>
				<path id="XMLID_2377_" class="st24" d="M1383.6,377.2c0,0-12.3-33.3-16.3-60.9s-2.4-42.2-2.4-42.2s14.4,28.8,22.2,56.3
					c7.8,27.4,10.4,46.3,10.4,46.3L1383.6,377.2z"/>
				<path id="XMLID_2376_" class="st24" d="M1428.2,272.1c0,0-12.3,30.3-18.6,54.4c-6.4,24.1-12.1,50.1-12.1,50.1l-0.4-1.9
					C1397.2,374.6,1396.9,311.7,1428.2,272.1z"/>
				
					<linearGradient id="XMLID_18_" gradientUnits="userSpaceOnUse" x1="1272.5887" y1="376.5628" x2="1272.5887" y2="246.8138" gradientTransform="matrix(1 0 0 1 113.5949 0)">
					<stop  offset="0" style="stop-color:#616860"/>
					<stop  offset="1" style="stop-color:#7C843C"/>
				</linearGradient>
				<path id="XMLID_2375_" class="st25" d="M1373.2,246.8c0,0,8.5,15.1,17.3,49.9c8.7,34.8,4.5,79.9,4.5,79.9h2.5
					c0.5-6,1.1-14.6,1.3-25c0.5-22.1,0.9-38.8-3.3-56.9C1392.9,283.4,1387.1,266.1,1373.2,246.8z"/>
				
					<linearGradient id="XMLID_19_" gradientUnits="userSpaceOnUse" x1="1273.1656" y1="377.1542" x2="1273.1656" y2="327.2922" gradientTransform="matrix(1 0 0 1 113.5949 0)">
					<stop  offset="0" style="stop-color:#616860"/>
					<stop  offset="1" style="stop-color:#7C843C"/>
				</linearGradient>
				<path id="XMLID_2374_" class="st26" d="M1386.6,327.3l3.3,49.3l-6.3,0.6C1383.6,377.2,1387.4,334.1,1386.6,327.3z"/>
				<path id="XMLID_2373_" class="st24" d="M1397.4,381.4c0,0,5-14.9,11.5-29c6.4-14.1,22.2-29.7,22.2-29.7s-8.9,26.1-14.8,37.1
					c-5.9,10.9-14.4,21.2-14.4,21.2L1397.4,381.4z"/>
				<path id="XMLID_2372_" class="st13" d="M1430.9,366.6l-3.7,23.8l-11,71.4h-0.2c0,2.3-10.9,4.2-24.4,4.2c-1.2,0-2.4,0-3.6,0
					c-11.7-0.3-20.7-2.1-20.7-4.2l-14.7-95.1H1430.9z"/>
			</g>
			<g id="XMLID_1780_">
				<g id="XMLID_2584_">
					<g id="XMLID_2600_">
						<g id="XMLID_2603_">
							<path id="XMLID_2619_" class="st27" d="M620.8,410.7c2.7,0,4.8-2.2,4.8-4.8c0-2.7-2.2-4.8-4.8-4.8c-2.7,0-4.8,2.2-4.8,4.8
								C615.9,408.5,618.1,410.7,620.8,410.7z"/>
							<path id="XMLID_2618_" class="st27" d="M671,410.7c2.7,0,4.8-2.2,4.8-4.8c0-2.7-2.2-4.8-4.8-4.8c-2.7,0-4.8,2.2-4.8,4.8
								C666.1,408.5,668.3,410.7,671,410.7z"/>
							<rect id="XMLID_2617_" x="619.2" y="360.5" class="st28" width="8.5" height="33.1"/>
							<path id="XMLID_2614_" class="st27" d="M619.7,389.4h7.7c1.1,0,1.9,0.9,1.9,1.9v3.5l39,2.3c2.8,0.2,5.1,2.5,5.1,5.4v0h-44.1
								h-3.4h-4.7v0h-47.5l0,0c0-2.8,2.2-5.2,5.1-5.4l39-2.3v-3.5C617.7,390.3,618.6,389.4,619.7,389.4z"/>
							<path id="XMLID_2613_" class="st27" d="M618.5,372.7h10c1.1,0,1.9-0.9,1.9-1.9v-11.1h-13.8v11.1
								C616.6,371.8,617.4,372.7,618.5,372.7z"/>
							<path id="XMLID_2611_" class="st27" d="M615.4,362.2h16.2c1.2,0,2.2-1,2.2-2.2v-15.7h-20.6V360
								C613.2,361.2,614.2,362.2,615.4,362.2z"/>
							<path id="XMLID_2610_" class="st27" d="M605.2,344.2h36.7c5.1,0,9.3-4.2,9.3-9.3l0,0h-55.3l0,0
								C595.8,340.1,600,344.2,605.2,344.2z"/>
							<g id="XMLID_2604_">
								<path id="XMLID_2608_" class="st29" d="M572.3,405.8c0,2.7,2.2,4.8,4.8,4.8s4.8-2.2,4.8-4.8c0,0,0,0,0,0L572.3,405.8
									C572.3,405.8,572.3,405.8,572.3,405.8z"/>
								<path id="XMLID_2607_" class="st29" d="M577.1,401c-2.7,0-4.8,2.2-4.8,4.8h9.7C582,403.2,579.8,401,577.1,401z"/>
								<path id="XMLID_2606_" class="st29" d="M620.8,401c-2.7,0-4.8,2.2-4.8,4.8h9.7C625.6,403.2,623.4,401,620.8,401z"/>
								<path id="XMLID_2605_" class="st29" d="M671,401c-2.7,0-4.8,2.2-4.8,4.8h9.7C675.8,403.2,673.6,401,671,401z"/>
							</g>
						</g>
						<path id="XMLID_2602_" class="st30" d="M616.6,361.1H614c-0.4,0-0.8-0.4-0.8-0.8v-17.1h3.4V361.1z"/>
						<path id="XMLID_2601_" class="st30" d="M620,371.7h-2.6c-0.4,0-0.8-0.4-0.8-0.8v-9.7h3.4V371.7z"/>
					</g>
					<g id="XMLID_2598_">
						<path id="XMLID_2599_" class="st22" d="M566.8,324.7L566.8,324.7c0,5.6,4.6,10.2,10.2,10.2h102.2c2.8,0,5.4-1.1,7.2-3
							c1.7-1.7,2.9-4.1,3-6.7c0.3-5.9-4.9-10.7-10.7-10.7H577C571.4,314.6,566.8,319.1,566.8,324.7z"/>
					</g>
					<path id="XMLID_2597_" class="st22" d="M573,324.7h69.8c3.4,0,5.9-2.8,5.5-6.2l-8.5-78c-0.4-3.4-3.5-6.2-6.9-6.2h-69.8
						c-3.4,0-5.9,2.8-5.5,6.2l8.5,78C566.5,322,569.6,324.7,573,324.7z"/>
				</g>
				<g id="XMLID_2620_">
					<g id="XMLID_2626_">
						<g id="XMLID_2629_">
							<path id="XMLID_2657_" class="st27" d="M914.9,410.7c2.7,0,4.8-2.2,4.8-4.8c0-2.7-2.2-4.8-4.8-4.8c-2.7,0-4.8,2.2-4.8,4.8
								C910,408.5,912.2,410.7,914.9,410.7z"/>
							<path id="XMLID_2656_" class="st27" d="M965.1,410.7c2.7,0,4.8-2.2,4.8-4.8c0-2.7-2.2-4.8-4.8-4.8c-2.7,0-4.8,2.2-4.8,4.8
								C960.3,408.5,962.4,410.7,965.1,410.7z"/>
							<rect id="XMLID_2652_" x="913.3" y="360.5" class="st28" width="8.5" height="33.1"/>
							<path id="XMLID_2651_" class="st27" d="M913.8,389.4h7.7c1.1,0,1.9,0.9,1.9,1.9v3.5l39,2.3c2.8,0.2,5.1,2.5,5.1,5.4v0h-44.1
								h-3.4h-4.7v0h-47.5l0,0c0-2.8,2.2-5.2,5.1-5.4l39-2.3v-3.5C911.9,390.3,912.7,389.4,913.8,389.4z"/>
							<path id="XMLID_2649_" class="st27" d="M912.6,372.7h10c1.1,0,1.9-0.9,1.9-1.9v-11.1h-13.8v11.1
								C910.7,371.8,911.6,372.7,912.6,372.7z"/>
							<path id="XMLID_2648_" class="st27" d="M909.5,362.2h16.2c1.2,0,2.2-1,2.2-2.2v-15.7h-20.6V360
								C907.3,361.2,908.3,362.2,909.5,362.2z"/>
							<path id="XMLID_2647_" class="st27" d="M899.3,344.2H936c5.1,0,9.3-4.2,9.3-9.3l0,0H890l0,0
								C890,340.1,894.1,344.2,899.3,344.2z"/>
							<g id="XMLID_2633_">
								<path id="XMLID_2644_" class="st29" d="M866.4,405.8c0,2.7,2.2,4.8,4.8,4.8s4.8-2.2,4.8-4.8c0,0,0,0,0,0L866.4,405.8
									C866.4,405.8,866.4,405.8,866.4,405.8z"/>
								<path id="XMLID_2641_" class="st29" d="M871.3,401c-2.7,0-4.8,2.2-4.8,4.8h9.7C876.1,403.2,873.9,401,871.3,401z"/>
								<path id="XMLID_2639_" class="st29" d="M914.9,401c-2.7,0-4.8,2.2-4.8,4.8h9.7C919.7,403.2,917.5,401,914.9,401z"/>
								<path id="XMLID_2638_" class="st29" d="M965.1,401c-2.7,0-4.8,2.2-4.8,4.8h9.7C969.9,403.2,967.8,401,965.1,401z"/>
							</g>
						</g>
						<path id="XMLID_2628_" class="st30" d="M910.7,361.1h-2.6c-0.4,0-0.8-0.4-0.8-0.8v-17.1h3.4V361.1z"/>
						<path id="XMLID_2627_" class="st30" d="M914.1,371.7h-2.6c-0.4,0-0.8-0.4-0.8-0.8v-9.7h3.4V371.7z"/>
					</g>
					<g id="XMLID_2622_">
						<path id="XMLID_2623_" class="st22" d="M860.9,324.7L860.9,324.7c0,5.6,4.6,10.2,10.2,10.2h102.2c2.8,0,5.4-1.1,7.2-3
							c1.7-1.7,2.9-4.1,3-6.7c0.3-5.9-4.9-10.7-10.7-10.7H871.1C865.5,314.6,860.9,319.1,860.9,324.7z"/>
					</g>
					<path id="XMLID_2621_" class="st22" d="M867.2,324.7H937c3.4,0,5.9-2.8,5.5-6.2l-8.5-78c-0.4-3.4-3.5-6.2-6.9-6.2h-69.8
						c-3.4,0-5.9,2.8-5.5,6.2l8.5,78C860.6,322,863.7,324.7,867.2,324.7z"/>
				</g>
				<g id="XMLID_2039_">
					
						<rect id="XMLID_2045_" x="1033" y="335.9" transform="matrix(0.2056 -0.9786 0.9786 0.2056 546.17 1351.2404)" class="st13" width="144.8" height="6.7"/>
					
						<rect id="XMLID_2044_" x="1138.9" y="266.8" transform="matrix(0.9787 -0.2055 0.2055 0.9787 -45.3289 242.0053)" class="st13" width="6.7" height="144.8"/>
					<rect id="XMLID_2042_" x="1094.4" y="388.5" class="st13" width="59.5" height="6.7"/>
					<rect id="XMLID_2040_" x="1085.9" y="263.8" class="st13" width="77.7" height="9"/>
				</g>
				<rect id="XMLID_1794_" x="464.2" y="257.3" class="st13" width="706.8" height="15.8"/>
				<g id="XMLID_2483_">
					<g id="XMLID_2490_">
						<rect id="XMLID_2492_" x="848.4" y="201.6" class="st31" width="36.7" height="56.4"/>
						<rect id="XMLID_2491_" x="876.4" y="201.6" class="st32" width="8.8" height="56.4"/>
					</g>
					<g id="XMLID_2487_">
						<rect id="XMLID_2489_" x="833.4" y="201.6" class="st33" width="36.7" height="56.4"/>
						<linearGradient id="XMLID_20_" gradientUnits="userSpaceOnUse" x1="861.3698" y1="229.822" x2="870.1353" y2="229.822">
							<stop  offset="0" style="stop-color:#616860"/>
							<stop  offset="1" style="stop-color:#7C843C"/>
						</linearGradient>
						<rect id="XMLID_2488_" x="861.4" y="201.6" class="st34" width="8.8" height="56.4"/>
					</g>
					<g id="XMLID_2484_">
						<rect id="XMLID_2486_" x="818.3" y="212.1" class="st35" width="36.7" height="45.9"/>
						<rect id="XMLID_2485_" x="846.2" y="212.1" class="st36" width="8.8" height="45.9"/>
					</g>
				</g>
				<g id="XMLID_2658_">
					<g id="XMLID_2659_">
						<path id="XMLID_2669_" class="st13" d="M996.6,158.1H888.5c-2.3,0-4.1,1.8-4.1,4.1v71.5c0,2.3,1.8,4.1,4.1,4.1h108.1
							c2.3,0,4.1-1.8,4.1-4.1v-71.5C1000.7,160,998.9,158.1,996.6,158.1z"/>
						<path id="XMLID_2666_" class="st13" d="M884.4,233.7c0,2.3,1.8,4.1,4.1,4.1h108.1c2.3,0,4.1-1.8,4.1-4.1v-11.8H884.4V233.7z"
							/>
						<rect id="XMLID_2664_" x="917.3" y="257.3" class="st13" width="48" height="4.5"/>
						<rect id="XMLID_2661_" x="934.5" y="237.8" class="st13" width="20.2" height="19.5"/>
					</g>
				</g>
				<g id="XMLID_2674_">
					<g id="XMLID_2675_">
						<path id="XMLID_2683_" class="st13" d="M744.2,158.1H636.1c-2.3,0-4.1,1.8-4.1,4.1v71.5c0,2.3,1.8,4.1,4.1,4.1h108.1
							c2.3,0,4.1-1.8,4.1-4.1v-71.5C748.3,160,746.4,158.1,744.2,158.1z"/>
						<path id="XMLID_2682_" class="st13" d="M632,233.7c0,2.3,1.8,4.1,4.1,4.1h108.1c2.3,0,4.1-1.8,4.1-4.1v-11.8H632V233.7z"/>
						<rect id="XMLID_2680_" x="664.9" y="257.3" class="st13" width="48" height="4.5"/>
						<rect id="XMLID_2677_" x="682" y="237.8" class="st13" width="20.2" height="19.5"/>
					</g>
				</g>
				<g id="XMLID_1999_">
					<g id="XMLID_2021_">
						<path id="XMLID_2034_" class="st29" d="M1066.1,158.1H958c-2.3,0-4.1,1.8-4.1,4.1v71.5c0,2.3,1.8,4.1,4.1,4.1h108.1
							c2.3,0,4.1-1.8,4.1-4.1v-71.5C1070.2,160,1068.3,158.1,1066.1,158.1z"/>
						<path id="XMLID_2027_" class="st13" d="M953.9,233.7c0,2.3,1.8,4.1,4.1,4.1h108.1c2.3,0,4.1-1.8,4.1-4.1v-11.8H953.9V233.7z"
							/>
						<rect id="XMLID_2026_" x="986.8" y="257.3" class="st13" width="48" height="4.5"/>
						<rect id="XMLID_2024_" x="1003.9" y="237.8" class="st13" width="20.2" height="19.5"/>
					</g>
				</g>
				<g id="XMLID_2051_">
					<g id="XMLID_2052_">
						<path id="XMLID_2056_" class="st29" d="M814,158.1H706c-2.3,0-4.1,1.8-4.1,4.1v71.5c0,2.3,1.8,4.1,4.1,4.1H814
							c2.3,0,4.1-1.8,4.1-4.1v-71.5C818.2,160,816.3,158.1,814,158.1z"/>
						<path id="XMLID_2055_" class="st13" d="M701.8,233.7c0,2.3,1.8,4.1,4.1,4.1H814c2.3,0,4.1-1.8,4.1-4.1v-11.8H701.8V233.7z"/>
						<rect id="XMLID_2054_" x="734.7" y="257.3" class="st13" width="48" height="4.5"/>
						<rect id="XMLID_2053_" x="751.9" y="237.8" class="st13" width="20.2" height="19.5"/>
					</g>
				</g>
				<g id="XMLID_2497_">
					<g id="XMLID_2504_">
						<g id="XMLID_2520_">
							<path id="XMLID_2558_" class="st27" d="M778.7,410.7c-2.7,0-4.8-2.2-4.8-4.8c0-2.7,2.2-4.8,4.8-4.8c2.7,0,4.8,2.2,4.8,4.8
								C783.6,408.5,781.4,410.7,778.7,410.7z"/>
							<path id="XMLID_2557_" class="st27" d="M728.5,410.7c-2.7,0-4.8-2.2-4.8-4.8c0-2.7,2.2-4.8,4.8-4.8c2.7,0,4.8,2.2,4.8,4.8
								C733.3,408.5,731.2,410.7,728.5,410.7z"/>
							<rect id="XMLID_2556_" x="771.7" y="360.5" class="st28" width="8.5" height="33.1"/>
							<path id="XMLID_2555_" class="st27" d="M779.8,389.4h-7.7c-1.1,0-1.9,0.9-1.9,1.9v3.5l-39,2.3c-2.8,0.2-5.1,2.5-5.1,5.4v0
								h44.1h3.4h4.7v0h47.5l0,0c0-2.8-2.2-5.2-5.1-5.4l-39-2.3v-3.5C781.7,390.3,780.9,389.4,779.8,389.4z"/>
							<path id="XMLID_2554_" class="st27" d="M781,372.7h-10c-1.1,0-1.9-0.9-1.9-1.9v-11.1h13.8v11.1
								C782.9,371.8,782,372.7,781,372.7z"/>
							<path id="XMLID_2551_" class="st27" d="M784.1,362.2h-16.2c-1.2,0-2.2-1-2.2-2.2v-15.7h20.6V360
								C786.3,361.2,785.3,362.2,784.1,362.2z"/>
							<path id="XMLID_2530_" class="st27" d="M794.3,344.2h-36.7c-5.1,0-9.3-4.2-9.3-9.3l0,0h55.3l0,0
								C803.6,340.1,799.5,344.2,794.3,344.2z"/>
							<g id="XMLID_2521_">
								<path id="XMLID_2525_" class="st29" d="M827.2,405.8c0,2.7-2.2,4.8-4.8,4.8s-4.8-2.2-4.8-4.8c0,0,0,0,0,0L827.2,405.8
									C827.2,405.8,827.2,405.8,827.2,405.8z"/>
								<path id="XMLID_2524_" class="st29" d="M822.3,401c2.7,0,4.8,2.2,4.8,4.8h-9.7C817.5,403.2,819.7,401,822.3,401z"/>
								<path id="XMLID_2523_" class="st29" d="M778.7,401c2.7,0,4.8,2.2,4.8,4.8h-9.7C773.9,403.2,776.1,401,778.7,401z"/>
								<path id="XMLID_2522_" class="st29" d="M728.5,401c2.7,0,4.8,2.2,4.8,4.8h-9.7C723.7,403.2,725.8,401,728.5,401z"/>
							</g>
						</g>
						<path id="XMLID_2519_" class="st30" d="M782.9,361.1h2.6c0.4,0,0.8-0.4,0.8-0.8v-17.1h-3.4V361.1z"/>
						<path id="XMLID_2515_" class="st30" d="M779.5,371.7h2.6c0.4,0,0.8-0.4,0.8-0.8v-9.7h-3.4V371.7z"/>
					</g>
					<g id="XMLID_2498_">
						<path id="XMLID_2502_" class="st22" d="M832.7,324.7L832.7,324.7c0,5.6-4.6,10.2-10.2,10.2H720.3c-2.8,0-5.4-1.1-7.2-3
							c-1.7-1.7-2.9-4.1-3-6.7c-0.3-5.9,4.9-10.7,10.7-10.7h101.6C828.1,314.6,832.7,319.1,832.7,324.7z"/>
					</g>
					<path id="XMLID_2560_" class="st22" d="M826.4,324.7h-69.8c-3.4,0-5.9-2.8-5.5-6.2l8.5-78c0.4-3.4,3.5-6.2,6.9-6.2h69.8
						c3.4,0,5.9,2.8,5.5,6.2l-8.5,78C833,322,829.9,324.7,826.4,324.7z"/>
				</g>
				<g id="XMLID_2562_">
					<g id="XMLID_2568_">
						<g id="XMLID_2571_">
							<path id="XMLID_2583_" class="st27" d="M1072.9,410.7c-2.7,0-4.8-2.2-4.8-4.8c0-2.7,2.2-4.8,4.8-4.8c2.7,0,4.8,2.2,4.8,4.8
								C1077.7,408.5,1075.6,410.7,1072.9,410.7z"/>
							<path id="XMLID_2582_" class="st27" d="M1022.7,410.7c-2.7,0-4.8-2.2-4.8-4.8c0-2.7,2.2-4.8,4.8-4.8c2.7,0,4.8,2.2,4.8,4.8
								C1027.5,408.5,1025.3,410.7,1022.7,410.7z"/>
							<rect id="XMLID_2581_" x="1065.9" y="360.5" class="st28" width="8.5" height="33.1"/>
							<path id="XMLID_2580_" class="st27" d="M1074,389.4h-7.7c-1.1,0-1.9,0.9-1.9,1.9v3.5l-39,2.3c-2.8,0.2-5.1,2.5-5.1,5.4v0
								h44.1h3.4h4.7v0h47.5l0,0c0-2.8-2.2-5.2-5.1-5.4l-39-2.3v-3.5C1075.9,390.3,1075.1,389.4,1074,389.4z"/>
							<path id="XMLID_2579_" class="st27" d="M1075.2,372.7h-10c-1.1,0-1.9-0.9-1.9-1.9v-11.1h13.8v11.1
								C1077.1,371.8,1076.2,372.7,1075.2,372.7z"/>
							<path id="XMLID_2578_" class="st27" d="M1078.3,362.2H1062c-1.2,0-2.2-1-2.2-2.2v-15.7h20.6V360
								C1080.5,361.2,1079.5,362.2,1078.3,362.2z"/>
							<path id="XMLID_2577_" class="st27" d="M1088.5,344.2h-36.7c-5.1,0-9.3-4.2-9.3-9.3l0,0h55.3l0,0
								C1097.8,340.1,1093.6,344.2,1088.5,344.2z"/>
							<g id="XMLID_2572_">
								<path id="XMLID_2576_" class="st29" d="M1121.4,405.8c0,2.7-2.2,4.8-4.8,4.8c-2.7,0-4.8-2.2-4.8-4.8c0,0,0,0,0,0
									L1121.4,405.8C1121.4,405.8,1121.4,405.8,1121.4,405.8z"/>
								<path id="XMLID_2575_" class="st29" d="M1116.5,401c2.7,0,4.8,2.2,4.8,4.8h-9.7C1111.7,403.2,1113.9,401,1116.5,401z"/>
								<path id="XMLID_2574_" class="st29" d="M1072.9,401c2.7,0,4.8,2.2,4.8,4.8h-9.7C1068.1,403.2,1070.2,401,1072.9,401z"/>
								<path id="XMLID_2573_" class="st29" d="M1022.7,401c2.7,0,4.8,2.2,4.8,4.8h-9.7C1017.8,403.2,1020,401,1022.7,401z"/>
							</g>
						</g>
						<path id="XMLID_2570_" class="st30" d="M1077.1,361.1h2.6c0.4,0,0.8-0.4,0.8-0.8v-17.1h-3.4V361.1z"/>
						<path id="XMLID_2569_" class="st30" d="M1073.7,371.7h2.6c0.4,0,0.8-0.4,0.8-0.8v-9.7h-3.4V371.7z"/>
					</g>
					<g id="XMLID_2566_">
						<path id="XMLID_2567_" class="st22" d="M1126.8,324.7L1126.8,324.7c0,5.6-4.6,10.2-10.2,10.2h-102.2c-2.8,0-5.4-1.1-7.2-3
							c-1.7-1.7-2.9-4.1-3-6.7c-0.3-5.9,4.9-10.7,10.7-10.7h101.6C1122.3,314.6,1126.8,319.1,1126.8,324.7z"/>
					</g>
					<path id="XMLID_2565_" class="st22" d="M1120.6,324.7h-69.8c-3.4,0-5.9-2.8-5.5-6.2l8.5-78c0.4-3.4,3.5-6.2,6.9-6.2h69.8
						c3.4,0,5.9,2.8,5.5,6.2l-8.5,78C1127.1,322,1124.1,324.7,1120.6,324.7z"/>
				</g>
				<g id="XMLID_2476_">
					<g id="XMLID_2480_">
						<rect id="XMLID_2482_" x="623.5" y="200.8" class="st37" width="36.7" height="56.4"/>
						<rect id="XMLID_2481_" x="651.4" y="200.8" class="st38" width="8.8" height="56.4"/>
					</g>
					<g id="XMLID_2477_">
						<rect id="XMLID_2479_" x="608.3" y="211.4" class="st33" width="36.7" height="45.9"/>
						<linearGradient id="XMLID_21_" gradientUnits="userSpaceOnUse" x1="636.2842" y1="234.3329" x2="645.0494" y2="234.3329">
							<stop  offset="0" style="stop-color:#616860"/>
							<stop  offset="1" style="stop-color:#7C843C"/>
						</linearGradient>
						<rect id="XMLID_2478_" x="636.3" y="211.4" class="st39" width="8.8" height="45.9"/>
					</g>
				</g>
			</g>
			<linearGradient id="XMLID_22_" gradientUnits="userSpaceOnUse" x1="735.2358" y1="164.7628" x2="735.2358" y2="-88.248">
				<stop  offset="0" style="stop-color:#000000"/>
				<stop  offset="9.024793e-02" style="stop-color:#292821"/>
				<stop  offset="0.2271" style="stop-color:#615E4E"/>
				<stop  offset="0.3648" style="stop-color:#918D74"/>
				<stop  offset="0.5002" style="stop-color:#B9B394"/>
				<stop  offset="0.6329" style="stop-color:#D8D1AC"/>
				<stop  offset="0.7622" style="stop-color:#EDE6BE"/>
				<stop  offset="0.8864" style="stop-color:#FBF3C8"/>
				<stop  offset="1" style="stop-color:#FFF7CC"/>
			</linearGradient>
			<path id="XMLID_2864_" class="st40" d="M854.1-70.8C756.7-13,659.3,44.8,562,102.6c-6.5,18.6-12.9,37.1-19.4,55.7
				C671,81.9,799.5,5.5,927.9-70.8H854.1z"/>
		</g>
		<linearGradient id="Lighting_1_" gradientUnits="userSpaceOnUse" x1="948.2577" y1="-348.4267" x2="936.498" y2="304.8947">
			<stop  offset="0" style="stop-color:#FFF7CC"/>
			<stop  offset="0.1136" style="stop-color:#FBF3C8"/>
			<stop  offset="0.2378" style="stop-color:#EDE6BE"/>
			<stop  offset="0.3671" style="stop-color:#D8D1AC"/>
			<stop  offset="0.4998" style="stop-color:#B9B394"/>
			<stop  offset="0.6352" style="stop-color:#918D74"/>
			<stop  offset="0.7729" style="stop-color:#615E4E"/>
			<stop  offset="0.9098" style="stop-color:#292821"/>
			<stop  offset="1" style="stop-color:#000000"/>
		</linearGradient>
		<path id="Lighting" class="st41" d="M1419,412.9c-323,3.6-646.1,7.2-969.1,10.8c69.9-199,139.7-398,209.6-597
			c253.2,0,506.3,0,759.5,0V412.9z"/>
		<g>
			<g id="XMLID_1311_">
				<polygon id="XMLID_2399_" class="st42" points="-7.3,-590.6 -7.3,-149.5 1410.1,-149.5 1921.1,-514.1 1921.1,-590.6 				"/>
				<g id="XMLID_2396_">
					<rect id="XMLID_2398_" x="362.8" y="-374.4" class="st14" width="762.5" height="18.6"/>
					<polygon id="XMLID_2397_" class="st13" points="1103.8,-329 1125.3,-355.8 362.8,-355.8 387,-329 					"/>
				</g>
				<path id="XMLID_2856_" class="st13" d="M1589.7-590.6l-273.4,357.1L1191.4-173c-178.3,0.9-356.6,1.8-534.9,2.7
					c-10.9,34.1-21.9,68.2-32.8,102.3l573.8-7.3c70.9-24.7,141.7-49.5,212.6-74.2c170.4-121.5,340.7-243.1,511.1-364.6v-76.5H1589.7
					z"/>
				<path id="XMLID_2854_" class="st42" d="M1410.1-149.5c-70.9,24.7-141.7,49.5-212.6,74.2c-191.3,0-382.5,0-573.8,0v-74.2
					C885.8-149.5,1148-149.5,1410.1-149.5z"/>
			</g>
			<g id="XMLID_1788_">
				<path id="XMLID_2032_" class="st13" d="M441,447.6H-7.3v-597c219.3,0,438.5,0,657.8,0C580.7,49.5,510.9,248.5,441,447.6z"/>
				<path id="XMLID_2777_" class="st37" d="M362.4,141.1H248.1c-6.7,0-12.2-5.5-12.2-12.2l0,0c0-6.7,5.5-12.2,12.2-12.2h114.3
					c6.7,0,12.2,5.5,12.2,12.2l0,0C374.6,135.6,369.1,141.1,362.4,141.1z"/>
				<path id="XMLID_1790_" class="st42" d="M650.6-149.5c-2.1,6.4-4.2,12.8-6.3,19.2c-6.9,20.8-13.7,41.6-20.5,62.3
					C413.4-3.5,203.1,60.8-7.3,125.2v-274.6H650.6z"/>
				<path id="XMLID_2711_" class="st14" d="M656.5-170.5c-2.1,6.4-4.2,12.8-6.3,19.2H-1.3v-19.2H656.5z"/>
			</g>
			<g id="XMLID_2494_">
				<path id="XMLID_2879_" class="st42" d="M-7.3,255.7h182.6v190.7c0,2.4-1.9,4.3-4.3,4.3H-2.9c-2.4,0-4.3-1.9-4.3-4.3V255.7z"/>
				<path id="XMLID_2877_" class="st14" d="M-7.3,343.2h182.6v3.6h-29.6v6.3c0,1.5-1.2,2.7-2.7,2.7h-35.4c-2.5,0-4.9-1.1-6.4-3.1
					l-4.7-5.9H-7.3V343.2z"/>
				<path id="XMLID_2875_" class="st14" d="M-7.3,383.1h182.6v3.6h-29.6v6.3c0,1.5-1.2,2.7-2.7,2.7h-35.4c-2.5,0-4.9-1.1-6.4-3.1
					l-4.7-5.9H-7.3V383.1z"/>
				<path id="XMLID_2873_" class="st14" d="M-7.3,414.7h182.6v3.6h-29.6v6.3c0,1.5-1.2,2.7-2.7,2.7h-35.4c-2.5,0-4.9-1.1-6.4-3.1
					l-4.7-5.9H-7.3V414.7z"/>
				<path id="XMLID_2871_" class="st42" d="M-7.3,221.7v34H35v-29.9c0-2.4,2-4.4,4.4-4.4h116.4c2.4,0,4.4-2.1,4.1-4.6l-0.5-4.6
					l-1.7-16.4c-0.2-2.1-2-3.7-4.1-3.7H-0.2c-2.3,0-4.2,1.7-4.4,4l-2.6,25C-7.3,221.4-7.3,221.5-7.3,221.7z"/>
				<path id="XMLID_2865_" class="st14" d="M28.3,219.5v32.4c0,2.2,1.7,3.9,3.9,3.9H35v-29.9c0-2.4,2-4.4,4.4-4.4h116.4
					c2.4,0,4.4-2.1,4.1-4.6l-0.5-4.6h-124C31.5,212.3,28.3,215.5,28.3,219.5z"/>
				<path id="XMLID_2863_" class="st13" d="M35,251.9h136.5c2.1,0,3.8,1.7,3.8,3.8v0H35V251.9z"/>
				<path id="XMLID_2861_" class="st22" d="M155.8,221.4v9.1l3.2,1.3c3.3,1.3,5.5,4.6,5.5,8.1v4.4c3.9,0,7,3.1,7,7v0.3h-15.7v0.2H35
					v-0.2v-7.3v-22.9H155.8z"/>
				<path id="XMLID_2846_" class="st14" d="M9.5,183.4h137c2.4,0,4.3,1.9,4.3,4.3v4.5H5.2v-4.5C5.2,185.4,7.1,183.4,9.5,183.4z"/>
				<polygon id="XMLID_2844_" class="st22" points="25.1,162.1 83.6,176.6 85,169 25.9,158.1 				"/>
				<path id="XMLID_2843_" class="st14" d="M95.3,167.4h26.8c10.4,0,19.8,6.1,24.1,15.5l0.3,0.6H51.4l0.2-0.2
					C63.8,173,79.3,167.4,95.3,167.4z"/>
			</g>
			<g id="XMLID_1030_">
				<rect id="XMLID_2705_" x="474.6" y="416.4" class="st22" width="56.2" height="277.8"/>
				<polygon id="XMLID_2625_" class="st13" points="617.7,401.3 617.7,434.3 305.2,654.3 -7.3,654.3 -7.3,447.6 				"/>
				<polygon id="XMLID_2624_" class="st42" points="-4.4,401.3 617.7,401.3 292.2,615.7 -7.3,615.7 				"/>
				<path id="XMLID_2630_" class="st22" d="M56.7,375.9c0-0.8,74.5,138.5,74.5,138.5l159.3-84.1l-71.3-110.7L56.7,375.9z"/>
				<path id="XMLID_2631_" class="st43" d="M136.5,497c-20.4-38-40.8-76-61.2-114c47.2-17.2,94.3-34.4,141.5-51.7
					c18.4,31.4,36.9,62.7,55.3,94.1L136.5,497z"/>
				<path id="XMLID_1309_" class="st43" d="M56.7,375.9l-2.7,4.7c24.5,46.6,49,93.2,73.5,139.8c1.2,0.2,2.5,0.3,3.7,0.5
					c0-2.5,0-5,0-7.6L56.7,375.9z"/>
				<polygon id="XMLID_1307_" class="st43" points="131.2,514.4 131.2,520.8 309.6,530.4 451.7,444.3 451.7,436.8 				"/>
				<polygon id="XMLID_2632_" class="st22" points="131.2,514.4 307.8,522.5 451.7,436.8 290.5,430.3 				"/>
				<rect id="XMLID_2695_" x="203.3" y="654.3" class="st22" width="56.2" height="40.7"/>
				<g id="XMLID_1760_">
					<polygon id="XMLID_1758_" class="st43" points="200.6,501.4 187.4,501.4 179.8,505.6 193.1,505.6 					"/>
					<polygon id="XMLID_1756_" class="st43" points="211.9,495.2 198.6,495.2 191.1,499.4 204.4,499.4 					"/>
					<polygon id="XMLID_1754_" class="st43" points="223.2,489 209.9,489 202.4,493.2 215.6,493.2 					"/>
					<polygon id="XMLID_1746_" class="st43" points="234.4,482.8 221.1,482.8 213.6,486.9 226.9,486.9 					"/>
					<polygon id="XMLID_1690_" class="st43" points="245.7,476.5 232.4,476.5 224.9,480.7 238.1,480.7 					"/>
					<polygon id="XMLID_1668_" class="st43" points="249.4,474.5 256.9,470.3 243.6,470.3 236.1,474.5 					"/>
					<polygon id="XMLID_1667_" class="st43" points="268.2,464.1 254.9,464.1 247.4,468.3 260.6,468.3 					"/>
					<polygon id="XMLID_1666_" class="st43" points="271.9,462 279.4,457.9 266.1,457.9 258.6,462 					"/>
					<polygon id="XMLID_1665_" class="st43" points="290.7,451.7 277.4,451.7 269.9,455.8 283.2,455.8 					"/>
					<polygon id="XMLID_1664_" class="st43" points="301.9,445.4 288.6,445.4 281.1,449.6 294.4,449.6 					"/>
					<polygon id="XMLID_1663_" class="st43" points="313.2,439.2 299.9,439.2 292.4,443.4 305.7,443.4 					"/>
					<polygon id="XMLID_1662_" class="st43" points="222.1,501.4 208.8,501.4 201.3,505.6 214.5,505.6 					"/>
					<polygon id="XMLID_1661_" class="st43" points="233.3,495.2 220,495.2 212.5,499.4 225.8,499.4 					"/>
					<polygon id="XMLID_1646_" class="st43" points="244.6,489 231.3,489 223.8,493.2 237,493.2 					"/>
					<polygon id="XMLID_1641_" class="st43" points="255.8,482.8 242.5,482.8 235,486.9 248.3,486.9 					"/>
					<polygon id="XMLID_1639_" class="st43" points="267.1,476.5 253.8,476.5 246.3,480.7 259.6,480.7 					"/>
					<polygon id="XMLID_1636_" class="st43" points="270.8,474.5 278.3,470.3 265.1,470.3 257.5,474.5 					"/>
					<polygon id="XMLID_1634_" class="st43" points="289.6,464.1 276.3,464.1 268.8,468.3 282.1,468.3 					"/>
					<polygon id="XMLID_1633_" class="st43" points="293.3,462 300.8,457.9 287.6,457.9 280,462 					"/>
					<polygon id="XMLID_1627_" class="st43" points="312.1,451.7 298.8,451.7 291.3,455.8 304.6,455.8 					"/>
					<polygon id="XMLID_1626_" class="st43" points="323.3,445.4 310.1,445.4 302.5,449.6 315.8,449.6 					"/>
					<polygon id="XMLID_1625_" class="st43" points="334.6,439.2 321.3,439.2 313.8,443.4 327.1,443.4 					"/>
					<polygon id="XMLID_1616_" class="st43" points="251,497.3 237.7,497.3 222.7,505.6 236,505.6 					"/>
					<polygon id="XMLID_1593_" class="st43" points="356,439.2 342.7,439.2 327.7,447.5 341,447.5 					"/>
					<polygon id="XMLID_1592_" class="st43" points="261,491.8 247.7,491.8 240.2,495.9 253.4,495.9 					"/>
					<polygon id="XMLID_1585_" class="st43" points="272,485.6 258.8,485.6 251.2,489.8 264.5,489.8 					"/>
					<polygon id="XMLID_1580_" class="st43" points="283.1,479.5 269.8,479.5 262.3,483.7 275.6,483.7 					"/>
					<polygon id="XMLID_1579_" class="st43" points="286.7,477.6 294.2,473.4 280.9,473.4 273.4,477.6 					"/>
					<polygon id="XMLID_1570_" class="st43" points="305.3,467.3 292,467.3 284.5,471.4 297.7,471.4 					"/>
					<polygon id="XMLID_1389_" class="st43" points="308.8,465.3 316.3,461.2 303.1,461.2 295.5,465.3 					"/>
					<polygon id="XMLID_1322_" class="st43" points="327.4,455 314.1,455 306.6,459.2 319.9,459.2 					"/>
					<polygon id="XMLID_1304_" class="st43" points="338.5,448.9 325.2,448.9 317.7,453.1 331,453.1 					"/>
					<polygon id="XMLID_1197_" class="st43" points="264.9,501.4 251.6,501.4 244.1,505.6 257.4,505.6 					"/>
					<polygon id="XMLID_1169_" class="st43" points="276.1,495.2 262.9,495.2 255.3,499.4 268.6,499.4 					"/>
					<polygon id="XMLID_1049_" class="st43" points="287.4,489 274.1,489 266.6,493.2 279.9,493.2 					"/>
					<polygon id="XMLID_1044_" class="st43" points="311.6,468.3 307.9,470.3 300.4,474.5 277.1,487.3 290.4,487.3 313.6,474.5 
						321.2,470.3 324.9,468.3 332.4,464.1 343.7,457.9 330.4,457.9 319.1,464.1 					"/>
					<polygon id="XMLID_1043_" class="st43" points="354.9,451.7 341.6,451.7 334.1,455.8 347.4,455.8 					"/>
					<polygon id="XMLID_1039_" class="st43" points="366.2,445.4 352.9,445.4 345.4,449.6 358.7,449.6 					"/>
					<polygon id="XMLID_1035_" class="st43" points="377.4,439.2 364.1,439.2 356.6,443.4 369.9,443.4 					"/>
				</g>
			</g>
			<g id="XMLID_1024_">
				<defs>
					<rect id="XMLID_1029_" x="502.7" y="374.6" width="501.2" height="320.4"/>
				</defs>
				<clipPath id="XMLID_23_">
					<use xlink:href="#XMLID_1029_"  style="overflow:visible;"/>
				</clipPath>
				<g id="XMLID_2712_" class="st44">
					<g id="XMLID_2731_">
						<g id="XMLID_2737_">
							<path id="XMLID_2771_" class="st27" d="M773.4,875.6c-7.5,0-13.7-6.2-13.7-13.7c0-7.5,6.2-13.7,13.7-13.7
								c7.5,0,13.7,6.2,13.7,13.7C787.1,869.5,780.9,875.6,773.4,875.6z"/>
							<path id="XMLID_2770_" class="st27" d="M631,875.6c-7.5,0-13.7-6.2-13.7-13.7c0-7.5,6.2-13.7,13.7-13.7
								c7.5,0,13.7,6.2,13.7,13.7C644.7,869.5,638.6,875.6,631,875.6z"/>
							<rect id="XMLID_2769_" x="753.5" y="733.3" class="st28" width="24.2" height="93.8"/>
							<path id="XMLID_2767_" class="st27" d="M776.5,815.4h-21.7c-3,0-5.5,2.4-5.5,5.5v9.9l-110.5,6.4c-8,0.5-14.3,7.1-14.3,15.2v0
								h124.9h9.7h13.2v0h134.6l0,0c0-8.1-6.3-14.7-14.3-15.2l-110.5-6.4v-9.9C781.9,817.9,779.5,815.4,776.5,815.4z"/>
							<path id="XMLID_2754_" class="st27" d="M779.8,767.9h-28.3c-3,0-5.4-2.4-5.4-5.4V731h39.1v31.5
								C785.2,765.5,782.7,767.9,779.8,767.9z"/>
							<path id="XMLID_2750_" class="st27" d="M788.6,738.1h-46c-3.4,0-6.2-2.8-6.2-6.2v-44.6h58.4v44.6
								C794.8,735.3,792.1,738.1,788.6,738.1z"/>
							<path id="XMLID_2749_" class="st27" d="M817.6,687.3h-104c-14.6,0-26.4-11.8-26.4-26.4l0,0H844l0,0
								C844,675.5,832.1,687.3,817.6,687.3z"/>
							<g id="XMLID_2740_">
								<path id="XMLID_2744_" class="st29" d="M910.7,861.9c0,7.5-6.2,13.7-13.7,13.7c-7.5,0-13.7-6.2-13.7-13.7c0,0,0,0,0,0
									L910.7,861.9C910.7,861.9,910.7,861.9,910.7,861.9z"/>
								<path id="XMLID_2743_" class="st29" d="M897,848.2c7.5,0,13.7,6.2,13.7,13.7h-27.4C883.3,854.4,889.4,848.2,897,848.2z"/>
								<path id="XMLID_2742_" class="st29" d="M773.4,848.2c7.5,0,13.7,6.2,13.7,13.7h-27.4C759.7,854.4,765.8,848.2,773.4,848.2z"
									/>
								<path id="XMLID_2741_" class="st29" d="M631,848.2c7.5,0,13.7,6.2,13.7,13.7h-27.4C617.4,854.4,623.5,848.2,631,848.2z"/>
							</g>
						</g>
						<path id="XMLID_2734_" class="st30" d="M785.2,735.2h7.4c1.2,0,2.2-1,2.2-2.2v-48.6h-9.7V735.2z"/>
						<path id="XMLID_2732_" class="st30" d="M775.5,765h7.4c1.2,0,2.2-1,2.2-2.2v-27.6h-9.7V765z"/>
					</g>
					<g id="XMLID_2724_">
						<path id="XMLID_2730_" class="st22" d="M926.2,632.1L926.2,632.1c0,15.9-12.9,28.9-28.9,28.9H607.8c-7.9,0-15.2-3.2-20.4-8.5
							c-4.9-5-8.1-11.7-8.4-19.1c-0.8-16.6,13.8-30.2,30.4-30.2h288C913.3,603.2,926.2,616.1,926.2,632.1z"/>
					</g>
					<path id="XMLID_2723_" class="st22" d="M908.6,632.1H710.7c-9.7,0-16.7-7.9-15.7-17.6l24.2-221c1.1-9.7,9.8-17.6,19.5-17.6
						h197.9c9.7,0,16.7,7.9,15.7,17.6l-24.2,221C927.1,624.2,918.3,632.1,908.6,632.1z"/>
				</g>
			</g>
		</g>
	</g>
</g>
<g id="Layer_1">
	<path class="st45" d="M1286.7,65.7h412.5c13.5,0,24.6,11.1,24.6,24.6v254.1H1262V90.3C1262,76.8,1273.1,65.7,1286.7,65.7z"/>
	<path class="st46" d="M1278.7,327.7H1707V90.3c0-4.3-3.6-7.9-7.9-7.9h-412.5c-4.3,0-7.9,3.6-7.9,7.9L1278.7,327.7L1278.7,327.7z"/>
	<path class="st13" d="M1723.8,344.4v26.9c0,13.6-12.2,24.6-27.2,24.6h-407.4c-14.9,0-27.2-11.1-27.2-24.6v-26.9H1723.8
		L1723.8,344.4z"/>
	<circle class="st47" cx="1492.9" cy="369.1" r="8.5"/>
	<path class="st48" d="M1546.1,434.8l39.2,12.6h-184.9l31.6-12.6V396h114.1L1546.1,434.8L1546.1,434.8z"/>
	<path class="st49" d="M1432.1,434.8h114.1l39.2,12.6v5.4h-92.4h-92.4v-5.4L1432.1,434.8z"/>
	<path class="st50" d="M1432.1,396h114.1v39.4L1432.1,396z"/>
	<path class="st13" d="M1377.4,110.3h231h34.4c4.2,0,7.6,3.4,7.6,7.6V163v164.7h-315l0,0V163v-45.1c0-4.2,3.4-7.6,7.6-7.6
		L1377.4,110.3L1377.4,110.3L1377.4,110.3z"/>
	<path class="st51" d="M1343,110.3h299.8c4.2,0,7.6,3.4,7.6,7.6v15.2h-315v-15.2C1335.4,113.7,1338.8,110.3,1343,110.3z"/>
	<path class="st13" d="M1475.6,118.2h152.2c1.1,0,2,0.9,2,2v3.8c0,1.1-0.9,2-2,2h-152.2c-1.1,0-2-0.9-2-2v-3.8
		C1473.6,119.1,1474.5,118.2,1475.6,118.2z"/>
	<path class="st52" d="M1350.5,116.8c2.4,0,4.4,1.9,4.4,4.4s-2,4.4-4.4,4.4c-2.4,0-4.4-2-4.4-4.4
		C1346.1,118.8,1348.1,116.8,1350.5,116.8z"/>
	<path class="st53" d="M1367.7,116.8c2.4,0,4.4,1.9,4.4,4.4s-1.9,4.4-4.4,4.4c-2.4,0-4.4-2-4.4-4.4
		C1363.4,118.8,1365.3,116.8,1367.7,116.8z"/>
	<path class="st54" d="M1385,116.8c2.4,0,4.4,1.9,4.4,4.4s-2,4.4-4.4,4.4c-2.4,0-4.4-2-4.4-4.4
		C1380.6,118.8,1382.5,116.8,1385,116.8z"/>
	<g>
		<circle class="st49" cx="1492.9" cy="201.3" r="53.1"/>
		<circle class="st49" cx="1466.4" cy="259.3" r="53.1"/>
		<circle class="st49" cx="1519.4" cy="259.3" r="53.1"/>
	</g>
	<path class="st45" d="M1518.3,248c-3.2-14.8-12.6-27.4-25.4-34.8c-12.8,7.4-22.2,19.9-25.4,34.8c7.5,4.1,16.2,6.5,25.4,6.5
		C1502.1,254.5,1510.7,252.1,1518.3,248z"/>
	<path class="st52" d="M1492.9,213.3c12.8,7.4,22.2,19.9,25.4,34.8c13.3-7.3,23.2-20.1,26.5-35.4c-7.5-4.1-16.2-6.5-25.4-6.5
		C1509.8,206.2,1500.7,208.8,1492.9,213.3L1492.9,213.3z"/>
	<path class="st53" d="M1467.5,248c3.2-14.8,12.6-27.4,25.4-34.8c-7.8-4.5-16.9-7.1-26.5-7.1c-9.2,0-17.9,2.3-25.4,6.5
		C1444.3,227.9,1454.1,240.8,1467.5,248L1467.5,248z"/>
	<path class="st54" d="M1492.9,254.5c-9.2,0-17.9-2.3-25.4-6.5c-0.8,3.6-1.2,7.4-1.2,11.3c0,19.7,10.7,36.9,26.6,46.1
		c15.9-9.2,26.6-26.4,26.6-46.1c0-3.9-0.4-7.7-1.2-11.3C1510.7,252.2,1502.1,254.5,1492.9,254.5L1492.9,254.5L1492.9,254.5
		L1492.9,254.5z"/>
</g>
</svg>
